<?xml version="1.0" standalone="no"?>
<!DOCTYPE svg PUBLIC "-//W3C//DTD SVG 1.1//EN" "http://www.w3.org/Graphics/SVG/1.1/DTD/svg11.dtd" >
<svg>
<metadata>
Created by FontForge 20090622 at Wed Aug  7 16:50:53 2013
 By ffonts
Naz Moj &#194;&#169;
</metadata>
<defs>
<font id="Baanoo" horiz-adv-x="1614" >
  <font-face 
    font-family="!F Baanoo"
    font-weight="300"
    font-stretch="normal"
    units-per-em="2048"
    panose-1="2 11 8 0 4 0 0 2 0 4"
    ascent="1400"
    descent="-648"
    x-height="928"
    cap-height="1092"
    bbox="-285 -740 2979 1871"
    underline-thickness="50"
    underline-position="-550"
    unicode-range="U+000D-U+FEFF"
  />
<missing-glyph horiz-adv-x="725" 
d="M0 1015h725v-1015h-725v1015zM609 942h-493l246 -369zM652 138v739l-246 -370zM609 72l-247 370l-246 -370h493zM72 138l247 369l-247 370v-739z" />
    <glyph glyph-name="uniFEF5" unicode="&#xfedf;&#xfe82;" horiz-adv-x="866" arabic-form="isolated" 
d="M741 166q45 102 45 352v712q0 86 18 102q5 5 36 11q26 5 26 11q0 9 -18 9h-249q-19 0 -19 -9t9 -9q62 0 77 -23q13 -18 13 -92v-834q0 -150 -37 -231q-55 -121 -196 -121q-223 0 -234 313h-101q12 -163 75 -247q82 -110 260 -110q222 0 295 166zM213 464q-1 69 -1 209
q0 186 1 278q1 93 1 218q0 77 19 98q15 15 70 17q9 0 9 6q0 12 -18 12h-249q-18 0 -18 -12q0 -6 9 -6q45 -2 60 -27q11 -18 11 -63l-1 -544q0 -123 1 -186h106zM155 1362q-71 7 -106 7q-77 0 -126 -26q-5 -4 -12 -4q-5 0 -5 4q0 2 1 3q108 56 204 56q35 0 110 -7
q75 -8 111 -8q78 0 127 26q8 4 11 4q5 0 5 -4v-3q-107 -56 -213 -56q-34 0 -107 8z" />
    <glyph glyph-name="uniFEF6" unicode="&#xfee0;&#xfe82;" horiz-adv-x="1020" arabic-form="final" 
d="M733 160q74 -144 287 -160v44q-142 11 -197 127q-37 79 -37 225l1 865q0 57 21 73q11 8 34 8q25 0 32 3q9 3 12 9q0 9 -19 9h-267q-20 0 -19 -9q2 -9 10 -9q57 0 74 -19q14 -17 14 -68l2 -862q0 -150 -37 -231q-56 -121 -197 -121q-224 0 -233 313h-103q14 -164 76 -247
q82 -110 260 -110q203 0 286 160zM213 464q-1 69 -1 209q0 186 1 278q1 93 1 218q0 77 19 98q15 15 70 17q9 0 9 6q0 12 -18 12h-249q-18 0 -18 -12q0 -6 9 -6q45 -2 60 -27q11 -18 11 -63l-1 -544q0 -123 1 -186h106zM155 1362q-71 7 -106 7q-77 0 -126 -26q-5 -4 -12 -4
q-5 0 -5 4q0 2 1 3q108 56 204 56q35 0 110 -7q75 -8 111 -8q78 0 127 26q8 4 11 4q5 0 5 -4v-3q-107 -56 -213 -56q-34 0 -107 8z" />
    <glyph glyph-name="uniFEF7" unicode="&#xfedf;&#xfe84;" horiz-adv-x="866" arabic-form="isolated" 
d="M741 166q45 102 45 352v712q0 86 18 102q5 5 36 11q26 5 26 11q0 9 -18 9h-249q-19 0 -19 -9t9 -9q62 0 77 -23q13 -18 13 -92v-834q0 -150 -37 -231q-55 -121 -196 -121q-223 0 -234 313h-101q12 -163 75 -247q82 -110 260 -110q222 0 295 166zM213 464l-1 55l2 420
q0 77 19 98q15 15 70 17q9 0 9 6q0 12 -18 12h-249q-18 0 -18 -12q0 -6 9 -6q45 -2 60 -27q11 -18 11 -63l-1 -453l1 -47h106zM60 1130q-48 0 -131 -62q24 50 82 68q-44 10 -71 48q-25 36 -25 83q0 56 42 96q41 39 98 39h167q85 0 112 5q68 12 95 58l-12 -22
q-10 -17 -18 -29q-27 -37 -66 -47q-30 -8 -142 -8q-156 1 -178 0q-30 0 -48 -30q-15 -25 -15 -53q0 -46 23 -81q25 -38 67 -47h401v-18h-381z" />
    <glyph glyph-name="uniFEF8" unicode="&#xfee0;&#xfe84;" horiz-adv-x="1020" arabic-form="final" 
d="M733 160q74 -144 287 -160v44q-142 11 -197 127q-37 79 -37 225l1 865q0 57 21 73q11 8 34 8q25 0 32 3q9 3 12 9q0 9 -19 9h-267q-20 0 -19 -9q2 -9 10 -9q57 0 74 -19q14 -17 14 -68l2 -862q0 -150 -37 -231q-56 -121 -197 -121q-224 0 -233 313h-103q14 -164 76 -247
q82 -110 260 -110q203 0 286 160zM213 464l-1 55l2 420q0 77 19 98q15 15 70 17q9 0 9 6q0 12 -18 12h-249q-18 0 -18 -12q0 -6 9 -6q45 -2 60 -27q11 -18 11 -63l-1 -453l1 -47h106zM60 1130q-48 0 -131 -62q24 50 82 68q-44 10 -71 48q-25 36 -25 83q0 56 42 96
q41 39 98 39h167q85 0 112 5q68 12 95 58l-12 -22q-10 -17 -18 -29q-27 -37 -66 -47q-30 -8 -142 -8q-156 1 -178 0q-30 0 -48 -30q-15 -25 -15 -53q0 -46 23 -81q25 -38 67 -47h401v-18h-381z" />
    <glyph glyph-name="uniFEF9" unicode="&#xfedf;&#xfe88;" horiz-adv-x="866" arabic-form="isolated" 
d="M186 110q-63 84 -75 247h101q11 -313 234 -313q141 0 196 121q37 81 37 231v834q0 74 -13 92q-15 23 -77 23q-9 0 -9 9t19 9h249q18 0 18 -9q0 -6 -26 -11q-31 -6 -36 -11q-18 -16 -18 -102v-712q0 -250 -45 -352q-73 -166 -295 -166q-178 0 -260 110zM107 464
q-3 135 -1 383q2 266 0 383q-1 65 -7 80q-13 33 -65 35q-9 0 -9 6q0 12 19 12h249q18 0 18 -12q0 -6 -9 -6q-46 -2 -61 -10q-24 -14 -27 -55q-2 -109 -2 -816h-105zM202 -364q-48 0 -131 -62q24 50 82 68q-44 10 -71 48q-25 36 -25 83q0 56 42 96q41 39 98 39h167
q85 0 112 5q68 12 95 58l-12 -22q-10 -17 -18 -29q-27 -37 -66 -47q-30 -8 -142 -8q-156 1 -178 0q-30 0 -48 -30q-15 -25 -15 -53q0 -46 23 -81q25 -38 67 -47h401v-18h-381z" />
    <glyph glyph-name="uniFEFA" unicode="&#xfee0;&#xfe88;" horiz-adv-x="1020" arabic-form="final" 
d="M187 110q-62 83 -76 247h103q9 -313 233 -313q141 0 197 121q37 81 37 231l-2 862q0 51 -14 68q-17 19 -74 19q-8 0 -10 9q-1 9 19 9h267q19 0 19 -9q-3 -6 -12 -9q-7 -3 -32 -3q-23 0 -34 -8q-21 -16 -21 -73l-1 -865q0 -146 37 -225q55 -116 197 -127v-44
q-213 16 -287 160q-83 -160 -286 -160q-178 0 -260 110zM107 464q-1 63 -1 186l1 605q0 45 -11 63q-15 25 -60 27q-9 0 -9 6q0 12 18 12h249q18 0 18 -12q0 -6 -9 -6q-55 -2 -70 -17q-19 -21 -19 -98l-2 -557q0 -140 1 -209h-106zM202 -364q-48 0 -131 -62q24 50 82 68
q-44 10 -71 48q-25 36 -25 83q0 56 42 96q41 39 98 39h167q85 0 112 5q68 12 95 58l-12 -22q-10 -17 -18 -29q-27 -37 -66 -47q-30 -8 -142 -8q-156 1 -178 0q-30 0 -48 -30q-15 -25 -15 -53q0 -46 23 -81q25 -38 67 -47h401v-18h-381z" />
    <glyph glyph-name="uniFEFB" unicode="&#xfedf;&#xfe8e;" horiz-adv-x="866" arabic-form="isolated" 
d="M186 110q-63 84 -75 247h101q11 -313 234 -313q141 0 196 121q37 81 37 231v834q0 74 -13 92q-15 23 -77 23q-9 0 -9 9t19 9h249q18 0 18 -9q0 -6 -26 -11q-31 -6 -36 -11q-18 -16 -18 -102v-712q0 -250 -45 -352q-73 -166 -295 -166q-178 0 -260 110zM107 464
q-3 135 -1 383q2 266 0 383q-1 65 -7 80q-13 33 -65 35q-9 0 -9 6q0 12 19 12h249q18 0 18 -12q0 -6 -9 -6q-46 -2 -61 -10q-24 -14 -27 -55q-2 -109 -2 -816h-105z" />
    <glyph glyph-name="uniFEFC" unicode="&#xfee0;&#xfe8e;" horiz-adv-x="1020" arabic-form="final" 
d="M187 110q-62 83 -76 247h103q9 -313 233 -313q141 0 197 121q37 81 37 231l-2 862q0 51 -14 68q-17 19 -74 19q-8 0 -10 9q-1 9 19 9h267q19 0 19 -9q-3 -6 -12 -9q-7 -3 -32 -3q-23 0 -34 -8q-21 -16 -21 -73l-1 -865q0 -146 37 -225q55 -116 197 -127v-44
q-213 16 -287 160q-83 -160 -286 -160q-178 0 -260 110zM107 464q-1 63 -1 186l1 605q0 45 -11 63q-15 25 -60 27q-9 0 -9 6q0 12 18 12h249q18 0 18 -12q0 -6 -9 -6q-55 -2 -70 -17q-19 -21 -19 -98l-2 -557q0 -140 1 -209h-106z" />
    <glyph glyph-name="uniFD3C" unicode="&#xfe8e;&#x64b;" horiz-adv-x="523" arabic-form="final" 
d="M523 0q-222 18 -294 176q-46 100 -46 342v712q0 86 -18 102q-4 3 -35 10q-27 6 -27 12q0 9 18 9h249q19 0 19 -9t-10 -9q-51 0 -70 -15q-17 -14 -17 -50l-2 -884q0 -147 37 -225q54 -117 196 -127v-44zM243 1514q-62 -14 -88 -22q-102 -30 -142 -78q-7 -7 -13 -7
q-4 0 -4 5q86 94 183 123q31 10 85 24q66 16 86 22q100 29 144 77q8 9 12 9t4 -5q-87 -94 -182 -125q-29 -9 -85 -23zM243 1442q-62 -14 -88 -22q-102 -30 -142 -78q-7 -7 -13 -7q-4 0 -4 5q86 94 183 123q31 10 85 24q66 16 86 22q100 29 144 77q8 9 12 9t4 -5
q-87 -94 -182 -125q-29 -9 -85 -23z" />
    <glyph glyph-name="uniFD3D" unicode="&#x627;&#x64b;" horiz-adv-x="399" arabic-form="isolated" 
d="M193 1279q-1 37 -18 51q-15 13 -52 14q-9 0 -9 6q0 12 18 12h249q18 0 18 -12q0 -6 -9 -6q-45 -1 -61 -10q-24 -13 -26 -55q-4 -72 -2 -1145q0 -77 19 -98q15 -16 70 -17q9 -1 9 -7q0 -12 -18 -12h-249q-18 0 -18 12q0 6 9 7q43 1 58 22q11 17 13 65zM243 1514
q-62 -14 -88 -22q-102 -30 -142 -78q-7 -7 -13 -7q-4 0 -4 5q86 94 183 123q31 10 85 24q66 16 86 22q100 29 144 77q8 9 12 9t4 -5q-87 -94 -182 -125q-29 -9 -85 -23zM243 1442q-62 -14 -88 -22q-102 -30 -142 -78q-7 -7 -13 -7q-4 0 -4 5q86 94 183 123q31 10 85 24
q66 16 86 22q100 29 144 77q8 9 12 9t4 -5q-87 -94 -182 -125q-29 -9 -85 -23z" />
    <glyph glyph-name="afii57409" unicode="&#x621;" horiz-adv-x="1374" arabic-form="isolated" 
d="M108 605q109 103 264 103h395q230 0 311 14q188 32 263 150q-10 -192 -207 -245q-123 -33 -428 -18q-312 15 -421 -10q-191 -43 -191 -219q0 -120 60 -212q65 -98 174 -123h1046v-45h-991q-110 0 -344 -160q65 127 215 174q-115 28 -186 127q-68 95 -68 215
q0 146 108 249z" />
    <glyph glyph-name="afii57410" unicode="&#x622;" horiz-adv-x="399" arabic-form="isolated" 
d="M193 1219q-1 37 -18 51q-15 13 -52 14q-9 0 -9 6q0 12 18 12h249q18 0 18 -12q0 -6 -9 -6q-45 -1 -61 -10q-24 -13 -26 -55q-3 -59 -2 -1085q0 -77 19 -98q15 -16 70 -17q9 -1 9 -7q0 -12 -18 -12h-249q-18 0 -18 12q0 6 9 7q43 1 58 22q11 17 13 65zM241 1362
q-71 7 -106 7q-77 0 -126 -26q-5 -4 -12 -4q-5 0 -5 4q0 2 1 3q108 56 204 56q35 0 110 -7q75 -8 111 -8q78 0 127 26q8 4 11 4q5 0 5 -4v-3q-107 -56 -213 -56q-34 0 -107 8z" />
    <glyph glyph-name="uniFE82" unicode="&#x622;" horiz-adv-x="523" arabic-form="final" 
d="M523 0q-222 18 -294 176q-46 100 -46 342v651q0 86 -18 102q-4 3 -35 10q-27 6 -27 12q0 9 18 9h249q19 0 19 -9t-10 -9q-51 0 -70 -15q-17 -14 -17 -50l-2 -823q0 -147 37 -225q54 -117 196 -127v-44zM241 1362q-71 7 -106 7q-77 0 -126 -26q-5 -4 -12 -4q-5 0 -5 4
q0 2 1 3q108 56 204 56q35 0 110 -7q75 -8 111 -8q78 0 127 26q8 4 11 4q5 0 5 -4v-3q-107 -56 -213 -56q-34 0 -107 8z" />
    <glyph glyph-name="afii57411" unicode="&#x623;" horiz-adv-x="399" arabic-form="isolated" 
d="M193 989q-1 37 -18 51q-15 13 -52 14q-9 0 -9 6q0 12 18 12h249q18 0 18 -12q0 -6 -9 -6q-45 -1 -61 -10q-24 -13 -26 -55q-4 -62 -2 -855q0 -77 19 -98q15 -16 70 -17q9 -1 9 -7q0 -12 -18 -12h-249q-18 0 -18 12q0 6 9 7q43 1 58 22q11 17 13 65zM146 1130
q-48 0 -131 -62q24 50 82 68q-44 10 -71 48q-25 36 -25 83q0 56 42 96q41 39 98 39h167q85 0 112 5q68 12 95 58l-12 -22q-10 -17 -18 -29q-27 -37 -66 -47q-30 -8 -142 -8q-156 1 -178 0q-30 0 -48 -30q-15 -25 -15 -53q0 -46 23 -81q25 -38 67 -47h401v-18h-381z" />
    <glyph glyph-name="uniFE84" unicode="&#x623;" horiz-adv-x="523" arabic-form="final" 
d="M523 0q-222 18 -294 176q-46 100 -46 342v421q0 86 -18 102q-4 3 -35 10q-27 6 -27 12q0 9 18 9h249q19 0 19 -9t-10 -9q-51 0 -70 -15q-17 -14 -17 -50q0 -128 -1 -318l-1 -275q0 -147 37 -225q54 -117 196 -127v-44zM146 1130q-48 0 -131 -62q24 50 82 68
q-44 10 -71 48q-25 36 -25 83q0 56 42 96q41 39 98 39h167q85 0 112 5q68 12 95 58l-12 -22q-10 -17 -18 -29q-27 -37 -66 -47q-30 -8 -142 -8q-156 1 -178 0q-30 0 -48 -30q-15 -25 -15 -53q0 -46 23 -81q25 -38 67 -47h401v-18h-381z" />
    <glyph glyph-name="afii57412" unicode="&#x624;" horiz-adv-x="1025" arabic-form="isolated" 
d="M558 0q-234 0 -358 155q-99 123 -99 287q0 187 132 313q133 127 331 127q96 0 182 -28q189 -72 246 -228q33 -93 33 -328q0 -206 -19 -284q-21 -84 -109 -171t-131 -67q152 84 152 383q-140 -159 -360 -159zM326 161q101 -114 264 -114q14 0 60 4q93 17 157 82
q99 100 99 295q0 193 -107 307q-97 104 -241 104q-153 0 -242 -91q-94 -97 -94 -275q0 -196 104 -312zM420 1012q-48 0 -131 -62q24 50 82 68q-44 10 -71 48q-25 36 -25 83q0 56 42 96q41 39 98 39h167q85 0 112 5q68 12 95 58l-12 -22q-10 -17 -18 -29q-27 -37 -66 -47
q-30 -8 -142 -8q-156 1 -178 0q-30 0 -48 -30q-15 -25 -15 -53q0 -46 23 -81q25 -38 67 -47h401v-18h-381z" />
    <glyph glyph-name="uniFE86" unicode="&#x624;" horiz-adv-x="1260" arabic-form="final" 
d="M213 731q131 151 353 151q210 0 337 -120q123 -117 123 -304q0 -181 26 -257q49 -148 208 -156v-45q-150 13 -238 114q6 -129 -92 -241q-89 -103 -162 -97q152 84 152 383q-141 -159 -361 -159q-230 0 -354 152q-102 123 -102 290q0 162 110 289zM420 1012
q-48 0 -131 -62q24 50 82 68q-44 10 -71 48q-25 36 -25 83q0 56 42 96q41 39 98 39h167q85 0 112 5q68 12 95 58l-12 -22q-10 -17 -18 -29q-27 -37 -66 -47q-30 -8 -142 -8q-156 1 -178 0q-30 0 -48 -30q-15 -25 -15 -53q0 -46 23 -81q25 -38 67 -47h401v-18h-381zM333 155
q102 -108 259 -108q90 0 157 38q159 89 159 343q0 191 -105 305q-98 106 -244 106q-152 0 -241 -91q-94 -97 -94 -275q0 -201 109 -318z" />
    <glyph glyph-name="afii57413" unicode="&#x625;" horiz-adv-x="399" arabic-form="isolated" 
d="M193 1279q-1 37 -18 51q-15 13 -52 14q-9 0 -9 6q0 12 18 12h249q18 0 18 -12q0 -6 -9 -6q-45 -1 -61 -10q-24 -13 -26 -55q-4 -72 -2 -1145q0 -77 19 -98q15 -16 70 -17q9 -1 9 -7q0 -12 -18 -12h-249q-18 0 -18 12q0 6 9 7q43 1 58 22q11 17 13 65zM145 -512
q-48 0 -131 -62q24 50 82 68q-44 10 -71 48q-25 36 -25 83q0 56 42 96q41 39 98 39h167q85 0 112 5q68 12 95 58l-12 -22q-10 -17 -18 -29q-27 -37 -66 -47q-30 -8 -142 -8q-156 1 -178 0q-30 0 -48 -30q-15 -25 -15 -53q0 -46 23 -81q25 -38 67 -47h401v-18h-381z" />
    <glyph glyph-name="uniFE88" unicode="&#x625;" horiz-adv-x="523" arabic-form="final" 
d="M523 0q-222 18 -294 176q-46 100 -46 342v712q0 86 -18 102q-4 3 -35 10q-27 6 -27 12q0 9 18 9h249q19 0 19 -9t-10 -9q-51 0 -70 -15q-17 -14 -17 -50l-2 -884q0 -147 37 -225q54 -117 196 -127v-44zM202 -512q-48 0 -131 -62q24 50 82 68q-44 10 -71 48q-25 36 -25 83
q0 56 42 96q41 39 98 39h167q85 0 112 5q68 12 95 58l-12 -22q-10 -17 -18 -29q-27 -37 -66 -47q-30 -8 -142 -8q-156 1 -178 0q-30 0 -48 -30q-15 -25 -15 -53q0 -46 23 -81q25 -38 67 -47h401v-18h-381z" />
    <glyph glyph-name="afii57414" unicode="&#x626;" horiz-adv-x="1642" arabic-form="isolated" 
d="M91 181q-90 119 -90 275q0 81 27 153h123q-34 -89 -34 -185q0 -159 88 -265q96 -115 260 -115l854 -2q122 0 188 41q84 52 84 115q0 59 -75 110q-76 51 -167 51q-310 0 -462 1q-177 2 -263 172q-22 41 -22 90q0 117 116 194q89 59 323 70q294 12 378 163q3 -8 -44 -79
q-56 -86 -120 -133q-86 -64 -266 -64l-150 1q-70 -2 -131 -49q-62 -49 -62 -104q0 -75 94 -127q71 -39 153 -48l269 2q153 0 223 -13q123 -22 192 -94q65 -68 65 -145q0 -62 -41 -111q-43 -50 -114 -69q-57 -16 -170 -16h-822q-114 0 -186 25q-134 46 -218 156zM202 814
q-48 0 -131 -62q24 50 82 68q-44 10 -71 48q-25 36 -25 83q0 56 42 96q41 39 98 39h167q85 0 112 5q68 12 95 58l-12 -22q-10 -17 -18 -29q-27 -37 -66 -47q-30 -8 -142 -8q-156 1 -178 0q-30 0 -48 -30q-15 -25 -15 -53q0 -46 23 -81q25 -38 67 -47h401v-18h-381z" />
    <glyph glyph-name="uniFE8A" unicode="&#x626;" horiz-adv-x="1754" arabic-form="final" 
d="M240 814q-48 0 -131 -62q24 50 82 68q-45 10 -71 48q-25 36 -25 83q0 56 42 96q41 39 98 39h167q85 0 112 5q68 12 95 58l-12 -22q-10 -17 -18 -29q-27 -37 -66 -47q-31 -8 -142 -8q-156 1 -178 0q-30 0 -48 -30q-15 -25 -15 -53q0 -46 23 -81q25 -38 67 -47h401v-18
h-381zM1792 45q-84 5 -149 63q-66 56 -77 132q-23 158 -143 263q-122 106 -283 106q-235 0 -365 -235q44 71 157 129q112 57 208 57q142 0 250 -93q107 -93 128 -231q12 -84 -76 -153q-51 -38 -189 -38h-749q-215 0 -306 187q-85 175 -8 378h-123q-66 -177 18 -350
q83 -174 263 -234q76 -26 196 -26h709q237 0 303 114q83 -101 236 -114v45z" />
    <glyph glyph-name="uniFE8B" unicode="&#x626;" horiz-adv-x="541" arabic-form="initial" 
d="M0 45q59 1 118 38q115 72 115 314v380q0 85 -63 85q-26 0 -32 2q-5 1 -5 8q0 5 6 8l262 2q19 0 19 -10q0 -6 -12 -8q-27 -4 -28 -5q-40 -10 -40 -61v-241q0 -269 -39 -366q-69 -172 -301 -191v45zM160 1012q-48 0 -131 -62q24 50 82 68q-44 10 -71 48q-25 36 -25 83
q0 56 42 96q41 39 98 39h167q85 0 112 5q68 12 95 58l-12 -22q-10 -17 -18 -29q-27 -37 -66 -47q-30 -8 -142 -8q-156 1 -178 0q-30 0 -48 -30q-15 -25 -15 -53q0 -46 23 -81q25 -38 67 -47h401v-18h-381z" />
    <glyph glyph-name="uniFE8C" unicode="&#x626;" horiz-adv-x="572" arabic-form="medial" 
d="M340 788q0 74 62 74q37 0 37 10t-19 10h-268q-19 0 -19 -10t37 -10q38 0 52 -25q10 -18 10 -61v-376q-5 -344 -232 -355v-45q210 16 285 159q78 -143 287 -159v45q-63 2 -119 38q-72 45 -98 136q-17 62 -17 178zM160 1012q-48 0 -131 -62q24 50 82 68q-44 10 -71 48
q-25 36 -25 83q0 56 42 96q41 39 98 39h167q85 0 112 5q68 12 95 58l-12 -22q-10 -17 -18 -29q-27 -37 -66 -47q-30 -8 -142 -8q-156 1 -178 0q-30 0 -48 -30q-15 -25 -15 -53q0 -46 23 -81q25 -38 67 -47h401v-18h-381z" />
    <glyph glyph-name="afii57415" unicode="&#x627;" horiz-adv-x="400" arabic-form="isolated" 
d="M193 1279q-1 37 -18 51q-15 13 -52 14q-9 0 -9 6q0 12 18 12h249q18 0 18 -12q0 -6 -9 -6q-45 -1 -61 -10q-24 -13 -26 -55q-4 -72 -2 -1145q0 -77 19 -98q15 -16 70 -17q9 -1 9 -7q0 -12 -18 -12h-249q-18 0 -18 12q0 6 9 7q43 1 58 22q11 17 13 65z" />
    <glyph glyph-name="uniFE8E" unicode="&#x627;" horiz-adv-x="523" arabic-form="final" 
d="M523 0q-222 18 -294 176q-46 100 -46 342v712q0 86 -18 102q-4 3 -35 10q-27 6 -27 12q0 9 18 9h249q19 0 19 -9t-10 -9q-51 0 -70 -15q-17 -14 -17 -50l-2 -884q0 -147 37 -225q54 -117 196 -127v-44z" />
    <glyph glyph-name="afii57416" unicode="&#x628;" horiz-adv-x="1689" arabic-form="isolated" 
d="M1267 45q59 1 118 38q115 72 115 314v379q0 43 -4 55q-9 29 -45 29q-49 0 -49 12q0 6 4 8l262 2q21 0 21 -9q-1 -9 -23 -9h-13q-24 -1 -33 -12q-11 -15 -11 -54l-2 -241q0 -269 -39 -366q-69 -172 -301 -191h-824q-181 10 -306 128q-137 128 -137 329q0 82 28 153h123
q-33 -84 -33 -187q0 -157 76 -259q87 -119 249 -119h824zM758 -106q-26 -25 -26 -62t26 -63q25 -25 62 -25t62 25q26 26 26 63t-26 62q-25 26 -62 26t-62 -26z" />
    <glyph glyph-name="uniFE90" unicode="&#x628;" horiz-adv-x="1840" arabic-form="final" 
d="M882 -106q26 -25 26 -62t-26 -63q-25 -25 -62 -25t-62 25q-26 26 -26 63t26 62q25 26 62 26t62 -26zM1267 45q64 3 119 38q114 71 114 314v379q0 45 -11 63q-13 23 -50 23t-37 10t18 10h267q18 0 18 -10q0 -13 -26 -13l-23 1q-49 0 -49 -92v-371q0 -114 17 -176
q26 -93 98 -138q57 -37 118 -38v-45q-211 16 -286 159q-75 -143 -287 -159h-823q-179 0 -308 127q-136 132 -136 333q0 77 28 150h123q-32 -85 -32 -187q0 -157 76 -260q87 -118 249 -118h823z" />
    <glyph glyph-name="uniFE91" unicode="&#x628;" horiz-adv-x="420" arabic-form="initial" 
d="M0 45q59 1 118 38q115 72 115 314v380q0 85 -63 85q-26 0 -32 2q-5 1 -5 8q0 5 6 8l262 2q19 0 19 -10q0 -6 -12 -8q-27 -4 -28 -5q-40 -10 -40 -61v-241q0 -269 -39 -366q-69 -172 -301 -191v45zM222 -106q-26 -25 -26 -62t26 -63q25 -25 62 -25t62 25q26 26 26 63
t-26 62q-25 26 -62 26t-62 -26z" />
    <glyph glyph-name="uniFE92" unicode="&#x628;" horiz-adv-x="572" arabic-form="medial" 
d="M338 397q0 -116 17 -178q26 -91 98 -136q56 -36 119 -38v-45q-209 16 -287 159q-75 -143 -285 -159v45q227 11 232 355v376q0 43 -10 61q-14 25 -52 25q-37 0 -37 10t19 10h268q19 0 19 -10t-37 -10q-62 0 -62 -74zM347 -106q26 -25 26 -62t-26 -63q-25 -25 -62 -25
t-62 25q-26 26 -26 63t26 62q25 26 62 26t62 -26z" />
    <glyph glyph-name="afii57417" unicode="&#x629;" horiz-adv-x="921" arabic-form="isolated" 
d="M120 744q131 139 341 139q198 0 325 -110q135 -116 135 -312q0 -221 -145 -346q-127 -108 -322 -115q-242 9 -362 163q-92 118 -92 279q0 175 120 302zM229 158q100 -111 258 -111q139 0 223 93q93 101 93 288q0 184 -98 299t-251 115q-158 0 -245 -98q-85 -95 -90 -271
q6 -199 110 -315zM420 1162q26 -25 26 -62t-26 -63q-25 -25 -62 -25q-36 0 -62 25q-26 26 -26 63q0 36 26 62t62 26q37 0 62 -26zM635 1162q26 -26 26 -62q0 -37 -26 -63q-26 -25 -62 -25q-37 0 -62 25q-26 26 -26 63t26 62q25 26 62 26q36 0 62 -26z" />
    <glyph glyph-name="uniFE94" unicode="&#x629;" horiz-adv-x="1157" arabic-form="final" 
d="M1157 0q-235 21 -293 225q-143 -216 -407 -225q-224 8 -348 148q-109 121 -109 294q0 48 12 96q31 125 118 215q127 130 333 130q197 0 325 -110q135 -116 135 -312q0 -185 24 -257q48 -143 210 -159v-45zM226 163q103 -116 263 -116q136 0 221 91q95 102 95 290
q0 193 -107 309q-98 105 -241 105q-153 0 -243 -94q-93 -98 -93 -275q0 -191 105 -310zM420 1162q26 -25 26 -62t-26 -63q-25 -25 -62 -25q-36 0 -62 25q-26 26 -26 63q0 36 26 62t62 26q37 0 62 -26zM635 1162q26 -26 26 -62q0 -37 -26 -63q-26 -25 -62 -25q-37 0 -62 25
q-26 26 -26 63t26 62q25 26 62 26q36 0 62 -26z" />
    <glyph glyph-name="afii57418" unicode="&#x62a;" horiz-adv-x="1689" arabic-form="isolated" 
d="M1267 45q59 1 118 38q115 72 115 314v379q0 43 -4 55q-9 29 -45 29q-49 0 -49 12q0 6 4 8l262 2q21 0 21 -9q-1 -9 -23 -9h-13q-24 -1 -33 -12q-11 -15 -11 -54l-2 -241q0 -269 -39 -366q-69 -172 -301 -191h-824q-181 10 -306 128q-137 128 -137 329q0 82 28 153h123
q-33 -84 -33 -187q0 -157 76 -259q87 -119 249 -119h824zM755 1162q26 -25 26 -62t-26 -63q-25 -25 -62 -25q-36 0 -62 25q-26 26 -26 63q0 36 26 62t62 26q37 0 62 -26zM970 1162q26 -26 26 -62q0 -37 -26 -63q-26 -25 -62 -25q-37 0 -62 25q-26 26 -26 63t26 62
q25 26 62 26q36 0 62 -26z" />
    <glyph glyph-name="uniFE96" unicode="&#x62a;" horiz-adv-x="1840" arabic-form="final" 
d="M755 1162q26 -25 26 -62t-26 -63q-25 -25 -62 -25q-36 0 -62 25q-26 26 -26 63q0 36 26 62t62 26q37 0 62 -26zM970 1162q26 -26 26 -62q0 -37 -26 -63q-26 -25 -62 -25q-37 0 -62 25q-26 26 -26 63t26 62q25 26 62 26q36 0 62 -26zM444 45q-162 0 -249 118
q-76 103 -76 260q0 102 32 187h-123q-28 -73 -28 -150q0 -201 136 -333q129 -127 308 -127h823q212 16 287 159q75 -143 286 -159v45q-61 1 -118 38q-115 72 -115 314v371q0 92 49 92l23 -1q26 0 26 13q0 10 -18 10h-267q-18 0 -18 -10t37 -10t50 -23q11 -18 11 -63v-379
q0 -114 -17 -176q-26 -94 -97 -138q-55 -35 -119 -38h-823z" />
    <glyph glyph-name="uniFE97" unicode="&#x62a;" horiz-adv-x="483" arabic-form="initial" 
d="M0 45q59 1 118 38q115 72 115 314v380q0 85 -63 85q-26 0 -32 2q-5 1 -5 8q0 5 6 8l262 2q19 0 19 -10q0 -6 -12 -8q-27 -4 -28 -5q-40 -10 -40 -61v-241q0 -269 -39 -366q-69 -172 -301 -191v45zM242 1162q26 -25 26 -62t-26 -63q-25 -25 -62 -25q-36 0 -62 25
q-26 26 -26 63q0 36 26 62t62 26q37 0 62 -26zM457 1162q26 -26 26 -62q0 -37 -26 -63q-26 -25 -62 -25q-37 0 -62 25q-26 26 -26 63t26 62q25 26 62 26q36 0 62 -26z" />
    <glyph glyph-name="uniFE98" unicode="&#x62a;" horiz-adv-x="572" arabic-form="medial" 
d="M340 788q0 74 62 74q37 0 37 10t-19 10h-268q-19 0 -19 -10t37 -10q38 0 52 -25q10 -18 10 -61v-376q-5 -344 -232 -355v-45q210 16 285 159q78 -143 287 -159v45q-63 2 -119 38q-72 45 -98 136q-17 62 -17 178zM242 1162q26 -25 26 -62t-26 -63q-25 -25 -62 -25
q-36 0 -62 25q-26 26 -26 63q0 36 26 62t62 26q37 0 62 -26zM457 1162q26 -26 26 -62q0 -37 -26 -63q-26 -25 -62 -25q-37 0 -62 25q-26 26 -26 63t26 62q25 26 62 26q36 0 62 -26z" />
    <glyph glyph-name="afii57419" unicode="&#x62b;" horiz-adv-x="1689" arabic-form="isolated" 
d="M1267 45q59 1 118 38q115 72 115 314v379q0 43 -4 55q-9 29 -45 29q-49 0 -49 12q0 6 4 8l262 2q21 0 21 -9q-1 -9 -23 -9h-13q-24 -1 -33 -12q-11 -15 -11 -54l-2 -241q0 -269 -39 -366q-69 -172 -301 -191h-824q-181 10 -306 128q-137 128 -137 329q0 82 28 153h123
q-33 -84 -33 -187q0 -157 76 -259q87 -119 249 -119h824zM755 1162q26 -25 26 -62t-26 -63q-25 -25 -62 -25q-36 0 -62 25q-26 26 -26 63q0 36 26 62t62 26q37 0 62 -26zM970 1162q26 -26 26 -62q0 -37 -26 -63q-26 -25 -62 -25q-37 0 -62 25q-26 26 -26 63t26 62
q25 26 62 26q36 0 62 -26zM862 1341q26 -25 26 -62t-26 -63q-25 -25 -62 -25q-36 0 -62 25q-26 26 -26 63q0 36 26 62t62 26q37 0 62 -26z" />
    <glyph glyph-name="uniFE9A" unicode="&#x62b;" horiz-adv-x="1840" arabic-form="final" 
d="M444 45q-162 0 -249 118q-76 103 -76 260q0 102 32 187h-123q-28 -73 -28 -150q0 -201 136 -333q129 -127 308 -127h823q212 16 287 159q75 -143 286 -159v45q-61 1 -118 38q-115 72 -115 314v371q0 92 49 92l23 -1q26 0 26 13q0 10 -18 10h-267q-18 0 -18 -10t37 -10
t50 -23q11 -18 11 -63v-379q0 -114 -17 -176q-26 -94 -97 -138q-55 -35 -119 -38h-823zM755 1162q26 -25 26 -62t-26 -63q-25 -25 -62 -25q-36 0 -62 25q-26 26 -26 63q0 36 26 62t62 26q37 0 62 -26zM970 1162q26 -26 26 -62q0 -37 -26 -63q-26 -25 -62 -25q-37 0 -62 25
q-26 26 -26 63t26 62q25 26 62 26q36 0 62 -26zM862 1341q26 -25 26 -62t-26 -63q-25 -25 -62 -25q-36 0 -62 25q-26 26 -26 63q0 36 26 62t62 26q37 0 62 -26z" />
    <glyph glyph-name="uniFE9B" unicode="&#x62b;" horiz-adv-x="483" arabic-form="initial" 
d="M0 45q59 1 118 38q115 72 115 314v350q0 57 -4 73q-13 42 -59 42q-26 0 -32 2q-5 1 -5 8q0 5 6 8l262 2q19 0 19 -10q0 -6 -12 -8q-27 -4 -28 -5q-40 -10 -40 -61v-241q0 -269 -39 -366q-69 -172 -301 -191v45zM242 1162q26 -25 26 -62t-26 -63q-25 -25 -62 -25
q-36 0 -62 25q-26 26 -26 63q0 36 26 62t62 26q37 0 62 -26zM457 1162q26 -26 26 -62q0 -37 -26 -63q-26 -25 -62 -25q-37 0 -62 25q-26 26 -26 63t26 62q25 26 62 26q36 0 62 -26zM349 1341q26 -25 26 -62t-26 -63q-25 -25 -62 -25q-36 0 -62 25q-26 26 -26 63q0 36 26 62
t62 26q37 0 62 -26z" />
    <glyph glyph-name="uniFE9C" unicode="&#x62b;" horiz-adv-x="572" arabic-form="medial" 
d="M340 788q0 74 62 74q37 0 37 10t-19 10h-268q-19 0 -19 -10t37 -10q38 0 52 -25q10 -18 10 -61v-376q-5 -344 -232 -355v-45q210 16 285 159q78 -143 287 -159v45q-63 2 -119 38q-72 45 -98 136q-17 62 -17 178zM242 1162q26 -25 26 -62t-26 -63q-25 -25 -62 -25
q-36 0 -62 25q-26 26 -26 63q0 36 26 62t62 26q37 0 62 -26zM457 1162q26 -26 26 -62q0 -37 -26 -63q-26 -25 -62 -25q-37 0 -62 25q-26 26 -26 63t26 62q25 26 62 26q36 0 62 -26zM349 1341q26 -25 26 -62t-26 -63q-25 -25 -62 -25q-36 0 -62 25q-26 26 -26 63q0 36 26 62
t62 26q37 0 62 -26z" />
    <glyph glyph-name="afii57420" unicode="&#x62c;" horiz-adv-x="1481" arabic-form="isolated" 
d="M617 -106q-26 -25 -26 -62t26 -63q25 -25 62 -25t62 25q26 26 26 63t-26 62q-25 26 -62 26t-62 -26zM367 0q-114 0 -189 -69t-88 -181h-90q24 121 117 206q96 89 215 89h701q-61 51 -360 405q-215 252 -434 345q-112 47 -248 56q-23 0 -23 10q0 12 15 12q215 0 407 -82
q205 -88 420 -359q296 -374 416 -451q102 -67 234 -99q21 -6 21 -12q0 -12 -12 -12q-3 0 -5 1q-193 35 -336 121q-40 20 -82 20h-679z" />
    <glyph glyph-name="uniFE9E" unicode="&#x62c;" horiz-adv-x="1239" arabic-form="final" 
d="M617 -106q-26 -25 -26 -62t26 -63q25 -25 62 -25t62 25q26 26 26 63t-26 62q-25 26 -62 26t-62 -26zM367 0q-114 0 -189 -69t-88 -181h-90q24 121 117 206q96 89 215 89h701q-61 51 -360 405q-215 252 -434 345q-112 47 -248 56q-23 0 -23 10q0 12 15 12q215 0 407 -82
q207 -89 420 -359q177 -224 278 -327q54 -56 151 -60v-45h-872z" />
    <glyph glyph-name="uniFE9F" unicode="&#x62c;" horiz-adv-x="1481" arabic-form="initial" 
d="M617 -106q-26 -25 -26 -62t26 -63q25 -25 62 -25t62 25q26 26 26 63t-26 62q-25 26 -62 26t-62 -26zM1033 45q-61 51 -360 405q-215 252 -434 345q-112 47 -248 56q-23 0 -23 10q0 12 15 12q215 0 407 -82q205 -88 420 -359q296 -374 416 -451q102 -67 234 -99
q21 -6 21 -12q0 -12 -12 -12q-3 0 -5 1q-193 35 -336 121q-40 20 -82 20h-1046v45h1033z" />
    <glyph glyph-name="uniFEA0" unicode="&#x62c;" horiz-adv-x="1346" arabic-form="medial" 
d="M579 -106q-26 -25 -26 -62t26 -63q25 -25 62 -25t62 25q26 26 26 63t-26 62q-25 26 -62 26t-62 -26zM0 0v45h1140q-61 51 -360 405q-215 252 -434 345q-112 47 -248 56q-23 0 -23 10q0 12 15 12q215 0 407 -82q207 -89 420 -359q177 -224 278 -327q54 -56 151 -60v-45
h-1346z" />
    <glyph glyph-name="afii57421" unicode="&#x62d;" horiz-adv-x="1481" arabic-form="isolated" 
d="M367 0q-114 0 -189 -69t-88 -181h-90q24 121 117 206q96 89 215 89h701q-61 51 -360 405q-215 252 -434 345q-112 47 -248 56q-23 0 -23 10q0 12 15 12q215 0 407 -82q205 -88 420 -359q296 -374 416 -451q102 -67 234 -99q21 -6 21 -12q0 -12 -12 -12q-3 0 -5 1
q-193 35 -336 121q-40 20 -82 20h-679z" />
    <glyph glyph-name="uniFEA2" unicode="&#x62d;" horiz-adv-x="1239" arabic-form="final" 
d="M367 0q-114 0 -189 -69t-88 -181h-90q24 121 117 206q96 89 215 89h701q-61 51 -360 405q-215 252 -434 345q-112 47 -248 56q-23 0 -23 10q0 12 15 12q215 0 407 -82q207 -89 420 -359q177 -224 278 -327q54 -56 151 -60v-45h-872z" />
    <glyph glyph-name="uniFEA3" unicode="&#x62d;" horiz-adv-x="1481" arabic-form="initial" 
d="M1033 45q-61 51 -360 405q-215 252 -434 345q-112 47 -248 56q-23 0 -23 10q0 12 15 12q215 0 407 -82q205 -88 420 -359q296 -374 416 -451q102 -67 234 -99q21 -6 21 -12q0 -12 -12 -12q-3 0 -5 1q-193 35 -336 121q-40 20 -82 20h-1046v45h1033z" />
    <glyph glyph-name="uniFEA4" unicode="&#x62d;" horiz-adv-x="1346" arabic-form="medial" 
d="M0 0v45h1140q-61 51 -360 405q-215 252 -434 345q-112 47 -248 56q-23 0 -23 10q0 12 15 12q215 0 407 -82q207 -89 420 -359q177 -224 278 -327q54 -56 151 -60v-45h-1346z" />
    <glyph glyph-name="afii57422" unicode="&#x62e;" horiz-adv-x="1481" arabic-form="isolated" 
d="M367 0q-114 0 -189 -69t-88 -181h-90q24 121 117 206q96 89 215 89h701q-61 51 -360 405q-215 252 -434 345q-112 47 -248 56q-23 0 -23 10q0 12 15 12q215 0 407 -82q205 -88 420 -359q296 -374 416 -451q102 -67 234 -99q21 -6 21 -12q0 -12 -12 -12q-3 0 -5 1
q-193 35 -336 121q-40 20 -82 20h-679zM741 1162q26 -26 26 -62q0 -37 -26 -62q-25 -26 -62 -26t-63 26q-25 25 -25 62q0 36 25 62q26 26 63 26q36 0 62 -26z" />
    <glyph glyph-name="uniFEA6" unicode="&#x62e;" horiz-adv-x="1239" arabic-form="final" 
d="M741 1162q26 -26 26 -62q0 -37 -26 -62q-25 -26 -62 -26t-63 26q-25 25 -25 62q0 36 25 62q26 26 63 26q36 0 62 -26zM367 0q-114 0 -189 -69t-88 -181h-90q24 121 117 206q96 89 215 89h701q-61 51 -360 405q-215 252 -434 345q-112 47 -248 56q-23 0 -23 10q0 12 15 12
q215 0 407 -82q207 -89 420 -359q177 -224 278 -327q54 -56 151 -60v-45h-872z" />
    <glyph glyph-name="uniFEA7" unicode="&#x62e;" horiz-adv-x="1481" arabic-form="initial" 
d="M741 1162q26 -26 26 -62q0 -37 -26 -62q-25 -26 -62 -26t-63 26q-25 25 -25 62q0 36 25 62q26 26 63 26q36 0 62 -26zM1033 45q-61 51 -360 405q-215 252 -434 345q-112 47 -248 56q-23 0 -23 10q0 12 15 12q215 0 407 -82q205 -88 420 -359q296 -374 416 -451
q102 -67 234 -99q21 -6 21 -12q0 -12 -12 -12q-3 0 -5 1q-193 35 -336 121q-40 20 -82 20h-1046v45h1033z" />
    <glyph glyph-name="uniFEA8" unicode="&#x62e;" horiz-adv-x="1346" arabic-form="medial" 
d="M741 1162q26 -26 26 -62q0 -37 -26 -62q-25 -26 -62 -26t-63 26q-25 25 -25 62q0 36 25 62q26 26 63 26q36 0 62 -26zM0 0v45h1140q-61 51 -360 405q-215 252 -434 345q-112 47 -248 56q-23 0 -23 10q0 12 15 12q215 0 407 -82q207 -89 420 -359q177 -224 278 -327
q54 -56 151 -60v-45h-1346z" />
    <glyph glyph-name="afii57423" unicode="&#x62f;" horiz-adv-x="675" arabic-form="isolated" 
d="M103 72q61 -26 136 -26q159 0 245 119q74 103 74 257q0 185 -100 302q-101 117 -257 117q-50 0 -98 -13v43q51 11 113 11q209 0 337 -127q122 -120 122 -299q0 -207 -146 -336q-135 -120 -324 -120q-53 0 -102 10v62z" />
    <glyph glyph-name="uniFEAA" unicode="&#x62f;" horiz-adv-x="910" arabic-form="final" 
d="M103 72q64 -26 137 -26q158 0 244 120q74 103 74 259q0 184 -101 300q-100 116 -256 116q-50 0 -98 -13v43q51 11 113 11q211 0 339 -126q122 -120 122 -300q0 -20 -1 -30q0 -132 13 -190q24 -106 102 -154q53 -34 119 -37v-45q-105 8 -182 63q-84 59 -113 162
q-62 -107 -174 -166q-108 -58 -237 -58q-50 0 -101 9v62z" />
    <glyph glyph-name="afii57424" unicode="&#x630;" horiz-adv-x="675" arabic-form="isolated" 
d="M103 72q61 -26 136 -26q159 0 245 119q74 103 74 257q0 185 -100 302q-101 117 -257 117q-50 0 -98 -13v43q51 11 113 11q209 0 337 -127q122 -120 122 -299q0 -207 -146 -336q-135 -120 -324 -120q-53 0 -102 10v62zM282 1162q26 -26 26 -62q0 -37 -26 -62
q-25 -26 -62 -26t-63 26q-25 25 -25 62q0 36 25 62q26 26 63 26q36 0 62 -26z" />
    <glyph glyph-name="uniFEAC" unicode="&#x630;" horiz-adv-x="910" arabic-form="final" 
d="M103 72q64 -26 137 -26q158 0 244 120q74 103 74 259q0 184 -101 300q-100 116 -256 116q-50 0 -98 -13v43q51 11 113 11q211 0 339 -126q122 -120 122 -300q0 -20 -1 -30q0 -132 13 -190q24 -106 102 -154q53 -34 119 -37v-45q-105 8 -182 63q-84 59 -113 162
q-62 -107 -174 -166q-108 -58 -237 -58q-50 0 -101 9v62zM282 1162q26 -26 26 -62q0 -37 -26 -62q-25 -26 -62 -26t-63 26q-25 25 -25 62q0 36 25 62q26 26 63 26q36 0 62 -26z" />
    <glyph glyph-name="afii57425" unicode="&#x631;" horiz-adv-x="354" arabic-form="isolated" 
d="M275 308q0 -221 -19 -293q-49 -189 -254 -256q101 81 130 153q36 92 36 318q0 191 1 372l1 172q0 86 -51 86q-49 25 -49 13q0 6 4 8l262 2q18 0 18 -9q0 -10 -12 -10q-68 0 -68 -88z" />
    <glyph glyph-name="uniFEAE" unicode="&#x631;" horiz-adv-x="506" arabic-form="final" 
d="M274 342q11 -286 232 -297v-45q-156 13 -236 115q1 -9 1 -27q0 -116 -78 -205q-71 -79 -193 -124q113 109 130 146q38 84 38 325l-1 566q0 65 -56 65l-21 -2q-22 0 -22 15q0 4 6 7l262 2q18 0 18 -10q0 -8 -9 -9l-30 -4q-41 -9 -41 -61v-457z" />
    <glyph glyph-name="afii57426" unicode="&#x632;" horiz-adv-x="354" arabic-form="isolated" 
d="M275 308q0 -221 -19 -293q-49 -189 -254 -256q101 81 130 153q36 92 36 318q0 191 1 372l1 172q0 86 -51 86q-49 25 -49 13q0 6 4 8l262 2q18 0 18 -9q0 -10 -12 -10q-68 0 -68 -88zM282 1162q26 -26 26 -62q0 -37 -26 -62q-25 -26 -62 -26t-63 26q-25 25 -25 62
q0 36 25 62q26 26 63 26q36 0 62 -26z" />
    <glyph glyph-name="uniFEB0" unicode="&#x632;" horiz-adv-x="506" arabic-form="final" 
d="M274 342q11 -286 232 -297v-45q-156 13 -236 115q10 -127 -70 -223q-71 -85 -200 -133q113 109 130 146q38 84 38 325l-1 566q0 65 -56 65l-11 -1q-8 -1 -13 0q-15 0 -18 11q-3 7 5 10l262 2q18 0 18 -10q0 -8 -9 -9l-30 -4q-41 -9 -41 -61v-457zM282 1162q26 -26 26 -62
q0 -37 -26 -62q-25 -26 -62 -26t-63 26q-25 25 -25 62q0 36 25 62q26 26 63 26q36 0 62 -26z" />
    <glyph glyph-name="afii57427" unicode="&#x633;" horiz-adv-x="2826" arabic-form="isolated" 
d="M468 0q-143 0 -258 84q-118 87 -162 231q-48 149 4 295h123q-69 -196 3 -371q80 -194 290 -194h823q68 3 119 38q115 71 115 314v350q0 85 -21 104q-16 13 -69 13q-8 0 -8 8q0 10 18 10h266q19 0 19 -10q0 -4 -2 -6q-4 -4 -35 -4q-40 0 -54 -35q-8 -23 -8 -80
q0 -15 -7 -159q-5 -117 -1 -195q14 -242 123 -310q60 -38 115 -38q56 0 117 38q114 71 114 314v350q0 87 -20 104q-14 13 -70 13q-4 0 -6 2t-2 6q0 10 18 10h267q18 0 18 -10q0 -4 -2 -6t-6 -2q-55 0 -73 -23q-17 -23 -17 -94v-350q0 -113 17 -176q26 -94 97 -138
q58 -38 119 -38q60 0 119 38q115 72 115 314v350q0 87 -21 104q-16 13 -69 13q-5 0 -7 2t-2 6q0 10 19 10h248q18 0 18 -10q0 -4 -2 -6t-6 -2q-72 0 -72 -88v-29q0 -339 -4 -381q-28 -365 -336 -366q-202 0 -287 159q-87 -159 -286 -159q-198 0 -281 159q-83 -159 -287 -159
h-823z" />
    <glyph glyph-name="uniFEB2" unicode="&#x633;" horiz-adv-x="2979" arabic-form="final" 
d="M1267 45q64 3 119 38q115 72 115 314l-2 383q0 40 -9 57q-13 25 -51 25q-37 0 -37 10t19 10h266q18 0 18 -10t-36 -10q-41 0 -54 -27q-8 -16 -8 -55v-4q0 -290 -2 -344v-35q0 -242 115 -314q59 -38 117 -38q57 0 116 38q115 71 115 314l-1 339q0 74 -3 86q-11 40 -60 40
q-36 0 -36 10t18 10h268q19 0 19 -10q0 -12 -49 -12q-50 0 -50 -84l-2 -379q0 -352 236 -352q139 0 194 121q36 79 39 231l-1 323q-1 83 -4 93q-10 49 -58 49q-37 0 -37 10t18 10h269q18 0 18 -10t-37 -10q-48 0 -59 -54q-2 -12 -2 -87l-2 -324q0 -239 115 -314
q55 -36 118 -38v-45q-209 16 -284 159q-87 -159 -287 -159q-204 0 -287 159q-75 -140 -280 -159q-90 0 -168 42q-80 44 -119 117q-75 -143 -287 -159h-823q-180 0 -308 123q-136 131 -136 334q0 82 28 153h123q-33 -84 -33 -187q0 -157 76 -260q88 -118 250 -118h823z" />
    <glyph glyph-name="uniFEB3" unicode="&#x633;" horiz-adv-x="1561" arabic-form="initial" 
d="M854 159q-39 -73 -119 -117q-78 -42 -166 -42q-207 17 -282 159q-76 -144 -287 -159v45q60 0 119 38q115 72 115 314v383q0 52 -21 71q-6 4 -44 9q-34 5 -34 12q0 10 19 10h266q18 0 18 -10t-37 -10q-62 0 -62 -60l1 -405q0 -143 43 -232q57 -120 186 -120q232 0 232 352
v340q0 17 -1 42q-2 40 -7 52q-6 14 -18 21q-65 36 -72 20q0 10 18 10h266q19 0 19 -10t-37 -10q-60 0 -60 -64l-1 -131q-1 -113 -1 -270q0 -114 17 -176q26 -93 98 -138q62 -38 119 -38q233 0 233 352q-2 385 -3 398q0 14 -15 41q-15 28 -44 26q-38 -1 -38 12q0 6 6 6l262 2
q19 0 19 -10q0 -6 -12 -8l-28 -5q-40 -10 -40 -61v-309q0 -230 -50 -333q-75 -156 -290 -156q-202 0 -287 159z" />
    <glyph glyph-name="uniFEB4" unicode="&#x633;" horiz-adv-x="1714" arabic-form="medial" 
d="M0 45q141 7 196 125q36 77 39 227l-2 383q0 80 -49 80q-49 1 -49 12q0 10 18 10h267q18 0 18 -10t-37 -10q-38 0 -50 -24q-9 -16 -9 -58l-1 -170q-1 -124 -1 -213q0 -113 17 -176q26 -94 97 -138q116 -73 232 0q115 72 115 314v379q0 43 -4 54q-9 30 -46 30
q-49 25 -49 12q0 10 19 10h266q18 0 18 -10t-37 -10q-35 0 -48 -20q-5 -10 -11 -44l-1 -55q-1 -91 -1 -346q0 -114 17 -176q26 -93 98 -138q116 -73 237 0q115 72 115 314v309q0 127 -21 145q-6 5 -43 11q-34 4 -34 10q0 10 18 10h266q19 0 19 -10t-37 -10q-60 0 -60 -64
l-1 -132q-1 -113 -1 -269q0 -242 115 -314q54 -35 119 -38v-45q-212 16 -287 159q-84 -159 -283 -160q-200 -1 -290 160q-39 -73 -119 -117q-78 -42 -168 -42q-196 0 -281 159q-75 -143 -286 -159v45z" />
    <glyph glyph-name="afii57428" unicode="&#x634;" horiz-adv-x="2826" arabic-form="isolated" 
d="M468 0q-143 0 -258 84q-118 87 -162 231q-48 149 4 295h123q-69 -196 3 -371q80 -194 290 -194h823q68 3 119 38q115 71 115 314v350q0 85 -21 104q-16 13 -69 13q-8 0 -8 8q0 10 18 10h266q19 0 19 -10q0 -4 -2 -6q-4 -4 -35 -4q-40 0 -54 -35q-8 -23 -8 -80
q0 -15 -7 -159q-5 -117 -1 -195q14 -242 123 -310q60 -38 115 -38q56 0 117 38q114 71 114 314v350q0 87 -20 104q-14 13 -70 13q-4 0 -6 2t-2 6q0 10 18 10h267q18 0 18 -10q0 -4 -2 -6t-6 -2q-55 0 -73 -23q-17 -23 -17 -94v-350q0 -113 17 -176q26 -94 97 -138
q58 -38 119 -38q60 0 119 38q115 72 115 314v350q0 87 -21 104q-16 13 -69 13q-5 0 -7 2t-2 6q0 10 19 10h248q18 0 18 -10q0 -4 -2 -6t-6 -2q-72 0 -72 -88v-29q0 -339 -4 -381q-28 -365 -336 -366q-202 0 -287 159q-87 -159 -286 -159q-198 0 -281 159q-83 -159 -287 -159
h-823zM2104 1162q26 -25 26 -62t-26 -63q-25 -25 -62 -25q-36 0 -62 25q-26 26 -26 63q0 36 26 62t62 26q37 0 62 -26zM2318 1162q27 -26 27 -62q0 -37 -27 -63q-25 -25 -61 -25q-37 0 -63 25q-25 26 -25 63t25 62q26 26 63 26q35 0 61 -26zM2211 1341q26 -25 26 -62
t-26 -63q-25 -25 -62 -25q-36 0 -62 25q-26 26 -26 63q0 36 26 62t62 26q37 0 62 -26z" />
    <glyph glyph-name="uniFEB6" unicode="&#x634;" horiz-adv-x="2979" arabic-form="final" 
d="M444 45q-162 0 -250 118q-76 103 -76 260q0 103 33 187h-123q-28 -71 -28 -153q0 -203 136 -334q128 -123 308 -123h823q212 16 287 159q39 -73 119 -117q78 -42 168 -42q205 19 280 159q83 -159 287 -159q200 0 287 159q75 -143 284 -159v45q-63 2 -118 38
q-115 75 -115 314l2 324q0 75 2 87q11 54 59 54q37 0 37 10t-18 10h-269q-18 0 -18 -10t37 -10q48 0 58 -49q3 -10 4 -93l1 -323q-3 -152 -39 -231q-55 -121 -194 -121q-236 0 -236 352l2 379q0 35 4 48q10 36 46 36q49 0 49 12q0 10 -19 10h-268q-18 0 -18 -10t36 -10
q49 0 60 -40q3 -12 3 -86l1 -339q0 -243 -115 -314q-59 -38 -116 -38q-58 0 -117 38q-115 72 -115 314v35q2 54 2 344v4q0 39 8 55q13 27 54 27q36 0 36 10t-18 10h-266q-19 0 -19 -10t37 -10q38 0 51 -25q9 -17 9 -57l2 -383q0 -242 -115 -314q-55 -35 -119 -38h-823z
M2078 1162q26 -25 26 -62t-26 -63q-25 -25 -62 -25q-36 0 -62 25q-26 26 -26 63q0 36 26 62t62 26q37 0 62 -26zM2293 1162q26 -26 26 -62q0 -37 -26 -63q-26 -25 -62 -25q-37 0 -62 25q-26 26 -26 63t26 62q25 26 62 26q36 0 62 -26zM2185 1341q26 -25 26 -62t-26 -63
q-25 -25 -62 -25q-36 0 -62 25q-26 26 -26 63q0 36 26 62t62 26q37 0 62 -26z" />
    <glyph glyph-name="uniFEB7" unicode="&#x634;" horiz-adv-x="1561" arabic-form="initial" 
d="M854 159q-39 -73 -119 -117q-78 -42 -166 -42q-207 17 -282 159q-76 -144 -287 -159v45q60 0 119 38q115 72 115 314v383q0 52 -21 71q-6 4 -44 9q-34 5 -34 12q0 10 19 10h266q18 0 18 -10t-37 -10q-62 0 -62 -60l1 -405q0 -143 43 -232q57 -120 186 -120q232 0 232 352
v340q0 17 -1 42q-2 40 -7 52q-6 14 -18 21q-65 36 -72 20q0 10 18 10h266q19 0 19 -10t-37 -10q-60 0 -60 -64l-1 -131q-1 -113 -1 -270q0 -114 17 -176q26 -93 98 -138q62 -38 119 -38q233 0 233 352q-2 385 -3 398q0 14 -15 41q-15 28 -44 26q-38 -1 -38 12q0 6 6 6l262 2
q19 0 19 -10q0 -6 -12 -8l-28 -5q-40 -10 -40 -61v-309q0 -230 -50 -333q-75 -156 -290 -156q-202 0 -287 159zM811 1162q26 -25 26 -62t-26 -63q-25 -25 -62 -25q-36 0 -62 25q-26 26 -26 63q0 36 26 62t62 26q37 0 62 -26zM1026 1162q26 -26 26 -62q0 -37 -26 -63
q-26 -25 -62 -25q-37 0 -62 25q-26 26 -26 63t26 62q25 26 62 26q36 0 62 -26zM918 1341q26 -25 26 -62t-26 -63q-25 -25 -62 -25q-36 0 -62 25q-26 26 -26 63q0 36 26 62t62 26q37 0 62 -26z" />
    <glyph glyph-name="uniFEB8" unicode="&#x634;" horiz-adv-x="1714" arabic-form="medial" 
d="M0 45q141 7 196 125q36 77 39 227l-2 383q0 80 -49 80q-49 1 -49 12q0 10 18 10h267q18 0 18 -10t-37 -10q-38 0 -50 -24q-9 -16 -9 -58l-1 -170q-1 -124 -1 -213q0 -113 17 -176q26 -94 97 -138q116 -73 232 0q115 72 115 314v379q0 43 -4 54q-9 30 -46 30
q-49 25 -49 12q0 10 19 10h266q18 0 18 -10t-37 -10q-35 0 -48 -20q-5 -10 -11 -44l-1 -55q-1 -91 -1 -346q0 -114 17 -176q26 -93 98 -138q116 -73 237 0q115 72 115 314v309q0 127 -21 145q-6 5 -43 11q-34 4 -34 10q0 10 18 10h266q19 0 19 -10t-37 -10q-60 0 -60 -64
l-1 -132q-1 -113 -1 -269q0 -242 115 -314q54 -35 119 -38v-45q-212 16 -287 159q-84 -159 -283 -160q-200 -1 -290 160q-39 -73 -119 -117q-78 -42 -168 -42q-196 0 -281 159q-75 -143 -286 -159v45zM811 1162q26 -25 26 -62t-26 -63q-25 -25 -62 -25q-36 0 -62 25
q-26 26 -26 63q0 36 26 62t62 26q37 0 62 -26zM1026 1162q26 -26 26 -62q0 -37 -26 -63q-26 -25 -62 -25q-37 0 -62 25q-26 26 -26 63t26 62q25 26 62 26q36 0 62 -26zM918 1341q26 -25 26 -62t-26 -63q-25 -25 -62 -25q-36 0 -62 25q-26 26 -26 63q0 36 26 62t62 26
q37 0 62 -26z" />
    <glyph glyph-name="afii57429" unicode="&#x635;" horiz-adv-x="2094" arabic-form="isolated" 
d="M1100 0q-113 0 -203 124q-24 -208 -167 -308q-142 -99 -339 -50q-209 46 -249 274q-14 76 -13 204q2 176 0 199q-1 104 -35 130q-23 18 -78 18q-9 0 -10 7q-2 6 4 10q-4 2 299 2q22 0 22 -12q0 3 -47 -17t-47 -69l-2 -310q0 -189 59 -278q65 -94 168 -115q184 -32 281 90
q76 95 76 324v426l-2 139q0 22 -6 37q-7 16 -19 24q-19 17 -78 17q-10 0 -10 8q0 10 21 10l282 -2q5 0 10 -1l4 -1q12 -6 3 -14q-3 -2 -7 -2q-55 0 -69 -13q-21 -20 -21 -110q137 139 246 139h471l53 -2q172 -7 283 -123q114 -117 115 -297q0 -188 -126 -318
q-126 -129 -315 -140h-554zM1173 835q-108 0 -176 -103q-57 -86 -70 -212v-123q0 -113 18 -176q26 -94 97 -138q54 -35 119 -38h483q156 0 248 116q83 104 86 259q2 154 -74 269q-84 127 -229 146h-502z" />
    <glyph glyph-name="uniFEBA" unicode="&#x635;" horiz-adv-x="2325" arabic-form="final" 
d="M1096 0q-114 0 -203 124q-2 -158 -123 -269q-114 -104 -267 -113q-160 -9 -265 96q-121 121 -121 358q0 117 -2 255q0 91 -9 111q-11 27 -63 27q-43 0 -43 7q0 14 23 14h283q22 0 22 -12q0 -4 -35 -11q-39 -7 -47 -22q-14 -25 -14 -114v-249q0 -348 227 -393q28 -6 72 -6
q109 0 183 71q81 78 95 222q7 68 7 127v166q0 112 -1 225q-2 112 -2 174q0 68 -53 75q-59 15 -59 11q0 11 32 11q176 -3 259 -3h12q18 0 18 -10q0 10 -67 -14q-31 -11 -31 -117q137 139 246 139h471q198 0 322 -117q128 -120 128 -321q0 -141 12 -199q24 -111 103 -160
q51 -35 119 -38v-45q-236 17 -295 227q-123 -211 -379 -227h-555zM1170 835q-112 0 -183 -103q-63 -92 -63 -212v-123q0 -287 172 -352h545q162 0 251 113q82 103 82 266q0 153 -76 267q-84 125 -226 144h-502z" />
    <glyph glyph-name="uniFEBB" unicode="&#x635;" horiz-adv-x="1510" arabic-form="initial" 
d="M342 45h719q158 0 250 128q83 114 83 278q0 157 -76 265q-85 119 -228 119h-499q-110 0 -178 -105q-58 -88 -71 -216v-469zM1061 880q190 0 316 -111q133 -117 133 -309q0 -191 -126 -325q-128 -135 -313 -135h-1071v45h236v417q0 302 -2 336q-2 41 -27 56q-18 10 -61 10
q-10 1 -10 6q0 12 20 12h248q18 0 18 -12q0 -5 -8 -6q-50 0 -62 -26q-10 -20 -10 -99q129 139 249 139z" />
    <glyph glyph-name="uniFEBC" unicode="&#x635;" horiz-adv-x="1744" arabic-form="medial" 
d="M1395 750q116 -116 116 -292q0 -183 25 -257q49 -149 208 -156v-45q-235 17 -294 227q-59 -102 -156 -163q-104 -64 -223 -64h-1071v45h235q1 69 1 334q0 367 -3 419q-3 41 -26 56q-18 10 -62 10q-8 1 -8 6q0 12 18 12h250q18 0 18 -12q0 -5 -10 -6q-47 0 -60 -26
q-11 -22 -11 -99q133 141 247 141h471q17 0 54 -2q172 -19 281 -128zM589 835q-113 0 -183 -105q-64 -94 -64 -216v-469h718q152 0 245 109q89 106 89 270q0 158 -76 277q-86 134 -227 134h-502z" />
    <glyph glyph-name="afii57430" unicode="&#x636;" horiz-adv-x="2094" arabic-form="isolated" 
d="M1100 0q-113 0 -203 124q-24 -208 -167 -308q-142 -99 -339 -50q-209 46 -249 274q-14 76 -13 204q2 176 0 199q-1 104 -35 130q-23 18 -78 18q-9 0 -10 7q-2 6 4 10q-4 2 299 2q22 0 22 -12q0 3 -47 -17t-47 -69l-2 -310q0 -189 59 -278q65 -94 168 -115q184 -32 281 90
q76 95 76 324v426l-2 139q0 22 -6 37q-7 16 -19 24q-19 17 -78 17q-10 0 -10 8q0 10 21 10l282 -2q5 0 10 -1l4 -1q12 -6 3 -14q-3 -2 -7 -2q-55 0 -69 -13q-21 -20 -21 -110q137 139 246 139h471l53 -2q172 -7 283 -123q114 -117 115 -297q0 -188 -126 -318
q-126 -129 -315 -140h-554zM1173 835q-108 0 -176 -103q-57 -86 -70 -212v-123q0 -113 18 -176q26 -94 97 -138q54 -35 119 -38h483q156 0 248 116q83 104 86 259q2 154 -74 269q-84 127 -229 146h-502zM1496 1162q25 -26 25 -62q0 -37 -25 -62q-26 -26 -63 -26t-62 26
q-26 25 -26 62q0 36 26 62q25 26 62 26t63 -26z" />
    <glyph glyph-name="uniFEBE" unicode="&#x636;" horiz-adv-x="2325" arabic-form="final" 
d="M1096 0q-114 0 -203 124q-2 -158 -123 -269q-114 -104 -267 -113q-160 -9 -265 96q-121 121 -121 358q0 117 -2 255q0 91 -9 111q-11 27 -63 27q-43 0 -43 7q0 14 23 14h283q22 0 22 -12q0 -4 -35 -11q-39 -7 -47 -22q-14 -25 -14 -114v-249q0 -348 227 -393q28 -6 72 -6
q109 0 183 71q81 78 95 222q7 68 7 127v166q0 112 -1 225q-2 112 -2 174q0 68 -53 75q-59 15 -59 11q0 11 32 11q176 -3 259 -3h12q18 0 18 -10q0 10 -67 -14q-31 -11 -31 -117q137 139 246 139h471q198 0 322 -117q128 -120 128 -321q0 -141 12 -199q24 -111 103 -160
q51 -35 119 -38v-45q-236 17 -295 227q-123 -211 -379 -227h-555zM1170 835q-112 0 -183 -103q-63 -92 -63 -212v-123q0 -287 172 -352h545q162 0 251 113q82 103 82 266q0 153 -76 267q-84 125 -226 144h-502zM1494 1162q26 -26 26 -62q0 -37 -26 -62q-25 -26 -62 -26
t-63 26q-25 25 -25 62q0 36 25 62q26 26 63 26q36 0 62 -26z" />
    <glyph glyph-name="uniFEBF" unicode="&#x636;" horiz-adv-x="1510" arabic-form="initial" 
d="M342 45h719q158 0 250 128q83 114 83 278q0 157 -76 265q-85 119 -228 119h-499q-110 0 -178 -105q-58 -88 -71 -216v-469zM1061 880q190 0 316 -111q133 -117 133 -309q0 -191 -126 -325q-128 -135 -313 -135h-1071v45h236v417q0 302 -2 336q-2 41 -27 56q-18 10 -61 10
q-10 1 -10 6q0 12 20 12h248q18 0 18 -12q0 -5 -8 -6q-50 0 -62 -26q-10 -20 -10 -99q129 139 249 139zM913 1162q26 -26 26 -62q0 -37 -26 -62q-25 -26 -62 -26t-63 26q-25 25 -25 62q0 36 25 62q26 26 63 26q36 0 62 -26z" />
    <glyph glyph-name="uniFEC0" unicode="&#x636;" horiz-adv-x="1744" arabic-form="medial" 
d="M1395 750q116 -116 116 -292q0 -183 25 -257q49 -149 208 -156v-45q-235 17 -294 227q-59 -102 -156 -163q-104 -64 -223 -64h-1071v45h235q1 69 1 334q0 367 -3 419q-3 41 -26 56q-18 10 -62 10q-8 1 -8 6q0 12 18 12h250q18 0 18 -12q0 -5 -10 -6q-47 0 -60 -26
q-11 -22 -11 -99q133 141 247 141h471q17 0 54 -2q172 -19 281 -128zM589 835q-113 0 -183 -105q-64 -94 -64 -216v-469h718q152 0 245 109q89 106 89 270q0 158 -76 277q-86 134 -227 134h-502zM913 1162q26 -26 26 -62q0 -37 -26 -62q-25 -26 -62 -26t-63 26
q-25 25 -25 62q0 36 25 62q26 26 63 26q36 0 62 -26z" />
    <glyph glyph-name="afii57431" unicode="&#x637;" horiz-adv-x="1510" arabic-form="isolated" 
d="M0 0v45h238q1 93 1 538q0 645 -3 697q-3 41 -26 55q-18 10 -62 10q-9 2 -9 6q0 12 19 12h250q18 0 18 -12q0 -5 -10 -6q-66 0 -70 -65q-2 -29 -2 -541q135 141 246 141h473q27 0 51 -2q174 -14 283 -126q114 -116 115 -294q0 -190 -127 -323q-128 -135 -314 -135h-1071z
M1063 45q152 0 244 110q89 105 89 269q0 158 -76 277q-86 134 -228 134h-502q-111 0 -182 -105q-64 -95 -64 -216v-469h719z" />
    <glyph glyph-name="uniFEC2" unicode="&#x637;" horiz-adv-x="1745" arabic-form="final" 
d="M0 0v45h237v679q0 521 -2 556q-2 40 -27 55q-18 10 -61 10q-10 1 -10 7q0 11 18 11h250q19 0 19 -12q0 -4 -9 -6q-71 0 -71 -65l-1 -181q-1 -196 -1 -360q133 141 247 141h472q28 0 53 -2q172 -14 280 -125q113 -116 114 -294q0 -181 31 -261q51 -134 206 -153v-45
q-236 17 -295 227q-59 -102 -156 -163q-104 -64 -223 -64h-1071zM589 835q-112 0 -183 -105q-64 -95 -64 -216q0 -115 1 -278l1 -191h717q152 0 244 110q88 105 88 269q0 158 -75 277q-86 134 -227 134h-502z" />
    <glyph glyph-name="uniFEC3" unicode="&#x637;" horiz-adv-x="1512" arabic-form="initial" 
d="M0 0v45h238q1 93 1 538q0 645 -3 697q-3 41 -26 55q-18 10 -62 10q-9 2 -9 6q0 12 19 12h250q18 0 18 -12q0 -5 -10 -6q-66 0 -70 -65q-2 -29 -2 -541q135 141 246 141h473q27 0 51 -2q174 -14 283 -126q114 -116 115 -294q0 -190 -127 -323q-128 -135 -314 -135h-1071z
M1063 45q152 0 244 110q89 105 89 269q0 158 -76 277q-86 134 -228 134h-502q-108 0 -177 -105q-58 -89 -69 -216v-469h719z" />
    <glyph glyph-name="uniFEC4" unicode="&#x637;" horiz-adv-x="1745" arabic-form="medial" 
d="M0 0v45h237v679q0 521 -2 556q-2 40 -27 55q-18 10 -61 10q-10 1 -10 7q0 11 18 11h250q19 0 19 -12q0 -4 -9 -6q-71 0 -71 -65l-1 -181q-1 -196 -1 -360q133 141 247 141h472q28 0 53 -2q172 -14 280 -125q113 -116 114 -294q0 -181 31 -261q51 -134 206 -153v-45
q-236 17 -295 227q-59 -102 -156 -163q-104 -64 -223 -64h-1071zM589 835q-112 0 -183 -105q-64 -95 -64 -216q0 -115 1 -278l1 -191h717q152 0 244 110q88 105 88 269q0 158 -75 277q-86 134 -227 134h-502z" />
    <glyph glyph-name="afii57432" unicode="&#x638;" horiz-adv-x="1512" arabic-form="isolated" 
d="M0 0v45h238q1 93 1 538q0 645 -3 697q-3 41 -26 55q-18 10 -62 10q-9 2 -9 6q0 12 19 12h250q18 0 18 -12q0 -5 -10 -6q-66 0 -70 -65q-2 -29 -2 -541q135 141 246 141h473q27 0 51 -2q174 -14 283 -126q114 -116 115 -294q0 -190 -127 -323q-128 -135 -314 -135h-1071z
M1063 45q152 0 244 110q89 105 89 269q0 158 -76 277q-86 134 -228 134h-502q-108 0 -177 -105q-58 -89 -69 -216v-469h719zM788 1162q-25 -26 -25 -62q0 -37 25 -62q26 -26 63 -26t62 26q26 25 26 62q0 36 -26 62t-62 26q-37 0 -63 -26z" />
    <glyph glyph-name="uniFEC6" unicode="&#x638;" horiz-adv-x="1745" arabic-form="final" 
d="M0 0v45h237v679q0 521 -2 556q-2 40 -27 55q-18 10 -61 10q-10 1 -10 7q0 11 18 11h250q19 0 19 -12q0 -4 -9 -6q-71 0 -71 -65l-1 -181q-1 -196 -1 -360q133 141 247 141h472q28 0 53 -2q172 -14 280 -125q113 -116 114 -294q0 -181 31 -261q51 -134 206 -153v-45
q-236 17 -295 227q-59 -102 -156 -163q-104 -64 -223 -64h-1071zM589 835q-112 0 -183 -105q-64 -95 -64 -216q0 -115 1 -278l1 -191h717q152 0 244 110q88 105 88 269q0 158 -75 277q-86 134 -227 134h-502zM913 1162q26 -26 26 -62q0 -37 -26 -62q-25 -26 -62 -26t-63 26
q-25 25 -25 62q0 36 25 62q26 26 63 26q36 0 62 -26z" />
    <glyph glyph-name="uniFEC7" unicode="&#x638;" horiz-adv-x="1512" arabic-form="initial" 
d="M0 0v45h238q1 93 1 538q0 645 -3 697q-3 41 -26 55q-18 10 -62 10q-9 2 -9 6q0 12 19 12h250q18 0 18 -12q0 -5 -10 -6q-66 0 -70 -65q-2 -29 -2 -541q135 141 246 141h473q27 0 51 -2q174 -14 283 -126q114 -116 115 -294q0 -190 -127 -323q-128 -135 -314 -135h-1071z
M1063 45q152 0 244 110q89 105 89 269q0 158 -76 277q-86 134 -228 134h-502q-108 0 -177 -105q-58 -89 -69 -216v-469h719zM788 1162q-25 -26 -25 -62q0 -37 25 -62q26 -26 63 -26t62 26q26 25 26 62q0 36 -26 62t-62 26q-37 0 -63 -26z" />
    <glyph glyph-name="uniFEC8" unicode="&#x638;" horiz-adv-x="1745" arabic-form="medial" 
d="M0 0v45h237v679q0 521 -2 556q-2 40 -27 55q-18 10 -61 10q-10 1 -10 7q0 11 18 11h250q19 0 19 -12q0 -4 -9 -6q-71 0 -71 -65l-1 -181q-1 -196 -1 -360q133 141 247 141h472q28 0 53 -2q172 -14 280 -125q113 -116 114 -294q0 -181 31 -261q51 -134 206 -153v-45
q-236 17 -295 227q-59 -102 -156 -163q-104 -64 -223 -64h-1071zM589 835q-112 0 -183 -105q-64 -95 -64 -216q0 -115 1 -278l1 -191h717q152 0 244 110q88 105 88 269q0 158 -75 277q-86 134 -227 134h-502zM913 1162q26 -26 26 -62q0 -37 -26 -62q-25 -26 -62 -26t-63 26
q-25 25 -25 62q0 36 25 62q26 26 63 26q36 0 62 -26z" />
    <glyph glyph-name="afii57433" unicode="&#x639;" horiz-adv-x="1374" arabic-form="isolated" 
d="M6 -250q42 199 248 264q-114 29 -185 126q-69 95 -69 216q0 146 108 249t264 103q535 0 646 8q246 18 323 156q0 -160 -214 -228q-142 -46 -355 -46h-516q-71 -3 -118 -70q-44 -63 -44 -148q0 -120 60 -212q65 -98 174 -123h1046v-45h-991q-116 0 -190 -64
q-76 -65 -97 -186h-90z" />
    <glyph glyph-name="uniFECA" unicode="&#x639;" horiz-adv-x="1374" arabic-form="final" 
d="M248 315q-163 158 -249 171q75 180 257 282q167 93 371 93q200 0 366 -91q184 -101 260 -284q-86 -13 -249 -171q-147 -143 -228 -270h598v-45h-991q-116 0 -190 -64q-76 -65 -97 -186h-90q73 295 470 295q-80 127 -228 270zM726 46q42 99 174 253q143 168 218 180
q-58 158 -200 246q-131 81 -294 81q-158 0 -287 -79q-144 -88 -203 -248q75 -12 220 -180q134 -154 177 -253h195z" />
    <glyph glyph-name="uniFECB" unicode="&#x639;" horiz-adv-x="1439" arabic-form="initial" 
d="M173 605q109 104 263 104q545 0 647 7q246 18 326 156q-49 -96 -78 -133q-73 -95 -174 -121q-67 -17 -665 -17q-165 0 -231 -31q-101 -49 -101 -194q0 -118 60 -209q65 -98 173 -122h1046v-45h-1439v45h247q-182 96 -182 311q0 146 108 249z" />
    <glyph glyph-name="uniFECC" unicode="&#x639;" horiz-adv-x="1537" arabic-form="medial" 
d="M0 0v45h616q-80 127 -228 270q-163 158 -249 171q75 180 257 282q167 93 371 93q200 0 366 -91q184 -101 260 -284q-86 -13 -249 -171q-147 -143 -228 -270h621v-45h-1537zM866 46q42 99 174 253q143 168 218 180q-58 158 -200 246q-131 81 -294 81q-158 0 -287 -79
q-144 -88 -203 -248q75 -12 220 -180q134 -154 177 -253h195z" />
    <glyph glyph-name="afii57434" unicode="&#x63a;" horiz-adv-x="1374" arabic-form="isolated" 
d="M709 1162q26 -26 26 -62q0 -37 -26 -62q-25 -26 -62 -26t-63 26q-25 25 -25 62q0 36 25 62q26 26 63 26q36 0 62 -26zM6 -250q42 199 248 264q-114 29 -185 126q-69 95 -69 216q0 146 108 249t264 103q535 0 646 8q246 18 323 156q0 -160 -214 -228q-142 -46 -355 -46
h-516q-71 -3 -118 -70q-44 -63 -44 -148q0 -120 60 -212q65 -98 174 -123h1046v-45h-991q-116 0 -190 -64q-76 -65 -97 -186h-90z" />
    <glyph glyph-name="uniFECE" unicode="&#x63a;" horiz-adv-x="1374" arabic-form="final" 
d="M689 1162q26 -26 26 -62q0 -37 -26 -62q-25 -26 -62 -26t-63 26q-25 25 -25 62q0 36 25 62q26 26 63 26q36 0 62 -26zM248 315q-163 158 -249 171q75 180 257 282q167 93 371 93q200 0 366 -91q184 -101 260 -284q-86 -13 -249 -171q-147 -143 -228 -270h598v-45h-991
q-116 0 -190 -64q-76 -65 -97 -186h-90q73 295 470 295q-80 127 -228 270zM726 46q42 99 174 253q143 168 218 180q-58 158 -200 246q-131 81 -294 81q-158 0 -287 -79q-144 -88 -203 -248q75 -12 220 -180q134 -154 177 -253h195z" />
    <glyph glyph-name="uniFECF" unicode="&#x63a;" horiz-adv-x="1439" arabic-form="initial" 
d="M173 605q109 104 263 104q545 0 647 7q246 18 326 156q-49 -96 -78 -133q-73 -95 -174 -121q-67 -17 -665 -17q-165 0 -231 -31q-101 -49 -101 -194q0 -118 60 -209q65 -98 173 -122h1046v-45h-1439v45h247q-182 96 -182 311q0 146 108 249zM775 1162q26 -26 26 -62
q0 -37 -26 -62q-25 -26 -62 -26t-63 26q-25 25 -25 62q0 36 25 62q26 26 63 26q36 0 62 -26z" />
    <glyph glyph-name="uniFED0" unicode="&#x63a;" horiz-adv-x="1537" arabic-form="medial" 
d="M827 1162q26 -26 26 -62q0 -37 -26 -62q-25 -26 -62 -26t-63 26q-25 25 -25 62q0 36 25 62q26 26 63 26q36 0 62 -26zM0 0v45h616q-80 127 -228 270q-163 158 -249 171q75 180 257 282q167 93 371 93q200 0 366 -91q184 -101 260 -284q-86 -13 -249 -171
q-147 -143 -228 -270h621v-45h-1537zM866 46q42 99 174 253q143 168 218 180q-58 158 -200 246q-131 81 -294 81q-158 0 -287 -79q-144 -88 -203 -248q75 -12 220 -180q134 -154 177 -253h195z" />
    <glyph glyph-name="afii57441" unicode="&#x641;" horiz-adv-x="1700" arabic-form="isolated" 
d="M444 0q-181 0 -309 126q-135 132 -135 334q0 78 26 150h123q-32 -84 -32 -183q0 -158 76 -262q88 -120 251 -120h574q-121 60 -185 178q-56 101 -56 219q0 149 85 269q123 172 378 172q197 0 325 -110q135 -116 135 -312q0 -182 -116 -312q-124 -138 -324 -147v-2h-816z
M1013 151q102 -104 253 -104q136 0 221 90q95 102 95 291q0 182 -99 299q-98 115 -249 115q-153 0 -243 -94q-93 -98 -93 -275q0 -205 115 -322zM1302 1162q26 -26 26 -62q0 -37 -26 -62q-25 -26 -62 -26t-63 26q-25 25 -25 62q0 36 25 62q26 26 63 26q36 0 62 -26z" />
    <glyph glyph-name="uniFED2" unicode="&#x641;" horiz-adv-x="1755" arabic-form="final" 
d="M1755 0h-1311q-181 0 -309 126q-135 132 -135 334q0 78 26 150h123q-32 -84 -32 -183q0 -158 76 -262q88 -120 251 -120h575q-122 61 -186 178q-55 101 -55 219q0 159 99 283q127 158 363 158q199 0 327 -110q134 -117 134 -312q0 -130 -65 -243q-71 -123 -193 -173h312
v-45zM1014 152q102 -105 253 -105q141 0 225 95q90 102 90 286q0 188 -102 304q-98 110 -246 110q-153 0 -243 -95q-93 -98 -93 -274q0 -204 116 -321zM1303 1162q26 -26 26 -62q0 -37 -26 -62q-25 -26 -62 -26t-63 26q-25 25 -25 62q0 36 25 62q26 26 63 26q36 0 62 -26z
" />
    <glyph glyph-name="uniFED3" unicode="&#x641;" horiz-adv-x="966" arabic-form="initial" 
d="M0 45h284q-121 60 -185 178q-56 101 -56 219q0 48 12 96q28 115 103 200q127 145 348 145q197 0 325 -110q135 -116 135 -312q0 -182 -116 -312q-124 -138 -324 -147v-2h-526v45zM279 151q102 -104 253 -104q136 0 221 90q95 102 95 291q0 182 -99 299q-98 115 -249 115
q-153 0 -243 -94q-93 -98 -93 -275q0 -205 115 -322zM568 1162q26 -26 26 -62q0 -37 -26 -62q-25 -26 -62 -26t-63 26q-25 25 -25 62q0 36 25 62q26 26 63 26q36 0 62 -26z" />
    <glyph glyph-name="uniFED4" unicode="&#x641;" horiz-adv-x="1477" arabic-form="medial" 
d="M379 721q129 162 361 162q197 0 325 -110q135 -116 135 -312q0 -133 -66 -244q-69 -118 -192 -172h535v-45h-1477v45h518q-122 61 -186 178q-55 101 -55 219q0 152 102 279zM510 154q103 -107 256 -107q135 0 220 90q96 102 96 291q0 187 -103 303q-99 111 -246 111
q-153 0 -242 -94q-93 -98 -93 -275q0 -202 112 -319zM801 1162q26 -26 26 -62q0 -37 -26 -62q-25 -26 -62 -26t-63 26q-25 25 -25 62q0 36 25 62q26 26 63 26q36 0 62 -26z" />
    <glyph glyph-name="afii57442" unicode="&#x642;" horiz-adv-x="1700" arabic-form="isolated" 
d="M444 0q-181 0 -309 126q-135 132 -135 334q0 78 26 150h123q-32 -84 -32 -183q0 -158 76 -262q88 -120 251 -120h574q-121 60 -185 178q-56 101 -56 219q0 149 85 269q123 172 378 172q197 0 325 -110q135 -116 135 -312q0 -182 -116 -312q-124 -138 -324 -147v-2h-816z
M1013 151q102 -104 253 -104q136 0 221 90q95 102 95 291q0 182 -99 299q-98 115 -249 115q-153 0 -243 -94q-93 -98 -93 -275q0 -205 115 -322zM1198 1162q26 -25 26 -62t-26 -63q-25 -25 -62 -25q-36 0 -62 25q-26 26 -26 63q0 36 26 62t62 26q37 0 62 -26zM1413 1162
q26 -26 26 -62q0 -37 -26 -63q-26 -25 -62 -25q-37 0 -62 25q-26 26 -26 63t26 62q25 26 62 26q36 0 62 -26z" />
    <glyph glyph-name="uniFED6" unicode="&#x642;" horiz-adv-x="1755" arabic-form="final" 
d="M1755 0h-1311q-181 0 -309 126q-135 132 -135 334q0 78 26 150h123q-32 -84 -32 -183q0 -158 76 -262q88 -120 251 -120h575q-122 61 -186 178q-55 101 -55 219q0 48 12 96q30 125 119 216q126 129 331 129q199 0 327 -110q134 -117 134 -312q0 -130 -65 -243
q-71 -123 -193 -173h312v-45zM1014 152q102 -105 253 -105q141 0 225 95q90 102 90 286q0 188 -102 304q-98 110 -246 110q-153 0 -243 -95q-93 -98 -93 -274q0 -204 116 -321zM1198 1162q26 -25 26 -62t-26 -63q-25 -25 -62 -25q-36 0 -62 25q-26 26 -26 63q0 36 26 62
t62 26q37 0 62 -26zM1413 1162q26 -26 26 -62q0 -37 -26 -63q-26 -25 -62 -25q-37 0 -62 25q-26 26 -26 63t26 62q25 26 62 26q36 0 62 -26z" />
    <glyph glyph-name="uniFED7" unicode="&#x642;" horiz-adv-x="966" arabic-form="initial" 
d="M0 45h284q-121 60 -185 178q-56 101 -56 219q0 48 12 96q28 115 103 200q127 145 348 145q197 0 325 -110q135 -116 135 -312q0 -182 -116 -312q-124 -138 -324 -147v-2h-526v45zM279 151q102 -104 253 -104q136 0 221 90q95 102 95 291q0 182 -99 299q-98 115 -249 115
q-153 0 -243 -94q-93 -98 -93 -275q0 -205 115 -322zM463 1162q26 -25 26 -62t-26 -63q-25 -25 -62 -25q-36 0 -62 25q-26 26 -26 63q0 36 26 62t62 26q37 0 62 -26zM678 1162q26 -26 26 -62q0 -37 -26 -63q-26 -25 -62 -25q-37 0 -62 25q-26 26 -26 63t26 62q25 26 62 26
q36 0 62 -26z" />
    <glyph glyph-name="uniFED8" unicode="&#x642;" horiz-adv-x="1477" arabic-form="medial" 
d="M379 721q129 162 361 162q197 0 325 -110q135 -116 135 -312q0 -133 -66 -244q-69 -118 -192 -172h535v-45h-1477v45h518q-122 61 -186 178q-55 101 -55 219q0 152 102 279zM510 154q103 -107 256 -107q135 0 220 90q96 102 96 291q0 187 -103 303q-99 111 -246 111
q-153 0 -242 -94q-93 -98 -93 -275q0 -202 112 -319zM699 1162q26 -25 26 -62t-26 -63q-25 -25 -62 -25q-36 0 -62 25q-26 26 -26 63q0 36 26 62t62 26q37 0 62 -26zM914 1162q26 -26 26 -62q0 -37 -26 -63q-26 -25 -62 -25q-37 0 -62 25q-26 26 -26 63t26 62q25 26 62 26
q36 0 62 -26z" />
    <glyph glyph-name="afii57443" unicode="&#x643;" horiz-adv-x="2137" arabic-form="isolated" 
d="M2137 195q0 -79 -60 -134q-65 -58 -171 -61h-1906v45h1880q85 4 148 59q56 49 56 94q-10 169 -376 169l-307 -3q-378 -5 -958 -9q-299 0 -398 142q-45 56 -45 127q0 79 73 154q105 107 383 107q438 0 506 5q248 18 326 156q-52 -102 -76 -133q-72 -95 -176 -121
q-88 -22 -247 -22q-64 0 -197 7q-133 6 -204 6q-342 0 -342 -164q0 -69 79 -120q73 -47 170 -53q49 -4 136 -4q662 0 989 4q76 0 174 2l104 1q274 0 373 -103q66 -69 66 -151z" />
    <glyph glyph-name="uniFEDA" unicode="&#x643;" horiz-adv-x="2349" arabic-form="final" 
d="M2349 0q-163 14 -246 100q-59 -84 -199 -100h-1904v45h1880q84 4 145 63q52 50 52 97q0 155 -370 162q-691 -12 -1264 -12q-301 0 -400 142q-43 72 -43 127q0 80 71 154q95 98 331 111q78 5 199 1q160 -5 179 -5q199 0 279 16q164 33 229 145q-50 -98 -77 -133
q-73 -95 -175 -121q-81 -21 -372 -21q-52 0 -157 7t-158 7q-90 0 -165 -15q-59 -12 -99 -58q-40 -45 -40 -94q0 -68 79 -117q70 -43 169 -55q115 -2 347 -2q172 0 524 3q352 2 534 2q380 0 432 -220q19 -81 77 -129q57 -49 142 -55v-45z" />
    <glyph glyph-name="uniFEDB" unicode="&#x643;" horiz-adv-x="2259" arabic-form="initial" 
d="M2258 195q0 -79 -60 -134q-65 -58 -171 -61h-2027v45h2001q85 4 148 59q56 49 56 94q-10 169 -376 169l-307 -3q-378 -5 -958 -9q-299 0 -398 142q-45 56 -45 127q0 79 73 154q105 107 383 107q438 0 506 5q248 18 326 156q-52 -102 -76 -133q-72 -95 -176 -121
q-88 -22 -247 -22q-64 0 -197 7q-133 6 -204 6q-342 0 -342 -164q0 -69 79 -120q73 -47 170 -53q49 -4 136 -4q662 0 989 4q76 0 174 2l104 1q274 0 373 -103q66 -69 66 -151z" />
    <glyph glyph-name="uniFEDC" unicode="&#x643;" horiz-adv-x="2470" arabic-form="medial" 
d="M2470 0q-163 14 -246 100q-59 -84 -199 -100h-2025v45h2001q84 4 145 63q52 50 52 97q0 155 -370 162q-691 -12 -1264 -12q-301 0 -400 142q-43 72 -43 127q0 80 71 154q95 98 331 111q78 5 199 1q160 -5 179 -5q199 0 279 16q164 33 229 145q-50 -98 -77 -133
q-73 -95 -175 -121q-81 -21 -372 -21q-52 0 -157 7t-158 7q-90 0 -165 -15q-59 -12 -99 -58q-40 -45 -40 -94q0 -68 79 -117q70 -43 169 -55q115 -2 347 -2q172 0 524 3q352 2 534 2q380 0 432 -220q19 -81 77 -129q57 -49 142 -55v-45z" />
    <glyph glyph-name="afii57444" unicode="&#x644;" horiz-adv-x="994" arabic-form="isolated" 
d="M116 450q0 82 -7 104q-11 33 -53 33q-55 0 -55 13q0 9 21 9h283q22 0 22 -11q0 -7 -11 -7q-41 0 -58 -13q-19 -15 -25 -55q-2 -17 -2 -320q0 -400 300 -400q42 0 79 12q121 37 168 150q37 90 37 258l-2 1044q-3 47 -24 62q-10 7 -52 14q-37 6 -37 12q0 10 21 10h252
q21 0 21 -10q0 -9 -11 -9q-45 0 -63 -18q-15 -17 -19 -61l-2 -1020q0 -224 -90 -350q-103 -145 -316 -145q-149 0 -241 75q-136 109 -136 368v255z" />
    <glyph glyph-name="uniFEDE" unicode="&#x644;" horiz-adv-x="1134" arabic-form="final" 
d="M114 450q0 88 -10 111q-13 28 -62 28q-42 0 -42 11q0 9 21 9h284q21 0 21 -11q0 -7 -11 -7q-56 0 -71 -30q-13 -24 -13 -111v-212l-1 -35q0 -400 300 -400q42 0 79 12q120 38 168 150q38 90 38 258l-2 426q0 610 -1 618q-4 60 -44 72l-39 4q-30 3 -30 12q0 10 21 10h252
q21 0 21 -10q0 -9 -11 -9q-81 0 -81 -79l-1 -624l1 -202q0 -172 27 -247q50 -139 206 -150v-44q-163 13 -244 100q-25 -191 -155 -281q-95 -66 -219 -66q-198 0 -295 100q-105 107 -106 342z" />
    <glyph glyph-name="uniFEDF" unicode="&#x644;" horiz-adv-x="420" arabic-form="initial" 
d="M0 44q141 10 196 127q37 79 37 225v311q0 512 -1 523q0 60 -5 77q-7 26 -35 33q-58 17 -58 14q0 9 19 9h249q18 0 18 -9t-9 -9q-45 0 -59 -19q-12 -17 -12 -68v-613q0 -332 -26 -417q-63 -208 -314 -228v44z" />
    <glyph glyph-name="uniFEE0" unicode="&#x644;" horiz-adv-x="573" arabic-form="medial" 
d="M233 1230q0 50 -3 63q-6 31 -33 46q-2 1 -35 3q-28 2 -28 12q0 9 19 9h267q19 0 19 -9t-9 -9q-62 0 -78 -24q-12 -19 -12 -91v-834q0 -147 37 -225q55 -117 196 -127v-44q-212 16 -286 160q-76 -144 -287 -160v44q141 10 197 127q37 79 37 225z" />
    <glyph glyph-name="afii57445" unicode="&#x645;" horiz-adv-x="1052" arabic-form="isolated" 
d="M241 270q-9 18 -16 49l-12 63q-5 53 -5 64q5 90 19 139q17 58 49 111q33 49 72 82q33 31 88 59q64 27 98 33q50 12 98 12q45 0 91 -12q49 -12 96 -35q38 -18 88 -59q44 -38 76 -84q36 -60 51 -113q18 -61 18 -139q0 -92 -28 -174q-30 -85 -80 -140q-51 -58 -127 -94
q-78 -32 -168 -32q-57 0 -107 12q-56 18 -90 35q-44 24 -72 49q-23 16 -55 51q-26 29 -37 49l-112 -227q-43 -86 -72 -168q-27 -87 -37 -137q-13 -65 -16 -101q-2 -28 -2 -63q0 -14 4 -64q12 -68 14 -75q9 -38 23 -78q-2 4 4 -11v-6q0 -2 -2 -4t-6 -2q-5 0 -7 2l-4 6
q-4 9 -11 28q-8 21 -13 32q-17 51 -23 80q-10 36 -20 100q-4 36 -8 115q0 63 16 141q16 77 47 152q33 82 80 167zM493 741q-79 -29 -129 -74q-53 -47 -82 -110q-28 -67 -28 -142q0 -24 6 -57q6 -31 18 -66q10 -23 41 -65q32 -37 68 -57q39 -26 96 -41q53 -15 135 -15
q76 0 139 17q63 18 111 49q45 32 78 73q35 46 49 93q16 43 16 102q0 74 -20 127q-22 59 -66 102q-44 45 -110 66q-67 25 -154 25q-94 0 -168 -27z" />
    <glyph glyph-name="uniFEE2" unicode="&#x645;" horiz-adv-x="1253" arabic-form="final" 
d="M649 0q-122 0 -231 68q-89 57 -130 128l-112 -227q-131 -266 -127 -469q0 -117 45 -228q0 -12 -8 -12q-3 0 -11 8q-64 136 -75 355q0 203 143 460l98 187q-33 66 -33 176q6 95 19 139q40 138 156 219q110 78 249 78q149 0 270 -101q150 -125 150 -341q0 -97 -25 -166
q13 -95 65 -155q60 -69 161 -74v-45q-174 13 -277 167q-111 -167 -327 -167zM359 662q-105 -98 -105 -247q0 -125 82 -206q97 -95 282 -95q194 0 301 107q92 92 92 227q0 143 -83 227q-92 93 -267 93q-190 0 -302 -106z" />
    <glyph glyph-name="uniFEE3" unicode="&#x645;" horiz-adv-x="1157" arabic-form="initial" 
d="M357 746q132 137 339 137q210 0 335 -119q120 -114 126 -305q0 -201 -137 -331q-133 -128 -332 -128q-135 0 -241 59q-102 58 -156 158q-31 -99 -112 -156q-76 -53 -179 -61v45q65 3 119 37q79 49 103 163q12 58 12 198q0 176 123 303zM466 153q104 -107 271 -107
q105 0 185 70q114 99 114 312q0 202 -109 314q-96 98 -239 98q-150 0 -239 -92q-95 -97 -95 -275q0 -204 112 -320z" />
    <glyph glyph-name="uniFEE4" unicode="&#x645;" horiz-adv-x="1388" arabic-form="medial" 
d="M0 45q145 7 202 127q42 88 33 228q-2 28 -2 43q0 164 115 293q131 147 346 147q208 0 335 -118q126 -117 126 -306q0 -151 10 -206q23 -121 105 -171q55 -34 118 -37v-45q-105 8 -180 63q-82 59 -112 162q-5 -6 -12 -18q-7 -13 -11 -18q-146 -189 -385 -189
q-136 0 -243 60q-104 58 -152 155q-65 -198 -293 -215v45zM464 155q104 -109 272 -109q44 0 114 28q71 23 120 97q66 98 66 257q0 188 -99 301q-96 111 -249 111q-151 0 -240 -92q-94 -97 -94 -275q0 -203 110 -318z" />
    <glyph glyph-name="afii57446" unicode="&#x646;" horiz-adv-x="991" arabic-form="isolated" 
d="M113 451q0 92 -13 118q-10 20 -43 20q-59 0 -59 9q0 12 20 12h285q21 0 21 -12q0 -7 -11 -7q-58 0 -73 -32q-11 -22 -11 -101v-256q0 -243 107 -338q69 -61 192 -61q35 0 78 12q119 35 168 146q39 91 39 262v527q0 59 -16 84q-20 32 -74 32q-26 0 -26 9t22 9l246 1
q26 0 26 -11q0 -4 -2 -6q-49 0 -69 -18q-21 -18 -21 -62l-1 -192q-1 -148 -1 -349q0 -124 -23 -217q-32 -126 -132 -200q-103 -77 -252 -77q-166 0 -261 95q-116 101 -116 348v255zM552 1161q26 -26 26 -62q0 -37 -26 -62q-25 -26 -62 -26t-63 26q-25 25 -25 62q0 36 25 62
q26 26 63 26q36 0 62 -26z" />
    <glyph glyph-name="uniFEE6" unicode="&#x646;" horiz-adv-x="1155" arabic-form="final" 
d="M1155 0q-181 14 -262 124q-12 -75 -16 -94q-34 -149 -161 -223q-92 -54 -193 -54q-408 0 -408 443v260q0 72 -11 98q-16 35 -63 35q-41 0 -41 9q0 12 21 12h284q21 0 21 -12q0 -7 -10 -7q-50 0 -67 -21q-15 -19 -17 -70l-1 -99q-1 -71 -1 -199q0 -399 299 -399
q286 0 286 420l-4 565q0 59 -47 72q-65 17 -65 14q0 10 22 10l97 -1q84 -1 186 -1q18 0 18 -10t-37 -10q-59 0 -59 -64l-2 -88q-2 -120 -2 -313q0 -341 233 -352v-45zM591 1161q26 -26 26 -62q0 -37 -26 -62q-25 -26 -62 -26t-63 26q-25 25 -25 62q0 36 25 62q26 26 63 26
q36 0 62 -26z" />
    <glyph glyph-name="uniFEE7" unicode="&#x646;" horiz-adv-x="420" arabic-form="initial" 
d="M0 45q59 1 118 38q115 72 115 314v380q0 85 -63 85q-26 0 -32 2q-5 1 -5 8q0 5 6 8l262 2q19 0 19 -10q0 -6 -12 -8q-27 -4 -28 -5q-40 -10 -40 -61v-241q0 -269 -39 -366q-69 -172 -301 -191v45zM348 1162q26 -26 26 -62q0 -37 -26 -62q-25 -26 -62 -26t-63 26
q-25 25 -25 62q0 36 25 62q26 26 63 26q36 0 62 -26z" />
    <glyph glyph-name="uniFEE8" unicode="&#x646;" horiz-adv-x="572" arabic-form="medial" 
d="M338 397q0 -116 17 -178q26 -91 98 -136q56 -36 119 -38v-45q-209 16 -287 159q-75 -143 -285 -159v45q227 11 232 355v376q0 43 -10 61q-14 25 -52 25q-37 0 -37 10t19 10h268q19 0 19 -10t-37 -10q-62 0 -62 -74zM348 1162q26 -26 26 -62q0 -37 -26 -62
q-25 -26 -62 -26t-63 26q-25 25 -25 62q0 36 25 62q26 26 63 26q36 0 62 -26z" />
    <glyph glyph-name="afii57470" unicode="&#x647;" horiz-adv-x="921" arabic-form="isolated" 
d="M120 744q131 139 341 139q198 0 325 -110q135 -116 135 -312q0 -221 -145 -346q-127 -108 -322 -115q-242 9 -362 163q-92 118 -92 279q0 175 120 302zM229 158q100 -111 258 -111q139 0 223 93q93 101 93 288q0 184 -98 299t-251 115q-158 0 -245 -98q-85 -95 -90 -271
q6 -199 110 -315z" />
    <glyph glyph-name="uniFEEA" unicode="&#x647;" horiz-adv-x="1157" arabic-form="final" 
d="M1157 0q-235 21 -293 225q-143 -216 -407 -225q-224 8 -348 148q-109 121 -109 294q0 48 12 96q31 125 118 215q127 130 333 130q197 0 325 -110q135 -116 135 -312q0 -185 24 -257q48 -143 210 -159v-45zM226 163q103 -116 263 -116q136 0 221 91q95 102 95 290
q0 193 -107 309q-98 105 -241 105q-153 0 -243 -94q-93 -98 -93 -275q0 -191 105 -310z" />
    <glyph glyph-name="uniFEEB" unicode="&#x647;" horiz-adv-x="766" arabic-form="initial" 
d="M402 0h-402v45q75 0 135 4q-94 63 -94 170q0 88 69 159q59 60 152 93q-172 90 -172 222q0 88 78 143q68 47 155 47q182 0 310 -113q133 -118 133 -312q0 -71 -22 -143q-49 -158 -209 -260q-87 -55 -133 -55zM134 230q0 -76 54 -119q50 -41 132 -41q74 0 133 37
q67 42 67 110q0 87 -69 149q-47 41 -148 86q-118 -51 -153 -145q-16 -46 -16 -77zM305 839q-51 0 -86 -31q-42 -36 -42 -103q0 -93 160 -182q204 -114 226 -140q52 -61 52 -141q34 81 34 181q0 156 -79 272q-87 127 -234 142q-20 2 -31 2z" />
    <glyph glyph-name="uniFEEC" unicode="&#x647;" horiz-adv-x="968" arabic-form="medial" 
d="M252 45l-4 12q-16 65 -16 141q0 60 15 170q14 110 14 166q0 141 -77 305q-6 10 -6 20q0 12 12 12q4 0 8 -3q182 -75 313 -217q136 -147 136 -283q0 -101 -77 -201q-84 -110 -218 -153l8 -25q123 -423 424 -583q-148 264 -148 474q0 138 76 281q8 -59 19 -76
q22 -40 84 -40h153v-45h-213q-46 -128 -46 -250q0 -151 91 -338q6 -12 6 -20q0 -11 -10 -11q-4 0 -8 2q-182 75 -321 221q-137 144 -203 396h-264v45h252zM330 407q0 -37 -6 -102q-7 -66 -7 -99q0 -70 21 -141q103 46 158 127q52 76 52 167q0 140 -104 280
q-100 136 -246 206q102 -185 127 -362q5 -45 5 -76z" />
    <glyph glyph-name="afii57448" unicode="&#x648;" horiz-adv-x="1025" arabic-form="isolated" 
d="M558 0q-234 0 -358 155q-99 123 -99 287q0 187 132 313q133 127 331 127q96 0 182 -28q189 -72 246 -228q33 -93 33 -328q0 -206 -19 -284q-21 -84 -109 -171t-131 -67q152 84 152 383q-140 -159 -360 -159zM326 161q101 -114 264 -114q14 0 60 4q93 17 157 82
q99 100 99 295q0 193 -107 307q-97 104 -241 104q-153 0 -242 -91q-94 -97 -94 -275q0 -196 104 -312z" />
    <glyph glyph-name="uniFEEE" unicode="&#x648;" horiz-adv-x="1260" arabic-form="final" 
d="M213 731q131 151 353 151q210 0 337 -120q123 -117 123 -304q0 -181 26 -257q49 -148 208 -156v-45q-150 13 -238 114q6 -129 -92 -241q-89 -103 -162 -97q152 84 152 383q-141 -159 -361 -159q-230 0 -354 152q-102 123 -102 290q0 162 110 289zM333 155
q102 -108 259 -108q90 0 157 38q159 89 159 343q0 191 -105 305q-98 106 -244 106q-152 0 -241 -91q-94 -97 -94 -275q0 -201 109 -318z" />
    <glyph glyph-name="afii57449" unicode="&#x649;" horiz-adv-x="1642" arabic-form="isolated" 
d="M91 181q-90 119 -90 275q0 81 27 153h123q-34 -89 -34 -185q0 -159 88 -265q96 -115 260 -115l854 -2q122 0 188 41q84 52 84 115q0 59 -75 110q-76 51 -167 51q-310 0 -462 1q-177 2 -263 172q-22 41 -22 90q0 117 116 194q89 59 323 70q294 12 378 163q3 -8 -44 -79
q-56 -86 -120 -133q-86 -64 -266 -64l-150 1q-70 -2 -131 -49q-62 -49 -62 -104q0 -75 94 -127q71 -39 153 -48l269 2q153 0 223 -13q123 -22 192 -94q65 -68 65 -145q0 -62 -41 -111q-43 -50 -114 -69q-57 -16 -170 -16h-822q-114 0 -186 25q-134 46 -218 156z" />
    <glyph glyph-name="uniFEF0" unicode="&#x649;" horiz-adv-x="1754" arabic-form="final" 
d="M1792 0q-153 13 -236 114q-66 -114 -303 -114h-709q-120 0 -196 26q-180 60 -263 234q-84 173 -18 350h123q-77 -203 8 -378q91 -187 306 -187h749q138 0 189 38q88 69 76 153q-21 138 -128 231q-108 93 -250 93q-96 0 -208 -57q-113 -58 -157 -129q130 235 365 235
q161 0 283 -106q120 -105 143 -263q11 -76 77 -132q65 -58 149 -63v-45z" />
    <glyph glyph-name="afii57450" unicode="&#x64a;" horiz-adv-x="1643" arabic-form="isolated" 
d="M91 181q-90 119 -90 275q0 81 27 153h123q-34 -89 -34 -185q0 -159 88 -265q96 -115 260 -115l854 -2q122 0 188 41q84 52 84 115q0 59 -75 110q-76 51 -167 51q-310 0 -462 1q-177 2 -263 172q-22 41 -22 90q0 117 116 194q89 59 323 70q294 12 378 163q3 -8 -44 -79
q-56 -86 -120 -133q-86 -64 -266 -64l-150 1q-70 -2 -131 -49q-62 -49 -62 -104q0 -75 94 -127q71 -39 153 -48l269 2q153 0 223 -13q123 -22 192 -94q65 -68 65 -145q0 -62 -41 -111q-43 -50 -114 -69q-57 -16 -170 -16h-822q-114 0 -186 25q-134 46 -218 156zM925 -106
q-26 -25 -26 -62t26 -63q25 -25 62 -25t62 25q26 26 26 63t-26 62q-25 26 -62 26t-62 -26zM712 -106q-26 -25 -26 -62t26 -63q25 -25 62 -25t62 25q26 26 26 63t-26 62q-25 26 -62 26t-62 -26z" />
    <glyph glyph-name="uniFEF2" unicode="&#x64a;" horiz-adv-x="1754" arabic-form="final" 
d="M1087 -106q26 -25 26 -62t-26 -63q-25 -25 -62 -25t-62 25q-26 26 -26 63t26 62q25 26 62 26t62 -26zM874 -106q26 -25 26 -62t-26 -63q-25 -25 -62 -25t-62 25q-26 26 -26 63t26 62q25 26 62 26t62 -26zM1792 0q-153 13 -236 114q-66 -114 -303 -114h-709
q-120 0 -196 26q-180 60 -263 234q-84 173 -18 350h123q-77 -203 8 -378q91 -187 306 -187h749q138 0 189 38q88 69 76 153q-21 138 -128 231q-108 93 -250 93q-96 0 -208 -57q-113 -58 -157 -129q130 235 365 235q161 0 283 -106q120 -105 143 -263q11 -76 77 -132
q65 -58 149 -63v-45z" />
    <glyph glyph-name="uniFEF3" unicode="&#x64a;" horiz-adv-x="420" arabic-form="initial" 
d="M0 45q59 1 118 38q115 72 115 314v380q0 85 -63 85q-26 0 -32 2q-5 1 -5 8q0 5 6 8l262 2q19 0 19 -10q0 -6 -12 -8q-27 -4 -28 -5q-40 -10 -40 -61v-241q0 -269 -39 -366q-69 -172 -301 -191v45zM254 -106q-26 -25 -26 -62t26 -63q25 -25 62 -25t62 25q26 26 26 63
t-26 62q-25 26 -62 26t-62 -26zM41 -106q-26 -25 -26 -62t26 -63q25 -25 62 -25t62 25q26 26 26 63t-26 62q-25 26 -62 26t-62 -26z" />
    <glyph glyph-name="uniFEF4" unicode="&#x64a;" horiz-adv-x="572" arabic-form="medial" 
d="M338 397q0 -116 17 -178q26 -91 98 -136q56 -36 119 -38v-45q-209 16 -287 159q-75 -143 -285 -159v45q227 11 232 355v376q0 43 -10 61q-14 25 -52 25q-37 0 -37 10t19 10h268q19 0 19 -10t-37 -10q-62 0 -62 -74zM455 -106q26 -25 26 -62t-26 -63q-25 -25 -62 -25
t-62 25q-26 26 -26 63t26 62q25 26 62 26t62 -26zM242 -106q26 -25 26 -62t-26 -63q-25 -25 -62 -25t-62 25q-26 26 -26 63t26 62q25 26 62 26t62 -26z" />
    <glyph glyph-name="afii57451" unicode="&#xfe70;" horiz-adv-x="0" arabic-form="isolated" 
d="M-14 179q-62 -14 -88 -22q-102 -30 -142 -78q-7 -7 -13 -7q-4 0 -4 5q86 94 183 123q31 10 85 24q66 16 86 22q100 29 144 77q8 9 12 9t4 -5q-87 -94 -182 -125q-29 -9 -85 -23zM-14 107q-62 -14 -88 -22q-102 -30 -142 -78q-7 -7 -13 -7q-4 0 -4 5q86 94 183 123
q31 10 85 24q66 16 86 22q100 29 144 77q8 9 12 9t4 -5q-87 -94 -182 -125q-29 -9 -85 -23z" />
    <glyph glyph-name="afii57452" unicode="&#xfe72;" horiz-adv-x="0" arabic-form="isolated" 
d="M162 165q0 -64 -60 -115q-60 -50 -133 -50q-84 0 -84 82q0 22 5 41q2 9 19 50q15 36 15 50q0 27 -18 45q34 -27 34 -64q0 -18 -11 -52q-12 -36 -13 -51q0 -83 61 -83q50 0 99 46q55 52 55 120q0 23 -13 39q-15 18 -41 18q-27 0 -46 -26q-19 -25 -19 -55q0 -56 60 -63
q2 0 2 -2q0 -6 -11 -6q-42 0 -65 25q-19 21 -19 50q0 35 26 62q26 29 64 29q27 0 52 -15q41 -25 41 -75z" />
    <glyph glyph-name="afii57453" unicode="&#xfe74;" horiz-adv-x="0" arabic-form="isolated" 
d="M-14 -153q-62 -14 -88 -22q-102 -30 -142 -78q-7 -7 -13 -7q-4 0 -4 5q86 94 183 123q31 10 85 24q66 16 86 22q100 29 144 77q8 9 12 9t4 -5q-87 -94 -182 -125q-29 -9 -85 -23zM-14 -225q-62 -14 -88 -22q-102 -30 -142 -78q-7 -7 -13 -7q-4 0 -4 5q86 94 183 123
q31 10 85 24q66 16 86 22q100 29 144 77q8 9 12 9t4 -5q-87 -94 -182 -125q-29 -9 -85 -23z" />
    <glyph glyph-name="afii57454" unicode="&#xfe76;" horiz-adv-x="0" arabic-form="isolated" 
d="M-14 107q-62 -14 -88 -22q-102 -30 -142 -78q-7 -7 -13 -7q-4 0 -4 5q86 94 183 123q31 10 85 24q66 16 86 22q100 29 144 77q8 9 12 9t4 -5q-87 -94 -182 -125q-29 -9 -85 -23z" />
    <glyph glyph-name="afii57455" unicode="&#xfe78;" horiz-adv-x="0" arabic-form="isolated" 
d="M107 173q0 -53 -52 -105q-49 -49 -162 -68q-39 0 -39 8q78 2 125 35q96 68 96 154q-9 45 -51 55q-32 0 -52 -29q-17 -25 -17 -55q0 -39 41 -57q11 -5 16 -3q4 0 6 -1q0 -6 -20 -6q-36 0 -59 30q-17 23 -17 45q0 36 26 63q27 27 62 27q25 0 55 -14q42 -28 42 -79z" />
    <glyph glyph-name="afii57456" unicode="&#xfe7a;" horiz-adv-x="0" arabic-form="isolated" 
d="M-14 -153q-62 -14 -88 -22q-102 -30 -142 -78q-7 -7 -13 -7q-4 0 -4 5q86 94 183 123q31 10 85 24q66 16 86 22q100 29 144 77q8 9 12 9t4 -5q-87 -94 -182 -125q-29 -9 -85 -23z" />
    <glyph glyph-name="afii57457" unicode="&#xfe7c;" horiz-adv-x="0" arabic-form="isolated" 
d="M6 79q-24 -79 -80 -79q-42 0 -63 40q-17 32 -17 78q0 9 6 78q15 10 17 12q0 -173 65 -173q23 0 43 21q21 21 21 47q0 13 -7 42q-7 30 -7 42q0 19 12 27q8 -48 28 -91q27 -60 60 -60q47 0 47 77q0 43 -16 74q-15 31 -37 31q-19 0 -31 -45q-3 9 -3 21q0 46 32 46
q37 0 58 -41q19 -35 19 -79q0 -48 -20 -82q-21 -37 -57 -37q-12 0 -21 4q-30 10 -49 47z" />
    <glyph glyph-name="afii57458" unicode="&#xfe7e;" horiz-adv-x="0" arabic-form="isolated" 
d="M59 43q-40 -43 -82 -43q-45 0 -45 49q0 38 40 80q41 43 81 43q45 0 45 -41q0 -45 -39 -88zM58 153q-36 0 -70 -37q-31 -35 -31 -67q0 -31 35 -31q22 0 54 38q33 38 33 67q0 30 -21 30z" />
    <glyph glyph-name="uni06CC" unicode="&#x6cc;" horiz-adv-x="1642" arabic-form="isolated" 
d="M91 181q-90 119 -90 275q0 81 27 153h123q-34 -89 -34 -185q0 -159 88 -265q96 -115 260 -115l854 -2q122 0 188 41q84 52 84 115q0 59 -75 110q-76 51 -167 51q-310 0 -462 1q-177 2 -263 172q-22 41 -22 90q0 117 116 194q89 59 323 70q294 12 378 163q3 -8 -44 -79
q-56 -86 -120 -133q-86 -64 -266 -64l-150 1q-70 -2 -131 -49q-62 -49 -62 -104q0 -77 94 -130q79 -45 153 -45l269 2q153 0 223 -13q123 -22 192 -94q65 -68 65 -145q0 -62 -41 -111q-43 -50 -114 -69q-57 -16 -170 -16h-822q-114 0 -186 25q-134 46 -218 156z" />
    <glyph glyph-name="uniFBFD" unicode="&#x6cc;" horiz-adv-x="1754" arabic-form="final" 
d="M1792 0q-153 13 -236 114q-66 -114 -303 -114h-709q-120 0 -196 26q-180 60 -263 234q-84 173 -18 350h123q-77 -203 8 -378q91 -187 306 -187h749q138 0 189 38q88 69 76 153q-21 138 -128 231q-108 93 -250 93q-96 0 -208 -57q-113 -58 -157 -129q130 235 365 235
q161 0 283 -106q120 -105 143 -263q11 -76 77 -132q65 -58 149 -63v-45z" />
    <glyph glyph-name="uniFBFE" unicode="&#x6cc;" horiz-adv-x="420" arabic-form="initial" 
d="M0 45q59 1 118 38q115 72 115 314v380q0 85 -63 85q-26 0 -32 2q-5 1 -5 8q0 5 6 8l262 2q19 0 19 -10q0 -6 -12 -8q-27 -4 -28 -5q-40 -10 -40 -61v-241q0 -269 -39 -366q-69 -172 -301 -191v45zM254 -106q-26 -25 -26 -62t26 -63q25 -25 62 -25t62 25q26 26 26 63
t-26 62q-25 26 -62 26t-62 -26zM41 -106q-26 -25 -26 -62t26 -63q25 -25 62 -25t62 25q26 26 26 63t-26 62q-25 26 -62 26t-62 -26z" />
    <glyph glyph-name="uniFBFF" unicode="&#x6cc;" horiz-adv-x="572" arabic-form="medial" 
d="M338 397q0 -116 17 -178q26 -91 98 -136q56 -36 119 -38v-45q-209 16 -287 159q-75 -143 -285 -159v45q227 11 232 355v376q0 43 -10 61q-14 25 -52 25q-37 0 -37 10t19 10h268q19 0 19 -10t-37 -10q-62 0 -62 -74zM455 -106q26 -25 26 -62t-26 -63q-25 -25 -62 -25
t-62 25q-26 26 -26 63t26 62q25 26 62 26t62 -26zM242 -106q26 -25 26 -62t-26 -63q-25 -25 -62 -25t-62 25q-26 26 -26 63t26 62q25 26 62 26t62 -26z" />
    <glyph glyph-name="uniFC5E" unicode="&#xfc5e;" horiz-adv-x="0" arabic-form="isolated" 
d="M76 28q36 0 57 37q20 34 20 82q0 44 -19 79q-21 41 -58 41q-32 0 -32 -46q0 -12 3 -21q12 45 31 45q22 0 37 -31q16 -31 16 -74q0 -77 -47 -77q-33 0 -60 60q-20 43 -28 91q-12 -8 -12 -27q0 -12 7 -42q7 -29 7 -42q0 -26 -21 -47q-20 -21 -43 -21q-65 0 -65 173
q-2 -2 -17 -12q-6 -69 -6 -78q0 -46 17 -78q21 -40 63 -40q56 0 80 79q19 -37 49 -47q9 -4 21 -4zM124 430q0 -64 -60 -115q-60 -50 -133 -50q-84 0 -84 82q0 22 5 41q2 9 19 50q15 36 15 50q0 27 -18 45q34 -27 34 -64q0 -18 -11 -52q-12 -36 -13 -51q0 -83 61 -83
q50 0 99 46q55 52 55 120q0 23 -13 39q-15 18 -41 18q-27 0 -46 -26q-19 -25 -19 -55q0 -56 60 -63q2 0 2 -2q0 -6 -11 -6q-42 0 -65 25q-19 21 -19 50q0 35 26 62q26 29 64 29q27 0 52 -15q41 -25 41 -75z" />
    <glyph glyph-name="uniFC5F" unicode="&#xfc5f;" horiz-adv-x="0" arabic-form="isolated" 
d="M-14 179q-62 -14 -88 -22q-102 -30 -142 -78q-7 -7 -13 -7q-4 0 -4 5q86 94 183 123q31 10 85 24q66 16 86 22q100 29 144 77q8 9 12 9t4 -5q-87 -94 -182 -125q-29 -9 -85 -23zM-14 107q-62 -14 -88 -22q-102 -30 -142 -78q-7 -7 -13 -7q-4 0 -4 5q86 94 183 123
q31 10 85 24q66 16 86 22q100 29 144 77q8 9 12 9t4 -5q-87 -94 -182 -125q-29 -9 -85 -23zM6 318q-24 -79 -80 -79q-42 0 -63 40q-17 32 -17 78q0 9 6 78q15 10 17 12q0 -173 65 -173q23 0 43 21q21 21 21 47q0 13 -7 42q-7 30 -7 42q0 19 12 27q8 -48 28 -91
q27 -60 60 -60q47 0 47 77q0 43 -16 74q-15 31 -37 31q-19 0 -31 -45q-3 9 -3 21q0 46 32 46q37 0 58 -41q19 -35 19 -79q0 -48 -20 -82q-21 -37 -57 -37q-12 0 -21 4q-30 10 -49 47z" />
    <glyph glyph-name="uniFC60" unicode="&#xfc60;" horiz-adv-x="0" arabic-form="isolated" 
d="M76 28q36 0 57 37q20 34 20 82q0 44 -19 79q-21 41 -58 41q-32 0 -32 -46q0 -12 3 -21q12 45 31 45q22 0 37 -31q16 -31 16 -74q0 -77 -47 -77q-33 0 -60 60q-20 43 -28 91q-12 -8 -12 -27q0 -12 7 -42q7 -29 7 -42q0 -26 -21 -47q-20 -21 -43 -21q-65 0 -65 173
q-2 -2 -17 -12q-6 -69 -6 -78q0 -46 17 -78q21 -40 63 -40q56 0 80 79q19 -37 49 -47q9 -4 21 -4zM-14 303q-62 -14 -88 -22q-102 -30 -142 -78q-7 -7 -13 -7q-4 0 -4 5q86 94 183 123q31 10 85 24q66 16 86 22q100 29 144 77q8 9 12 9t4 -5q-87 -94 -182 -125
q-29 -9 -85 -23z" />
    <glyph glyph-name="uniFC61" unicode="&#xfc61;" horiz-adv-x="0" arabic-form="isolated" 
d="M76 28q36 0 57 37q20 34 20 82q0 44 -19 79q-21 41 -58 41q-32 0 -32 -46q0 -12 3 -21q12 45 31 45q22 0 37 -31q16 -31 16 -74q0 -77 -47 -77q-33 0 -60 60q-20 43 -28 91q-12 -8 -12 -27q0 -12 7 -42q7 -29 7 -42q0 -26 -21 -47q-20 -21 -43 -21q-65 0 -65 173
q-2 -2 -17 -12q-6 -69 -6 -78q0 -46 17 -78q21 -40 63 -40q56 0 80 79q19 -37 49 -47q9 -4 21 -4zM107 424q0 -53 -52 -105q-49 -49 -162 -68q-39 0 -39 8q78 2 125 35q96 68 96 154q-9 45 -51 55q-32 0 -52 -29q-17 -25 -17 -55q0 -39 41 -57q11 -5 16 -3q4 0 6 -1
q0 -6 -20 -6q-36 0 -59 30q-17 23 -17 45q0 36 26 63q27 27 62 27q25 0 55 -14q42 -28 42 -79z" />
    <glyph glyph-name="uniFC62" unicode="&#xfc62;" horiz-adv-x="0" arabic-form="isolated" 
d="M-14 107q-62 -14 -88 -22q-102 -30 -142 -78q-7 -7 -13 -7q-4 0 -4 5q86 94 183 123q31 10 85 24q66 16 86 22q100 29 144 77q8 9 12 9t4 -5q-87 -94 -182 -125q-29 -9 -85 -23zM6 246q-24 -79 -80 -79q-42 0 -63 40q-17 32 -17 78q0 9 6 78q15 10 17 12q0 -173 65 -173
q23 0 43 21q21 21 21 47q0 13 -7 42q-7 30 -7 42q0 19 12 27q8 -48 28 -91q27 -60 60 -60q47 0 47 77q0 43 -16 74q-15 31 -37 31q-19 0 -31 -45q-3 9 -3 21q0 46 32 46q37 0 58 -41q19 -35 19 -79q0 -48 -20 -82q-21 -37 -57 -37q-12 0 -21 4q-30 10 -49 47z" />
    <glyph glyph-name="uniFDF2" unicode="&#xfdf2;" horiz-adv-x="2150" arabic-form="isolated" 
d="M1391 396l-1 834q0 50 -3 63q-6 31 -33 46q-2 1 -35 3q-28 2 -28 12q0 9 19 9h267q19 0 19 -9t-9 -9q-62 0 -78 -24q-12 -19 -12 -91v-834q0 -150 37 -231q55 -121 196 -121t196 121q37 81 37 231v311q0 512 -1 523q0 60 -5 77q-7 26 -35 33q-58 17 -58 14q0 9 19 9h249
q18 0 18 -9t-9 -9q-45 0 -59 -19q-12 -17 -12 -68v-613q0 -341 -26 -429q-63 -215 -314 -216q-203 0 -286 160q-85 -161 -287 -160q-103 1 -181 59q-82 61 -112 166q-143 -216 -407 -225q-224 8 -348 148q-109 121 -109 294q0 48 12 96q31 125 118 215q127 130 333 130
q197 0 325 -110q135 -116 135 -312q0 -192 24 -265q48 -149 210 -152q234 -3 234 352zM226 163q103 -116 263 -116q136 0 221 91q95 102 95 290q0 193 -107 309q-98 105 -241 105q-153 0 -243 -94q-93 -98 -93 -275q0 -191 105 -310zM1534 1443q36 0 57 37q20 34 20 82
q0 44 -19 79q-21 41 -58 41q-32 0 -32 -46q0 -12 3 -21q12 45 31 45q22 0 37 -31q16 -31 16 -74q0 -77 -47 -77q-33 0 -60 60q-20 43 -28 91q-12 -8 -12 -27q0 -12 7 -42q7 -29 7 -42q0 -26 -21 -47q-20 -21 -43 -21q-65 0 -65 173q-2 -2 -17 -12q-6 -69 -6 -78
q0 -46 17 -78q21 -40 63 -40q56 0 80 79q19 -37 49 -47q9 -4 21 -4zM1444 1718q-62 -14 -88 -22q-102 -30 -142 -78q-7 -7 -13 -7q-4 0 -4 5q86 94 183 123q31 10 85 24q66 16 86 22q100 29 144 77q8 9 12 9t4 -5q-87 -94 -182 -125q-29 -9 -85 -23zM1011 1382q8 64 10 90
q8 106 -23 160q-4 9 -2 15q0 4 6 2q58 -114 51 -215q-1 -32 -7 -88l-10 -88q-7 -104 22 -162q6 -11 5 -14q-2 -4 -7 -2q-58 113 -53 214q1 30 8 88z" />
    <glyph glyph-name="uni0671" unicode="&#x671;" horiz-adv-x="400" arabic-form="isolated" 
d="M193 1279q-1 37 -18 51q-15 13 -52 14q-9 0 -9 6q0 12 18 12h249q18 0 18 -12q0 -6 -9 -6q-45 -1 -61 -10q-24 -13 -26 -55q-4 -72 -2 -1145q0 -77 19 -98q15 -16 70 -17q9 -1 9 -7q0 -12 -18 -12h-249q-18 0 -18 12q0 6 9 7q43 1 58 22q11 17 13 65z" />
    <glyph glyph-name="uniFB51" unicode="&#x671;" horiz-adv-x="523" arabic-form="final" 
d="M523 0q-222 18 -294 176q-46 100 -46 342v712q0 86 -18 102q-4 3 -35 10q-27 6 -27 12q0 9 18 9h249q19 0 19 -9t-10 -9q-51 0 -70 -15q-17 -14 -17 -50l-2 -884q0 -147 37 -225q54 -117 196 -127v-44z" />
    <glyph glyph-name="afii57506" unicode="&#x67e;" horiz-adv-x="1692" arabic-form="isolated" 
d="M1267 45q59 1 118 38q115 72 115 314v379q0 43 -4 55q-9 29 -45 29q-49 0 -49 12q0 6 4 8l262 2q21 0 21 -9q-1 -9 -23 -9h-13q-24 -1 -33 -12q-11 -15 -11 -54l-2 -241q0 -269 -39 -366q-69 -172 -301 -191h-824q-181 10 -306 128q-137 128 -137 329q0 82 28 153h123
q-33 -84 -33 -187q0 -157 76 -259q87 -119 249 -119h824zM777 -409q-26 25 -26 62t26 63q25 25 62 25q36 0 62 -25q26 -26 26 -63q0 -36 -26 -62t-62 -26q-37 0 -62 26zM886 -231q-26 26 -26 63t26 62q25 26 62 26t62 -26q26 -25 26 -62t-26 -63q-25 -25 -62 -25t-62 25z
M662 -231q-26 26 -26 63q0 36 26 62t62 26q37 0 63 -26q26 -25 26 -62t-26 -63q-25 -25 -63 -25q-36 0 -62 25z" />
    <glyph glyph-name="uniFB57" unicode="&#x67e;" horiz-adv-x="1840" arabic-form="final" 
d="M1267 45q64 3 119 38q114 71 114 314v379q0 45 -11 63q-13 23 -50 23t-37 10t18 10h267q18 0 18 -10q0 -13 -26 -13l-23 1q-49 0 -49 -92v-371q0 -114 17 -176q26 -93 98 -138q57 -37 118 -38v-45q-211 16 -286 159q-75 -143 -287 -159h-823q-179 0 -308 127
q-136 132 -136 333q0 77 28 150h123q-32 -85 -32 -187q0 -157 76 -260q87 -118 249 -118h823zM777 -409q-26 25 -26 62t26 63q25 25 62 25q36 0 62 -25q26 -26 26 -63q0 -36 -26 -62t-62 -26q-37 0 -62 26zM886 -231q-26 26 -26 63t26 62q25 26 62 26t62 -26q26 -25 26 -62
t-26 -63q-25 -25 -62 -25t-62 25zM662 -231q-26 26 -26 63q0 36 26 62t62 26q37 0 63 -26q26 -25 26 -62t-26 -63q-25 -25 -63 -25q-36 0 -62 25z" />
    <glyph glyph-name="uniFB58" unicode="&#x67e;" horiz-adv-x="482" arabic-form="initial" 
d="M0 45q59 1 118 38q115 72 115 314v380q0 85 -63 85q-26 0 -32 2q-5 1 -5 8q0 5 6 8l262 2q19 0 19 -10q0 -6 -12 -8q-27 -4 -28 -5q-40 -10 -40 -61v-241q0 -269 -39 -366q-69 -172 -301 -191v45zM223 -409q-26 25 -26 62t26 63q25 25 62 25q36 0 62 -25q26 -26 26 -63
q0 -36 -26 -62t-62 -26q-37 0 -62 26zM332 -231q-26 26 -26 63t26 62q25 26 62 26t62 -26q26 -25 26 -62t-26 -63q-25 -25 -62 -25t-62 25zM108 -231q-26 26 -26 63q0 36 26 62t62 26q37 0 63 -26q26 -25 26 -62t-26 -63q-25 -25 -63 -25q-36 0 -62 25z" />
    <glyph glyph-name="uniFB59" unicode="&#x67e;" horiz-adv-x="572" arabic-form="medial" 
d="M338 397q0 -116 17 -178q26 -91 98 -136q56 -36 119 -38v-45q-209 16 -287 159q-75 -143 -285 -159v45q227 11 232 355v376q0 43 -10 61q-14 25 -52 25q-37 0 -37 10t19 10h268q19 0 19 -10t-37 -10q-62 0 -62 -74zM223 -409q-26 25 -26 62t26 63q25 25 62 25
q36 0 62 -25q26 -26 26 -63q0 -36 -26 -62t-62 -26q-37 0 -62 26zM332 -231q-26 26 -26 63t26 62q25 26 62 26t62 -26q26 -25 26 -62t-26 -63q-25 -25 -62 -25t-62 25zM108 -231q-26 26 -26 63q0 36 26 62t62 26q37 0 63 -26q26 -25 26 -62t-26 -63q-25 -25 -63 -25
q-36 0 -62 25z" />
    <glyph glyph-name="afii57511" unicode="&#x679;" horiz-adv-x="1692" arabic-form="isolated" 
d="M1267 45q59 1 118 38q115 72 115 314v379q0 43 -4 55q-9 29 -45 29q-49 0 -49 12q0 6 4 8l262 2q21 0 21 -9q-1 -9 -23 -9h-13q-24 -1 -33 -12q-11 -15 -11 -54l-2 -241q0 -269 -39 -366q-69 -172 -301 -191h-824q-181 10 -306 128q-137 128 -137 329q0 82 28 153h123
q-33 -84 -33 -187q0 -157 76 -259q87 -119 249 -119h824zM678 1012v10h52q1 20 1 118l-1 154q-1 14 -19 14q-2 0 -2 1q0 3 4 3h55q4 0 4 -3q-1 -1 -2 -1q-15 0 -16 -14v-119q29 31 54 31h104l11 -1q38 -3 62 -28q25 -25 26 -64q0 -42 -28 -71q-28 -30 -69 -30h-236z
M912 1022q34 0 54 24q19 23 19 59q0 35 -17 61q-19 30 -50 30h-110q-47 0 -54 -71v-103h158z" />
    <glyph glyph-name="uniFB67" unicode="&#x679;" horiz-adv-x="1840" arabic-form="final" 
d="M444 45q-162 0 -249 118q-76 103 -76 260q0 102 32 187h-123q-28 -73 -28 -150q0 -201 136 -333q129 -127 308 -127h823q212 16 287 159q75 -143 286 -159v45q-61 1 -118 38q-115 72 -115 314v371q0 92 49 92l23 -1q26 0 26 13q0 10 -18 10h-267q-18 0 -18 -10t37 -10
t50 -23q11 -18 11 -63v-379q0 -114 -17 -176q-26 -94 -97 -138q-55 -35 -119 -38h-823zM678 1012v10h52q1 20 1 118l-1 154q-1 14 -19 14q-2 0 -2 1q0 3 4 3h55q4 0 4 -3q-1 -1 -2 -1q-15 0 -16 -14v-119q29 31 54 31h104l11 -1q38 -3 62 -28q25 -25 26 -64q0 -42 -28 -71
q-28 -30 -69 -30h-236zM912 1022q34 0 54 24q19 23 19 59q0 35 -17 61q-19 30 -50 30h-110q-47 0 -54 -71v-103h158z" />
    <glyph glyph-name="uniFB68" unicode="&#x679;" horiz-adv-x="465" arabic-form="initial" 
d="M0 45q59 1 118 38q115 72 115 314v380q0 85 -63 85q-26 0 -32 2q-5 1 -5 8q0 5 6 8l262 2q19 0 19 -10q0 -6 -12 -8q-27 -4 -28 -5q-40 -10 -40 -61v-241q0 -269 -39 -366q-69 -172 -301 -191v45zM132 1012v10h52q1 20 1 118l-1 154q-1 14 -19 14q-2 0 -2 1q0 3 4 3h55
q4 0 4 -3q-1 -1 -2 -1q-15 0 -16 -14v-119q29 31 54 31h104l11 -1q38 -3 62 -28q25 -25 26 -64q0 -42 -28 -71q-28 -30 -69 -30h-236zM366 1022q34 0 54 24q19 23 19 59q0 35 -17 61q-19 30 -50 30h-110q-47 0 -54 -71v-103h158z" />
    <glyph glyph-name="uniFB69" unicode="&#x679;" horiz-adv-x="572" arabic-form="medial" 
d="M340 788q0 74 62 74q37 0 37 10t-19 10h-268q-19 0 -19 -10t37 -10q38 0 52 -25q10 -18 10 -61v-376q-5 -344 -232 -355v-45q210 16 285 159q78 -143 287 -159v45q-63 2 -119 38q-72 45 -98 136q-17 62 -17 178zM132 1012v10h52q1 20 1 118l-1 154q-1 14 -19 14
q-2 0 -2 1q0 3 4 3h55q4 0 4 -3q-1 -1 -2 -1q-15 0 -16 -14v-119q29 31 54 31h104l11 -1q38 -3 62 -28q25 -25 26 -64q0 -42 -28 -71q-28 -30 -69 -30h-236zM366 1022q34 0 54 24q19 23 19 59q0 35 -17 61q-19 30 -50 30h-110q-47 0 -54 -71v-103h158z" />
    <glyph glyph-name="afii57505" unicode="&#x6a4;" horiz-adv-x="1700" arabic-form="isolated" 
d="M444 0q-181 0 -309 126q-135 132 -135 334q0 78 26 150h123q-32 -84 -32 -183q0 -158 76 -262q88 -120 251 -120h574q-121 60 -185 178q-56 101 -56 219q0 149 85 269q123 172 378 172q197 0 325 -110q135 -116 135 -312q0 -182 -116 -312q-124 -138 -324 -147v-2h-816z
M1013 151q102 -104 253 -104q136 0 221 90q95 102 95 291q0 182 -99 299q-98 115 -249 115q-153 0 -243 -94q-93 -98 -93 -275q0 -205 115 -322zM1194 1162q26 -25 26 -62t-26 -63q-25 -25 -62 -25q-36 0 -62 25q-26 26 -26 63q0 36 26 62t62 26q37 0 62 -26zM1409 1162
q26 -26 26 -62q0 -37 -26 -63q-26 -25 -62 -25q-37 0 -62 25q-26 26 -26 63t26 62q25 26 62 26q36 0 62 -26zM1301 1341q26 -25 26 -62t-26 -63q-25 -25 -62 -25q-36 0 -62 25q-26 26 -26 63q0 36 26 62t62 26q37 0 62 -26z" />
    <glyph glyph-name="uniFB6B" unicode="&#x6a4;" horiz-adv-x="1755" arabic-form="final" 
d="M1755 0h-1311q-181 0 -309 126q-135 132 -135 334q0 78 26 150h123q-32 -84 -32 -183q0 -158 76 -262q88 -120 251 -120h575q-122 61 -186 178q-55 101 -55 219q0 159 99 283q127 158 363 158q199 0 327 -110q134 -117 134 -312q0 -130 -65 -243q-71 -123 -193 -173h312
v-45zM1014 152q102 -105 253 -105q141 0 225 95q90 102 90 286q0 188 -102 304q-98 110 -246 110q-153 0 -243 -95q-93 -98 -93 -274q0 -204 116 -321zM1194 1162q26 -25 26 -62t-26 -63q-25 -25 -62 -25q-36 0 -62 25q-26 26 -26 63q0 36 26 62t62 26q37 0 62 -26z
M1409 1162q26 -26 26 -62q0 -37 -26 -63q-26 -25 -62 -25q-37 0 -62 25q-26 26 -26 63t26 62q25 26 62 26q36 0 62 -26zM1301 1341q26 -25 26 -62t-26 -63q-25 -25 -62 -25q-36 0 -62 25q-26 26 -26 63q0 36 26 62t62 26q37 0 62 -26z" />
    <glyph glyph-name="uniFB6C" unicode="&#x6a4;" horiz-adv-x="966" arabic-form="initial" 
d="M0 45h284q-121 60 -185 178q-56 101 -56 219q0 48 12 96q28 115 103 200q127 145 348 145q197 0 325 -110q135 -116 135 -312q0 -182 -116 -312q-124 -138 -324 -147v-2h-526v45zM279 151q102 -104 253 -104q136 0 221 90q95 102 95 291q0 182 -99 299q-98 115 -249 115
q-153 0 -243 -94q-93 -98 -93 -275q0 -205 115 -322zM462 1162q26 -25 26 -62t-26 -63q-25 -25 -62 -25q-36 0 -62 25q-26 26 -26 63q0 36 26 62t62 26q37 0 62 -26zM677 1162q26 -26 26 -62q0 -37 -26 -63q-26 -25 -62 -25q-37 0 -62 25q-26 26 -26 63t26 62q25 26 62 26
q36 0 62 -26zM569 1341q26 -25 26 -62t-26 -63q-25 -25 -62 -25q-36 0 -62 25q-26 26 -26 63q0 36 26 62t62 26q37 0 62 -26z" />
    <glyph glyph-name="uniFB6D" unicode="&#x6a4;" horiz-adv-x="1477" arabic-form="medial" 
d="M379 721q129 162 361 162q197 0 325 -110q135 -116 135 -312q0 -133 -66 -244q-69 -118 -192 -172h535v-45h-1477v45h518q-122 61 -186 178q-55 101 -55 219q0 152 102 279zM510 154q103 -107 256 -107q135 0 220 90q96 102 96 291q0 187 -103 303q-99 111 -246 111
q-153 0 -242 -94q-93 -98 -93 -275q0 -202 112 -319zM696 1162q26 -25 26 -62t-26 -63q-25 -25 -62 -25q-36 0 -62 25q-26 26 -26 63q0 36 26 62t62 26q37 0 62 -26zM911 1162q26 -26 26 -62q0 -37 -26 -63q-26 -25 -62 -25q-37 0 -62 25q-26 26 -26 63t26 62q25 26 62 26
q36 0 62 -26zM803 1341q26 -25 26 -62t-26 -63q-25 -25 -62 -25q-36 0 -62 25q-26 26 -26 63q0 36 26 62t62 26q37 0 62 -26z" />
    <glyph glyph-name="afii57507" unicode="&#x686;" horiz-adv-x="1368" arabic-form="isolated" 
d="M0 -250q24 121 117 206q96 89 215 89h708q107 0 173 111q59 97 59 224q0 79 -39 142q-46 73 -123 76h-517q-213 0 -332 38q-193 63 -236 236q79 -138 325 -156q99 -7 648 -7q153 0 262 -104q108 -105 108 -249t-86 -249q-87 -107 -215 -107h-700q-114 0 -189 -69
t-88 -181h-90zM618 -409q-26 25 -26 62t26 63q25 25 62 25q36 0 62 -25q26 -26 26 -63q0 -36 -26 -62t-62 -26q-37 0 -62 26zM727 -231q-26 26 -26 63t26 62q25 26 62 26t62 -26q26 -25 26 -62t-26 -63q-25 -25 -62 -25t-62 25zM503 -231q-26 26 -26 63q0 36 26 62t62 26
q37 0 63 -26q26 -25 26 -62t-26 -63q-25 -25 -63 -25q-36 0 -62 25z" />
    <glyph glyph-name="uniFB7B" unicode="&#x686;" horiz-adv-x="1602" arabic-form="final" 
d="M0 -250q26 122 117 206q96 89 215 89h709q108 0 174 110q59 97 59 223q0 81 -39 143q-46 74 -125 77h-514q-241 0 -319 20q-103 26 -175 123l-75 131q78 -138 324 -156q98 -7 647 -7q161 0 263 -81q107 -84 107 -227q0 -149 37 -229q55 -120 197 -127v-45
q-202 17 -279 178q-99 -178 -256 -178h-698q-110 0 -182 -67q-72 -65 -96 -183h-91zM618 -409q-26 25 -26 62t26 63q25 25 62 25q36 0 62 -25q26 -26 26 -63q0 -36 -26 -62t-62 -26q-37 0 -62 26zM727 -231q-26 26 -26 63t26 62q25 26 62 26t62 -26q26 -25 26 -62t-26 -63
q-25 -25 -62 -25t-62 25zM503 -231q-26 26 -26 63q0 36 26 62t62 26q37 0 63 -26q26 -25 26 -62t-26 -63q-25 -25 -63 -25q-36 0 -62 25z" />
    <glyph glyph-name="uniFB7C" unicode="&#x686;" horiz-adv-x="1374" arabic-form="initial" 
d="M947 601l-348 -3q-213 0 -353 45q-212 68 -215 229q79 -138 325 -156q96 -7 648 -7q152 0 261 -104t109 -249t-85 -249q-87 -107 -216 -107h-1073v45h1046q108 0 174 110q58 97 58 224q0 79 -39 142q-46 74 -123 77q-85 3 -169 3zM618 -409q-26 25 -26 62t26 63
q25 25 62 25q36 0 62 -25q26 -26 26 -63q0 -36 -26 -62t-62 -26q-37 0 -62 26zM727 -231q-26 26 -26 63t26 62q25 26 62 26t62 -26q26 -25 26 -62t-26 -63q-25 -25 -62 -25t-62 25zM503 -231q-26 26 -26 63q0 36 26 62t62 26q37 0 63 -26q26 -25 26 -62t-26 -63
q-25 -25 -63 -25q-36 0 -62 25z" />
    <glyph glyph-name="uniFB7D" unicode="&#x686;" horiz-adv-x="1606" arabic-form="medial" 
d="M618 -409q-26 25 -26 62t26 63q25 25 62 25q36 0 62 -25q26 -26 26 -63q0 -36 -26 -62t-62 -26q-37 0 -62 26zM727 -231q-26 26 -26 63t26 62q25 26 62 26t62 -26q26 -25 26 -62t-26 -63q-25 -25 -62 -25t-62 25zM503 -231q-26 26 -26 63q0 36 26 62t62 26q37 0 63 -26
q26 -25 26 -62t-26 -63q-25 -25 -63 -25q-36 0 -62 25zM1422 148q60 -97 184 -103v-45q-203 17 -277 178q-99 -178 -256 -178h-1073v45h1047q106 0 173 110q58 97 58 223q0 84 -40 145q-45 69 -122 75q-85 3 -169 3q-560 0 -664 17q-103 26 -175 123q-23 30 -47 75
q-30 55 -30 56q80 -138 326 -156q98 -7 647 -7q147 0 256 -108q110 -108 112 -255q2 -121 50 -198z" />
    <glyph glyph-name="afii57512" unicode="&#x688;" horiz-adv-x="675" arabic-form="isolated" 
d="M103 72q61 -26 136 -26q159 0 245 119q74 103 74 257q0 185 -100 302q-101 117 -257 117q-50 0 -98 -13v43q51 11 113 11q209 0 337 -127q122 -120 122 -299q0 -207 -146 -336q-135 -120 -324 -120q-53 0 -102 10v62zM104 1012v10h52q1 20 1 118l-1 154q-1 14 -19 14
q-2 0 -2 1q0 3 4 3h55q4 0 4 -3q-1 -1 -2 -1q-15 0 -16 -14v-119q29 31 54 31h104l11 -1q38 -3 62 -28q25 -25 26 -64q0 -42 -28 -71q-28 -30 -69 -30h-236zM338 1022q34 0 54 24q19 23 19 59q0 35 -17 61q-19 30 -50 30h-110q-47 0 -54 -71v-103h158z" />
    <glyph glyph-name="uniFB89" unicode="&#x688;" horiz-adv-x="910" arabic-form="final" 
d="M103 72q64 -26 137 -26q158 0 244 120q74 103 74 259q0 184 -101 300q-100 116 -256 116q-50 0 -98 -13v43q51 11 113 11q211 0 339 -126q122 -120 122 -300q0 -20 -1 -30q0 -132 13 -190q24 -106 102 -154q53 -34 119 -37v-45q-105 8 -182 63q-84 59 -113 162
q-62 -107 -174 -166q-108 -58 -237 -58q-50 0 -101 9v62zM104 1012v10h52q1 20 1 118l-1 154q-1 14 -19 14q-2 0 -2 1q0 3 4 3h55q4 0 4 -3q-1 -1 -2 -1q-15 0 -16 -14v-119q29 31 54 31h104l11 -1q38 -3 62 -28q25 -25 26 -64q0 -42 -28 -71q-28 -30 -69 -30h-236z
M338 1022q34 0 54 24q19 23 19 59q0 35 -17 61q-19 30 -50 30h-110q-47 0 -54 -71v-103h158z" />
    <glyph glyph-name="afii57508" unicode="&#x698;" horiz-adv-x="418" arabic-form="isolated" 
d="M275 308q0 -221 -19 -293q-49 -189 -254 -256q101 81 130 153q36 92 36 318q0 191 1 372l1 172q0 86 -51 86q-49 25 -49 13q0 6 4 8l262 2q18 0 18 -9q0 -10 -12 -10q-68 0 -68 -88zM177 1162q26 -25 26 -62t-26 -63q-25 -25 -62 -25q-36 0 -62 25q-26 26 -26 63
q0 36 26 62t62 26q37 0 62 -26zM392 1162q26 -26 26 -62q0 -37 -26 -63q-26 -25 -62 -25q-37 0 -62 25q-26 26 -26 63t26 62q25 26 62 26q36 0 62 -26zM284 1341q26 -25 26 -62t-26 -63q-25 -25 -62 -25q-36 0 -62 25q-26 26 -26 63q0 36 26 62t62 26q37 0 62 -26z" />
    <glyph glyph-name="uniFB8B" unicode="&#x698;" horiz-adv-x="506" arabic-form="final" 
d="M274 342q11 -286 232 -297v-45q-156 13 -236 115q1 -9 1 -27q0 -116 -78 -205q-71 -79 -193 -124q113 109 130 146q38 84 38 325l-1 566q0 65 -56 65l-21 -2q-22 0 -22 15q0 4 6 7l262 2q18 0 18 -10q0 -8 -9 -9l-30 -4q-41 -9 -41 -61v-457zM177 1162q26 -25 26 -62
t-26 -63q-25 -25 -62 -25q-36 0 -62 25q-26 26 -26 63q0 36 26 62t62 26q37 0 62 -26zM392 1162q26 -26 26 -62q0 -37 -26 -63q-26 -25 -62 -25q-37 0 -62 25q-26 26 -26 63t26 62q25 26 62 26q36 0 62 -26zM284 1341q26 -25 26 -62t-26 -63q-25 -25 -62 -25q-36 0 -62 25
q-26 26 -26 63q0 36 26 62t62 26q37 0 62 -26z" />
    <glyph glyph-name="afii57513" unicode="&#x691;" horiz-adv-x="397" arabic-form="isolated" 
d="M275 308q0 -221 -19 -293q-49 -189 -254 -256q101 81 130 153q36 92 36 318q0 191 1 372l1 172q0 86 -51 86q-49 25 -49 13q0 6 4 8l262 2q18 0 18 -9q0 -10 -12 -10q-68 0 -68 -88zM64 1012v10h52q1 20 1 118l-1 154q-1 14 -19 14q-2 0 -2 1q0 3 4 3h55q4 0 4 -3
q-1 -1 -2 -1q-15 0 -16 -14v-119q29 31 54 31h104l11 -1q38 -3 62 -28q25 -25 26 -64q0 -42 -28 -71q-28 -30 -69 -30h-236zM298 1022q34 0 54 24q19 23 19 59q0 35 -17 61q-19 30 -50 30h-110q-47 0 -54 -71v-103h158z" />
    <glyph glyph-name="uniFB8D" unicode="&#x691;" horiz-adv-x="506" arabic-form="final" 
d="M274 342q11 -286 232 -297v-45q-156 13 -236 115q1 -9 1 -27q0 -116 -78 -205q-71 -79 -193 -124q113 109 130 146q38 84 38 325l-1 566q0 65 -56 65l-21 -2q-22 0 -22 15q0 4 6 7l262 2q18 0 18 -10q0 -8 -9 -9l-30 -4q-41 -9 -41 -61v-457zM64 1012v10h52q1 20 1 118
l-1 154q-1 14 -19 14q-2 0 -2 1q0 3 4 3h55q4 0 4 -3q-1 -1 -2 -1q-15 0 -16 -14v-119q29 31 54 31h104l11 -1q38 -3 62 -28q25 -25 26 -64q0 -42 -28 -71q-28 -30 -69 -30h-236zM298 1022q34 0 54 24q19 23 19 59q0 35 -17 61q-19 30 -50 30h-110q-47 0 -54 -71v-103h158z
" />
    <glyph glyph-name="uni06A9" unicode="&#x6a9;" horiz-adv-x="2137" arabic-form="isolated" 
d="M2137 195q0 -79 -60 -134q-65 -58 -171 -61h-1906v45h1880q85 4 148 59q56 49 56 94q-10 169 -376 169l-307 -3q-378 -5 -958 -9q-299 0 -398 142q-45 56 -45 127q0 79 73 154q105 107 383 107q438 0 506 5q248 18 326 156q-52 -102 -76 -133q-72 -95 -176 -121
q-88 -22 -247 -22q-64 0 -197 7q-133 6 -204 6q-342 0 -342 -164q0 -69 79 -120q73 -47 170 -53q49 -4 136 -4q662 0 989 4q76 0 174 2l104 1q274 0 373 -103q66 -69 66 -151z" />
    <glyph glyph-name="uniFB8F" unicode="&#x6a9;" horiz-adv-x="2349" arabic-form="final" 
d="M2349 0q-163 14 -246 100q-59 -84 -199 -100h-1904v45h1880q84 4 145 63q52 50 52 97q0 155 -370 162q-691 -12 -1264 -12q-301 0 -400 142q-43 72 -43 127q0 80 71 154q95 98 331 111q78 5 199 1q160 -5 179 -5q199 0 279 16q164 33 229 145q-50 -98 -77 -133
q-73 -95 -175 -121q-81 -21 -372 -21q-52 0 -157 7t-158 7q-90 0 -165 -15q-59 -12 -99 -58q-40 -45 -40 -94q0 -68 79 -117q70 -43 169 -55q115 -2 347 -2q172 0 524 3q352 2 534 2q380 0 432 -220q19 -81 77 -129q57 -49 142 -55v-45z" />
    <glyph glyph-name="uniFB90" unicode="&#x6a9;" horiz-adv-x="2258" arabic-form="initial" 
d="M2258 195q0 -79 -60 -134q-65 -58 -171 -61h-2027v45h2001q85 4 148 59q56 49 56 94q-10 169 -376 169l-307 -3q-378 -5 -958 -9q-299 0 -398 142q-45 56 -45 127q0 79 73 154q105 107 383 107q438 0 506 5q248 18 326 156q-52 -102 -76 -133q-72 -95 -176 -121
q-88 -22 -247 -22q-64 0 -197 7q-133 6 -204 6q-342 0 -342 -164q0 -69 79 -120q73 -47 170 -53q49 -4 136 -4q662 0 989 4q76 0 174 2l104 1q274 0 373 -103q66 -69 66 -151z" />
    <glyph glyph-name="uniFB91" unicode="&#x6a9;" horiz-adv-x="2470" arabic-form="medial" 
d="M2470 0q-163 14 -246 100q-59 -84 -199 -100h-2025v45h2001q84 4 145 63q52 50 52 97q0 155 -370 162q-691 -12 -1264 -12q-301 0 -400 142q-43 72 -43 127q0 80 71 154q95 98 331 111q78 5 199 1q160 -5 179 -5q199 0 279 16q164 33 229 145q-50 -98 -77 -133
q-73 -95 -175 -121q-81 -21 -372 -21q-52 0 -157 7t-158 7q-90 0 -165 -15q-59 -12 -99 -58q-40 -45 -40 -94q0 -68 79 -117q70 -43 169 -55q115 -2 347 -2q172 0 524 3q352 2 534 2q380 0 432 -220q19 -81 77 -129q57 -49 142 -55v-45z" />
    <glyph glyph-name="afii57509" unicode="&#x6af;" horiz-adv-x="2137" arabic-form="isolated" 
d="M2137 195q0 -79 -60 -134q-65 -58 -171 -61h-1906v45h1880q85 4 148 59q56 49 56 94q-10 169 -376 169l-307 -3q-378 -5 -958 -9q-299 0 -398 142q-45 56 -45 127q0 79 73 154q105 107 383 107q438 0 506 5q248 18 326 156q-52 -102 -76 -133q-72 -95 -176 -121
q-88 -22 -247 -22q-64 0 -197 7q-133 6 -204 6q-342 0 -342 -164q0 -69 79 -120q73 -47 170 -53q49 -4 136 -4q662 0 989 4q76 0 174 2l104 1q274 0 373 -103q66 -69 66 -151zM264 991q74 76 259 87q61 3 156 0q125 -4 140 -4q156 0 218 13q128 26 179 113q-39 -77 -60 -104
q-57 -74 -137 -94q-64 -17 -291 -17q-40 0 -123 6q-82 5 -123 5q-71 0 -129 -12q-46 -9 -78 -45q-66 -6 -11 52z" />
    <glyph glyph-name="uniFB93" unicode="&#x6af;" horiz-adv-x="2349" arabic-form="final" 
d="M2349 0q-163 14 -246 100q-59 -84 -199 -100h-1904v45h1880q84 4 145 63q52 50 52 97q0 155 -370 162q-691 -12 -1264 -12q-301 0 -400 142q-43 72 -43 127q0 80 71 154q95 98 331 111q78 5 199 1q160 -5 179 -5q199 0 279 16q164 33 229 145q-50 -98 -77 -133
q-73 -95 -175 -121q-81 -21 -372 -21q-52 0 -157 7t-158 7q-90 0 -165 -15q-59 -12 -99 -58q-40 -45 -40 -94q0 -68 79 -117q70 -43 169 -55q115 -2 347 -2q172 0 524 3q352 2 534 2q380 0 432 -220q19 -81 77 -129q57 -49 142 -55v-45zM284 991q74 76 259 87q61 3 156 0
q125 -4 140 -4q156 0 218 13q128 26 179 113q-39 -77 -60 -104q-57 -74 -137 -94q-64 -17 -291 -17q-40 0 -123 6q-82 5 -123 5q-71 0 -129 -12q-46 -9 -78 -45q-66 -6 -11 52z" />
    <glyph glyph-name="uniFB94" unicode="&#x6af;" horiz-adv-x="2258" arabic-form="initial" 
d="M2258 195q0 -79 -60 -134q-65 -58 -171 -61h-2027v45h2001q85 4 148 59q56 49 56 94q-10 169 -376 169l-307 -3q-378 -5 -958 -9q-299 0 -398 142q-45 56 -45 127q0 79 73 154q105 107 383 107q438 0 506 5q248 18 326 156q-52 -102 -76 -133q-72 -95 -176 -121
q-88 -22 -247 -22q-64 0 -197 7q-133 6 -204 6q-342 0 -342 -164q0 -69 79 -120q73 -47 170 -53q49 -4 136 -4q662 0 989 4q76 0 174 2l104 1q274 0 373 -103q66 -69 66 -151zM324 991q74 76 259 87q61 3 156 0q125 -4 140 -4q156 0 218 13q128 26 179 113q-39 -77 -60 -104
q-57 -74 -137 -94q-64 -17 -291 -17q-40 0 -123 6q-82 5 -123 5q-71 0 -129 -12q-46 -9 -78 -45q-66 -6 -11 52z" />
    <glyph glyph-name="uniFB95" unicode="&#x6af;" horiz-adv-x="2470" arabic-form="medial" 
d="M2470 0q-163 14 -246 100q-59 -84 -199 -100h-2025v45h2001q84 4 145 63q52 50 52 97q0 155 -370 162q-691 -12 -1264 -12q-301 0 -400 142q-43 72 -43 127q0 80 71 154q95 98 331 111q78 5 199 1q160 -5 179 -5q199 0 279 16q164 33 229 145q-50 -98 -77 -133
q-73 -95 -175 -121q-81 -21 -372 -21q-52 0 -157 7t-158 7q-90 0 -165 -15q-59 -12 -99 -58q-40 -45 -40 -94q0 -68 79 -117q70 -43 169 -55q115 -2 347 -2q172 0 524 3q352 2 534 2q380 0 432 -220q19 -81 77 -129q57 -49 142 -55v-45zM324 991q74 76 259 87q61 3 156 0
q125 -4 140 -4q156 0 218 13q128 26 179 113q-39 -77 -60 -104q-57 -74 -137 -94q-64 -17 -291 -17q-40 0 -123 6q-82 5 -123 5q-71 0 -129 -12q-46 -9 -78 -45q-66 -6 -11 52z" />
    <glyph glyph-name="uniFDFA" unicode="&#xfdfa;" horiz-adv-x="2134" arabic-form="isolated" 
d="M1718 -51l33 71q27 -64 27 -108q0 -60 -25 -95q-26 -36 -68 -36q-34 0 -81 29l-13 8q-46 -54 -119 -54q-94 0 -100 54q-123 -72 -371 -72q-219 0 -312 66q-93 67 -105 231v18q-64 -103 -95 -120q23 -55 23 -82q0 -45 -21 -74q-22 -29 -57 -29q-29 0 -51 13l-41 18l-29 16
q-56 -104 -135 -104h-19q-4 0 -14 -2l-16 -6l-16 -4h-7q-2 0 -6 4v6q3 7 27 18l72 31l63 45q3 3 19 12l16 15q-21 33 -21 73q0 45 36 90q35 44 71 44q7 0 20 -9q31 -16 54 -16q31 0 55 31l16 20q7 5 25 43l12 25q2 2 8 12q-9 3 -12 6l-35 10q-103 35 -131 152l-12 59l-4 2
l-6 -8q-67 -94 -148 -94q-43 0 -82 15q-39 14 -39 30q0 39 68 98q76 63 150 91l43 16v27q0 4 -3 8l39 63l4 -41q13 -174 43 -248q35 -67 111 -86l-2 17q0 6 -2 8l-6 82q1 -5 -8 82q-6 47 -6 78l36 88v-21l9 -78l23 -243q1 -15 3 -23l23 -4l55 -4l88 -4h45q209 0 342 82l4 8
l10 31q13 37 25 37q6 0 6 -15v-14l-6 -30v-11q18 -24 56 -47q39 -23 63 -23q50 0 84 88v13l-17 190l-4 57q-4 33 -4 66l-14 -2q-62 0 -109 43q-47 42 -57 109h-2q-4 -7 -4 -13q-32 -116 -80 -133v-4h53q37 0 64 -22q28 -23 28 -56q0 -69 -71 -108l-43 -25q-136 -82 -258 -82
q-96 0 -153 50q-58 49 -58 130q0 66 32 138q-60 18 -75 86h-4l-7 -13q-46 -90 -104 -90q-98 0 -98 154q-7 -4 -11 -8l-34 -31q-23 -23 -76 -23q-111 0 -111 37q0 30 47 92q16 22 80 54l31 14q27 12 31 12q14 6 41 23v22l37 70v-51l6 -125v-49l4 -43q6 -62 59 -62q57 0 86 47
l8 15q0 2 2 4l-2 4v4q0 2 -2 4l-4 41l-26 182l39 76l30 -176l10 -66q7 -46 11 -59l4 -18v-7q17 -41 69 -41q42 0 46 25v2q0 33 -21 105l-35 112l-12 43q0 9 -4 21l24 65l12 -38q9 -36 17 -60q53 -176 53 -225q0 -47 -24 -93q-25 -45 -49 -45h-9l-8 2q-14 -29 -14 -77
q0 -70 48 -111q49 -41 136 -41q153 0 281 92l12 8v5q0 13 -111 28q-51 7 -53 8q-15 4 -24 4q-17 5 -17 19v8l11 27q8 18 20 30q5 3 39 19q56 24 74 47t18 74v38q0 13 -2 31l-10 146l-17 155q-6 65 -12 97l37 110l14 -125l25 -204q21 -176 57 -244q41 -66 125 -76
q-4 31 -4 68v22l-4 66v39l41 90q6 -55 6 -72l2 -68l6 -75v-22q0 -7 2 -25l2 -21q7 4 17 4q45 15 57 21q16 9 51 37l15 10l10 -8q76 -60 129 -66q86 83 162 133q82 55 112 55q42 0 86 -32q49 -31 49 -58q0 -32 -30 -82q-32 -47 -62 -63q-83 -45 -264 -45q-39 0 -72 4
q-46 -94 -75 -94q-9 0 -9 12q0 19 23 57l12 25q5 5 8 12l-14 6l-20 11q-44 19 -64 37q-47 -32 -61 -37l-47 -15h-9v-26l5 -47l2 -60q12 -178 55 -239q44 -62 162 -68v4q-39 27 -39 86q0 83 57 152t127 69q49 0 100 -27q50 -27 58 -57v-14q-51 20 -105 20q-68 0 -126 -27
t-58 -57t53 -86q56 -53 86 -53h4q-3 0 7 2q6 0 18 4q163 38 246 80l-33 -73q-211 -109 -385 -109q-185 0 -244 137l-4 12q-55 -133 -115 -133t-135 90q-148 -114 -385 -114q-96 0 -157 10l6 -37q17 -125 53 -166q30 -36 135 -65q102 -27 225 -27q217 0 336 62q32 77 58 77
q8 0 8 -16q0 -22 -17 -68l-3 -10q-1 -6 -3 -10q9 -29 53 -29q65 0 101 27q6 9 6 12l12 37q28 76 47 82h2q9 0 9 -12v-15q0 -31 -13 -61l-6 -19q46 -28 90 -28q15 0 15 14q0 11 -11 47zM2028 -96q-42 -54 -76 -54q-29 0 -51 28q-21 27 -21 63q0 48 31 106q33 59 57 59
q32 0 70 -59q39 -58 39 -106q0 -117 -86 -236t-172 -119q-37 0 -113 31q-72 29 -82 47v6q4 4 10 4l78 -22q22 -8 51 -8q134 0 279 217zM1993 1223q-162 -63 -283 -131q-125 -68 -125 -91q0 -15 47 -45l6 -4l-16 -49q-68 29 -68 84q0 60 56 90l53 31q152 88 371 174l-19 -49z
M960 770l-18 168l-18 192l-4 56l43 110q5 -45 10 -122l22 -323q0 5 2 -9l-2 -23q-9 -112 -24 -127zM1102 14l-58 -71l-100 73l57 70l99 -72l53 68l100 -76l-53 -63zM2054 784q0 15 -35 33q-32 21 -57 21q-29 0 -100 -39q-71 -41 -113 -80q18 -2 24 -2h19q93 0 172 18
q81 23 90 45v4zM1278 1126l6 52l418 188l-10 -47zM1313 -358q0 -45 -53 -45q-13 0 -29 10q-33 -33 -62 -33q-16 0 -30 14l-13 13q-8 8 -16 8q-18 0 -59 -27q-68 -45 -144 -45h-33q-69 0 -69 17q0 16 67 16h39q64 0 123 35q62 39 82 39q22 0 49 -27l11 -6h8q29 3 32 27v8
q0 14 19 24l4 2q8 0 8 -12l-2 -10q-2 -2 -2 -10v-5q8 -8 17 -8q30 0 30 29q0 28 23 31v-45zM664 1296l-7 35v8l15 23q14 -45 14 -78q0 -65 -45 -65q-19 0 -41 16q-40 -31 -53 -31q-49 0 -49 53q0 30 6 58l14 12l-2 -14v-10q0 -50 35 -50q23 0 39 31q-2 10 -2 7l-2 29l-2 9
l20 27l8 -58q3 -32 29 -32q23 0 23 20v10zM371 465q-68 -25 -119 -55q-57 -34 -57 -48q0 -4 2 -6l4 -2l6 -6q9 -6 41 -6q76 0 129 47zM412 922q-7 -4 -13 -4l-28 -15l-41 -16q-70 -31 -70 -49q0 -23 55 -23q49 0 99 27zM455 -158q10 0 10 13q0 29 -43 63q-41 35 -78 35
q-27 0 -27 -25q0 -22 48 -55q46 -31 81 -31h9zM1964 16q-28 0 -39 -51q17 -35 64 -35q17 0 28 23q-15 63 -53 63z" />
    <glyph glyph-name="uniFC63" unicode="&#xfc63;" horiz-adv-x="0" arabic-form="isolated" 
d="M76 28q36 0 57 37q20 34 20 82q0 44 -19 79q-21 41 -58 41q-32 0 -32 -46q0 -12 3 -21q12 45 31 45q22 0 37 -31q16 -31 16 -74q0 -77 -47 -77q-33 0 -60 60q-20 43 -28 91q-12 -8 -12 -27q0 -12 7 -42q7 -29 7 -42q0 -26 -21 -47q-20 -21 -43 -21q-65 0 -65 173
q-2 -2 -17 -12q-6 -69 -6 -78q0 -46 17 -78q21 -40 63 -40q56 0 80 79q19 -37 49 -47q9 -4 21 -4zM-43 461q8 39 10 56q8 65 -24 98q-4 5 -2 9q0 3 6 1q61 -69 54 -132q-1 -20 -8 -54q-8 -40 -10 -55q-8 -64 23 -100q6 -6 5 -8q-2 -2 -7 -1q-61 68 -56 132q2 18 9 54z" />
    <glyph glyph-name=".notdef" horiz-adv-x="725" 
d="M0 1015h725v-1015h-725v1015zM609 942h-493l246 -369zM652 138v739l-246 -370zM609 72l-247 370l-246 -370h493zM72 138l247 369l-247 370v-739z" />
    <glyph glyph-name="glyph1" horiz-adv-x="0" 
 />
    <glyph glyph-name="uni000D" unicode="&#xd;" horiz-adv-x="287" 
 />
    <glyph glyph-name="space" unicode=" " horiz-adv-x="342" 
 />
    <glyph glyph-name="exclam" unicode="!" horiz-adv-x="257" 
d="M27 684q-10 231 -22 274q-5 20 -5 28q0 10 7 20q36 64 107 99q14 7 22 7q9 0 9 -14l-8 -60q-10 -67 -14 -132q-1 -10 -17 -315q-15 -302 -17 -321q-2 -47 -17 -47q-18 0 -22 76zM19 0q-17 21 -17 49q0 27 18 49q20 25 56 25q32 0 53 -19t21 -50q0 -34 -21 -56
q-21 -23 -54 -23q-35 0 -56 25z" />
    <glyph glyph-name="quotedbl" unicode="&#x22;" horiz-adv-x="446" 
d="M265 1074l-18 -76q-19 -83 -27 -179q-4 -65 -16 -65t-16 65q-8 96 -27 179l-18 76q0 21 61 21t61 -21zM446 1074l-18 -76q-19 -83 -27 -179q-4 -65 -16 -65q-10 0 -16 65q-8 96 -27 179l-18 76q0 21 61 21t61 -21z" />
    <glyph glyph-name="numbersign" unicode="#" horiz-adv-x="782" 
d="M608 667l-35 -238h165v-81h-178l-53 -348h-50l53 348h-236l-55 -348h-51l55 348h-177v81h190l37 238h-180v81h191l48 345h52l-48 -345h232l47 345h51l-47 -345h163v-81h-174zM325 667l-36 -238h233l35 238h-232z" />
    <glyph glyph-name="dollar" unicode="$" horiz-adv-x="654" 
d="M300 -117q-3 -10 -15 -12l-27 -9q-13 -1 -10 15l11 123q-110 0 -190 35q-27 12 -33 21q-7 8 -7 31q0 117 16 171q5 28 16 28q8 0 7 -32q-3 -88 38 -135q53 -64 158 -64l42 464q-133 93 -183 154q-62 75 -62 167q0 123 103 197q88 64 197 64l10 116q0 10 9 13l33 10
q12 2 12 -8l-14 -131q108 0 163 -21q11 -5 11 -22q0 -129 -5 -169q-2 -15 -12 -15q-12 0 -12 22q0 76 -42 115q-44 42 -108 42l-42 -432q130 -85 178 -139q75 -84 75 -193q0 -145 -116 -226q-89 -63 -191 -63zM355 1053q-63 0 -118 -33q-79 -47 -79 -143q0 -110 159 -220z
M316 55q92 4 145 59q52 54 52 143q0 126 -160 229z" />
    <glyph glyph-name="percent" unicode="%" horiz-adv-x="1264" 
d="M755 85q-58 73 -58 170q0 112 59 189q68 88 192 88q115 0 183 -85q58 -73 58 -170q0 -110 -60 -188q-69 -89 -191 -89q-116 0 -183 85zM1064 106q35 56 35 151q0 92 -40 160q-45 75 -118 75q-78 0 -118 -64q-36 -57 -36 -153q0 -93 39 -159q43 -75 118 -75q79 0 120 65z
M368 -17q-11 -2 -15 4q-4 4 -1 12l279 643l180 422q-46 -2 -197 -13q-134 -10 -146 -10v-3q95 -65 95 -207q0 -110 -61 -188q-69 -89 -189 -89q-116 0 -183 85q-58 73 -58 170q0 111 64 190q71 88 195 88q149 0 354 17q204 17 197 17q10 0 10 -6q0 2 -16 -42l-427 -1061
q-6 -16 -14 -18zM438 659q35 57 35 152q0 93 -40 160q-44 76 -117 76q-78 0 -118 -65q-36 -57 -36 -153q0 -93 39 -160q44 -75 118 -75q79 0 119 65z" />
    <glyph glyph-name="ampersand" unicode="&#x26;" horiz-adv-x="1149" 
d="M153 88q-81 93 -81 208q0 219 222 349q-71 102 -71 200q0 96 83 177q93 90 229 90q111 0 175 -36q19 -11 19 -36q0 -123 -10 -167q-5 -25 -14 -25t-9 28q0 76 -45 123q-62 64 -145 64q-74 0 -125 -44q-59 -52 -59 -146q0 -79 58 -166q44 -67 171 -205q109 -120 274 -260
q74 99 74 241q0 43 -28 71q-22 23 -71 23q-17 0 -17 10t23 10q84 0 174 -10q26 -4 26 -29q0 -168 -143 -342q101 -86 200 -144q95 -56 172 -56q21 0 21 -10t-25 -10h-142q-83 0 -131 21q-55 23 -171 115q-157 -157 -362 -157q-173 0 -272 113zM750 159q-144 118 -263 246
q-115 121 -171 203q-130 -87 -130 -244q0 -135 84 -224q83 -88 206 -88q167 0 274 107z" />
    <glyph glyph-name="quotesingle" unicode="'" horiz-adv-x="294" 
d="M206 1074l-18 -76q-19 -83 -27 -179q-4 -65 -16 -65t-16 65q-8 96 -27 179l-18 76q0 21 61 21t61 -21z" />
    <glyph glyph-name="parenleft" unicode="(" horiz-adv-x="427" 
d="M315 -152q10 -16 10 -18q0 -10 -10 -10q-3 0 -14 7q-110 83 -193 225q-108 186 -108 392q0 205 116 405q90 154 184 221q14 9 16 9q10 0 10 -12q0 -6 -10 -16q-70 -69 -130 -210q-77 -182 -77 -378q0 -372 206 -615z" />
    <glyph glyph-name="parenright" unicode=")" horiz-adv-x="432" 
d="M117 1051q-10 14 -10 18q0 10 10 10q4 0 13 -7q111 -83 194 -224q108 -186 108 -390q0 -206 -116 -407q-89 -155 -184 -222q-13 -9 -16 -9q-10 0 -10 12q0 6 10 16q70 69 130 210q77 182 77 378q0 372 -206 615z" />
    <glyph glyph-name="asterisk" unicode="*" horiz-adv-x="460" 
d="M261 971q-2 -4 0 -10q1 -1 7 0q85 23 137 80q12 10 14 10q8 0 24 -35q17 -35 17 -56q0 -9 -18 -13q-7 -2 -167 -6q-3 0 -8 -3q-5 -2 1 -10q12 -20 61 -60q46 -37 61 -42q16 -5 16 -13q0 -17 -29 -45q-28 -27 -45 -27q-9 0 -20 20q-35 63 -63 150q-4 8 -5 8q-5 0 -6 -4
q-32 -56 -55 -120l-9 -34q0 -7 -17 -7q-92 0 -92 19q0 8 10 23q6 9 145 132q5 5 5 9t-6 4q-37 10 -138 10q-5 0 -11 -2l-6 -2q-16 0 -16 97q0 12 14 12q50 0 164 -93q6 -3 12 -2q1 3 1 10q5 47 -37 143q-6 10 -6 16q0 10 36 26t57 16q11 0 11 -16q0 -57 -39 -185z" />
    <glyph glyph-name="plus" unicode="+" horiz-adv-x="742" 
d="M409 352v-271h-76v271h-272v74h271v271h75v-271h272v-74h-270z" />
    <glyph glyph-name="comma" unicode="," horiz-adv-x="213" 
d="M62 67q-25 31 -25 33q0 29 31 54q29 24 59 24q8 0 26 -27q24 -39 24 -63q0 -18 -14 -56q-48 -106 -93 -155q-10 -13 -19 -13q-10 0 -10 10l10 20q35 59 35 103q0 40 -24 70z" />
    <glyph glyph-name="hyphen" unicode="-" horiz-adv-x="569" 
d="M474 449q44 0 44 -14t-51 -25q-281 -36 -345 -53q-14 -4 -37 -14q-19 -8 -23 -8q-12 0 -7 22l22 81q3 11 32 11h365z" />
    <glyph glyph-name="period" unicode="." horiz-adv-x="261" 
d="M19 26q-19 23 -19 54q0 29 19 52q23 27 61 27q34 0 57 -20q23 -21 23 -55q0 -35 -22 -59q-23 -25 -59 -25q-38 0 -60 26z" />
    <glyph glyph-name="slash" unicode="/" horiz-adv-x="811" 
d="M37 9q-8 5 2 21l668 1072q9 13 21 6l43 -26q8 -7 3 -15l-673 -1082q-7 -12 -17 -7z" />
    <glyph glyph-name="zero" unicode="0" horiz-adv-x="827" 
d="M156 940q99 172 269 172q177 0 270 -196q72 -151 72 -339q0 -260 -94 -426q-100 -176 -271 -176q-160 0 -256 170q-85 153 -85 365q0 265 95 430zM237 204q70 -175 194 -175q97 0 158 136q61 135 61 350q0 220 -65 375q-72 168 -189 168q-101 0 -160 -134
q-58 -132 -58 -354q0 -215 59 -366z" />
    <glyph glyph-name="one" unicode="1" horiz-adv-x="827" 
d="M493 440q-2 -253 7 -333q5 -38 14 -52q12 -18 44 -25q50 -9 96 -9q13 0 13 -11q0 -10 -25 -10h-430q-25 0 -25 10q0 11 12 11q65 0 116 11q34 6 47 24q12 15 14 51q4 64 4 333v475q0 45 -26 45q-14 0 -166 -70q-10 -6 -17 -6q-10 0 -10 13q0 7 10 15l280 187q28 17 35 17
q16 0 16 -30l-3 -110q-4 -131 -5 -267z" />
    <glyph glyph-name="two" unicode="2" horiz-adv-x="827" 
d="M71 0q-20 0 -20 20q0 13 26 35q267 237 362 361q144 187 144 376q0 140 -79 212q-63 56 -152 56q-96 0 -155 -55q-51 -50 -51 -141q0 -22 -13 -22q-10 0 -11 19q-9 59 -9 179q0 12 15 21q108 51 255 51q156 0 246 -89q81 -81 81 -204q0 -195 -184 -416
q-97 -115 -320 -306q-12 -10 3 -10h106q186 0 248 7q141 13 169 139q7 22 18 22q8 0 8 -22q0 -36 -43 -190q-9 -28 -29 -36q-17 -7 -65 -7h-550z" />
    <glyph glyph-name="three" unicode="3" horiz-adv-x="827" 
d="M510 501q-69 55 -169 75q-38 7 -38 18q0 13 33 18q77 14 142 68q89 73 89 184q0 67 -40 121q-56 75 -169 75q-82 0 -131 -44q-52 -46 -52 -127q0 -18 -10 -18q-8 0 -10 16q-10 78 -10 145q0 18 19 31q100 49 235 49q156 0 232 -81q55 -59 55 -136q0 -94 -80 -177
q-55 -57 -114 -84v-8q86 -20 154 -84q85 -81 85 -194q0 -156 -120 -263q-124 -110 -314 -110q-113 0 -177 35q-23 15 -23 41q0 101 10 181q3 22 12 22t10 -21q18 -195 218 -195q115 0 186 64q76 68 76 192q0 129 -99 207z" />
    <glyph glyph-name="four" unicode="4" horiz-adv-x="827" 
d="M603 409h110q24 0 43 8l17 7q7 0 7 -17q0 -21 -13 -58q-9 -19 -30 -19h-134q0 -191 3 -223q6 -65 62 -80q32 -6 64 -6q13 0 13 -11q0 -10 -23 -10h-351q-23 0 -23 10q0 11 12 11q30 0 68 5q55 8 62 81q3 32 3 223h-442q-31 0 -31 18q0 12 13 30q22 25 527 712
q18 26 30 26q15 0 15 -25l-2 -217v-465zM493 922h-3q-57 -98 -368 -513h371v513z" />
    <glyph glyph-name="five" unicode="5" horiz-adv-x="827" 
d="M254 773q173 -26 296 -112q157 -111 157 -285q0 -156 -108 -271q-122 -130 -327 -130q-87 0 -134 26q-27 15 -27 41q0 149 5 183q6 26 13 26q12 0 12 -25q0 -187 199 -187q103 0 173 66q82 76 82 215q0 156 -142 262q-114 85 -226 91q-41 1 -38 26l33 370q3 18 28 18h341
q48 0 84 6l30 5q10 0 10 -15q0 -49 -19 -183q-2 -16 -11 -16t-9 19q0 48 -21 67q-27 26 -106 26h-275z" />
    <glyph glyph-name="six" unicode="6" horiz-adv-x="827" 
d="M571 510q-66 77 -143 77q-70 0 -109 -19l-19 -5q-6 0 -6 11q0 8 13 18q73 50 169 50q139 0 221 -99q70 -84 70 -195q0 -172 -104 -276q-103 -97 -251 -97q-155 0 -247 110q-94 113 -94 308q0 210 145 414q145 203 357 295q22 10 30 10q12 0 12 -13q0 -9 -28 -26
q-160 -89 -264 -250q-126 -192 -126 -430q0 -143 59 -245q67 -118 183 -118q90 0 148 67q60 69 60 186q0 138 -76 227z" />
    <glyph glyph-name="seven" unicode="7" horiz-adv-x="827" 
d="M763 1087q26 0 26 -14q0 -13 -9 -28q-91 -136 -225 -460q-138 -334 -153 -470v-51q0 -20 -60 -55q-58 -34 -82 -34q-14 0 -14 15q0 20 9 49q130 433 432 957h-356q-92 0 -135 -36q-48 -39 -55 -112q-3 -20 -13 -20q-9 0 -9 23q0 28 11 128l11 103q0 20 14 20q-6 0 37 -7
q43 -8 101 -8h470z" />
    <glyph glyph-name="eight" unicode="8" horiz-adv-x="827" 
d="M157 460q68 77 178 120q-203 120 -203 273q0 95 75 171q88 88 234 88q117 0 189 -58q76 -60 76 -164q0 -175 -207 -280q252 -130 252 -316q0 -130 -95 -222q-99 -97 -250 -97q-140 0 -232 75q-97 79 -97 207q0 113 80 203zM578 97q61 65 61 164q0 106 -78 182
q-51 49 -177 114q-196 -95 -196 -286q0 -99 64 -169q67 -72 166 -72q98 0 160 67zM280 1002q-45 -53 -45 -122q0 -83 63 -145q44 -44 151 -101q156 90 156 239q0 84 -49 136q-50 54 -133 54q-90 0 -143 -61z" />
    <glyph glyph-name="nine" unicode="9" horiz-adv-x="827" 
d="M661 998q89 -111 89 -280q0 -271 -185 -493q-135 -163 -317 -254q-13 -6 -23 -6q-12 0 -12 15q0 13 15 20q152 84 261 245q133 198 133 431q0 181 -72 286q-66 96 -167 96q-93 0 -149 -68q-50 -62 -50 -153q0 -155 94 -235q64 -54 124 -54q71 0 116 26q12 9 18 9
q8 0 8 -10q0 -6 -6 -12q-63 -67 -174 -67q-142 0 -224 94q-69 80 -69 186q0 149 98 244q97 94 249 94q150 0 243 -114z" />
    <glyph glyph-name="colon" unicode=":" horiz-adv-x="250" 
d="M19 70q-19 22 -19 53q0 30 19 53q22 27 61 27q34 0 57 -20q23 -21 23 -55q0 -36 -22 -60q-23 -25 -59 -25q-38 0 -60 27zM19 560q-19 22 -19 53q0 30 19 53q22 27 61 27q34 0 57 -20q23 -21 23 -55q0 -36 -22 -60q-23 -24 -59 -24q-38 0 -60 26z" />
    <glyph glyph-name="semicolon" unicode=";" horiz-adv-x="241" 
d="M82 67q-25 31 -25 33q0 29 31 54q29 24 59 24q8 0 26 -27q25 -38 25 -63q0 -15 -15 -56q-42 -99 -93 -155q-10 -13 -19 -13q-10 0 -10 10l10 20q35 59 35 103q0 40 -24 70zM58 560q-19 22 -19 53q0 30 19 53q22 27 61 27q34 0 57 -20q23 -21 23 -55q0 -36 -22 -60
q-23 -24 -59 -24q-38 0 -60 26z" />
    <glyph glyph-name="less" unicode="&#x3c;" horiz-adv-x="699" 
d="M36 420l618 285v-77l-538 -247l538 -248v-76l-618 287v76z" />
    <glyph glyph-name="equal" unicode="=" horiz-adv-x="749" 
d="M61 477v74h618v-74h-618zM61 222v74h618v-74h-618z" />
    <glyph glyph-name="greater" unicode="&#x3e;" horiz-adv-x="738" 
d="M61 57v76l539 248l-539 247v77l618 -285v-76z" />
    <glyph glyph-name="question" unicode="?" horiz-adv-x="613" 
d="M124 1006q-43 -51 -51 -135q-2 -24 -11 -24t-12 14q-6 32 -6 170q0 13 16 23q98 58 241 58q132 0 204 -74q59 -62 59 -152q0 -108 -73 -207q-24 -33 -79 -95l-98 -114q-59 -76 -59 -116q0 -38 27 -74q13 -17 13 -25q0 -13 -16 -13q-19 0 -61 51q-42 52 -42 85q0 30 32 73
q18 23 51 61q34 40 49 59q128 162 128 305q0 68 -35 120q-46 67 -135 67q-97 0 -142 -57zM212 0q-17 21 -17 49q0 27 18 49q20 25 56 25q32 0 53 -19t21 -50q0 -34 -21 -56q-21 -23 -54 -23q-35 0 -56 25z" />
    <glyph glyph-name="at" unicode="@" horiz-adv-x="1272" 
d="M1011 202q-91 -61 -182 -61q-81 0 -101 74q-14 49 -9 145l-4 1q-68 -102 -145 -161q-70 -54 -119 -54q-31 0 -54 41t-23 97q0 213 173 345q106 81 187 81q44 0 81 -17q40 49 84 62q7 2 11 -3q3 -6 1 -13q-35 -48 -54 -116q-27 -88 -38 -221q-7 -96 6 -139q19 -61 86 -61
q91 0 157 97q70 104 70 264q0 165 -104 268q-112 110 -309 110q-249 0 -400 -177q-145 -170 -145 -435q0 -201 116 -318q113 -114 299 -114q217 0 381 132q32 26 39 10q5 -11 -23 -39q-161 -157 -429 -157q-208 0 -337 116q-143 127 -143 359q0 263 194 461q196 198 458 198
q231 0 354 -115q116 -108 116 -295q0 -237 -194 -365zM689 660q-107 0 -166 -134q-43 -104 -43 -208q0 -32 9 -58q10 -31 26 -31q36 0 105 71q63 64 105 134q23 115 52 200q-45 26 -88 26z" />
    <glyph glyph-name="A" unicode="A" horiz-adv-x="1061" 
d="M467 1056q20 56 32 56q11 0 32 -52l338 -874q58 -143 124 -161q73 -28 73 -18q0 -9 -14 -11q-10 -1 -79 -1q-207 0 -207 14q0 4 11 11q11 6 11 20q0 9 -4 18l-134 357q-5 8 -13 8h-312q-10 0 -15 -11l-87 -257q-20 -57 -20 -93q0 -46 55 -46h15q14 0 14 -9q0 -11 -22 -11
h-277q-27 0 -27 11q0 9 13 9q70 0 107 36q30 28 57 103zM618 476q6 0 6 4t-1 6l-137 391q-6 16 -12 16t-10 -16l-128 -391q-1 -2 -1 -5q0 -5 6 -5h277z" />
    <glyph glyph-name="B" unicode="B" horiz-adv-x="943" 
d="M258 671q0 267 -3 314q-2 39 -14 56q-13 19 -48 26q-20 5 -49 5q-12 0 -12 8q0 12 23 12q40 0 104 -2l60 -3q14 0 67 3q54 2 91 2q157 0 234 -82q56 -59 56 -136q0 -119 -136 -261q96 -30 166 -102q85 -88 85 -204q0 -127 -92 -216q-103 -100 -278 -100l-105 5
q-56 4 -88 4q-28 0 -58 -1l-84 -3q-23 0 -23 11q0 9 11 9q18 0 44 6q32 7 42 79q7 61 7 315v255zM374 639q0 -12 10 -16q45 -5 89 -5q98 0 132 37q52 61 52 147q0 102 -45 170q-52 79 -151 79q-42 0 -70 -7q-17 -4 -17 -16v-389zM374 486q0 -292 2 -313q3 -60 9 -76
q8 -23 40 -38q46 -21 127 -21q77 0 132 42q73 54 73 164q0 193 -141 290q-47 32 -120 42q-19 3 -113 3q-9 0 -9 -11v-82z" />
    <glyph glyph-name="C" unicode="C" horiz-adv-x="1159" 
d="M268 132q-175 158 -175 429q0 234 162 396q155 155 442 155q118 0 211 -17q106 -19 148 -22q18 -1 18 -16l-2 -25q-3 -27 -5 -56q-2 -28 -3 -85l-1 -65q-3 -30 -13 -30q-12 0 -12 30q0 97 -61 148q-94 83 -290 83q-223 0 -333 -106q-131 -125 -131 -378q0 -215 145 -369
q152 -162 379 -162q181 0 252 73q38 40 54 121q4 22 14 22t10 -22q0 -80 -32 -185q-9 -30 -37 -42q-82 -34 -261 -34q-304 0 -479 157z" />
    <glyph glyph-name="D" unicode="D" horiz-adv-x="1334" 
d="M258 671q0 267 -3 314q-2 39 -14 56q-13 19 -48 26q-20 5 -49 5q-12 0 -12 8q0 12 23 12q40 0 104 -2l60 -3l72 3q72 2 124 2q192 0 280 -16q190 -34 301 -149q141 -147 141 -369q0 -242 -157 -409q-158 -166 -439 -166q-76 0 -202 8q-113 9 -120 9q-28 0 -58 -1l-84 -3
q-23 0 -23 11q0 9 11 9q18 0 44 6q32 7 42 79q7 61 7 315v255zM380 515q0 -273 3 -315q3 -92 16 -110q39 -58 246 -58q212 0 345 135q116 113 116 346q0 220 -139 366q-156 164 -474 164q-74 0 -94 -11q-18 -7 -18 -29q-1 -49 -1 -308v-180z" />
    <glyph glyph-name="E" unicode="E" horiz-adv-x="854" 
d="M258 671q0 267 -3 314q-2 39 -14 56q-13 19 -48 26q-20 5 -49 5q-12 0 -12 8q0 12 23 12q73 0 105 -2l59 -3q299 0 332 2q42 1 62 7q28 7 21 7q5 0 5 -13q0 -3 -4 -22q-5 -23 -7 -46q-1 -6 -3 -46t-4 -49q-4 -16 -11 -16q-11 0 -11 18q0 30 -9 53q-17 39 -103 49
q-32 4 -198 4q-9 0 -9 -14v-400q0 -15 9 -15q197 0 230 3q54 5 68 20q16 19 22 19q7 0 7 -11q0 -3 -4 -26q-5 -28 -7 -56q-6 -58 -6 -92q0 -28 -10 -28t-10 13q0 29 -6 48q-13 44 -76 51q-68 7 -207 7q-10 0 -10 -10v-376q3 -76 32 -97q31 -22 136 -22q102 0 139 16
q51 21 66 105q3 21 13 21q8 0 8 -21q0 -70 -19 -141q-7 -27 -21 -33q-11 -5 -57 -5q-102 0 -245 5q-75 4 -113 4q-28 0 -58 -1l-84 -3q-23 0 -23 11q0 9 11 9q18 0 44 6q32 7 42 79q7 61 7 315v255z" />
    <glyph glyph-name="F" unicode="F" horiz-adv-x="854" 
d="M258 671q0 267 -3 314q-2 39 -14 56q-13 19 -48 26q-20 5 -49 5q-12 0 -12 8q0 12 23 12q73 0 105 -2l59 -3q204 -7 357 2q52 2 63 6q24 8 21 8q8 0 8 -13q0 -3 -4 -22q-5 -23 -7 -46q-1 -6 -3 -46t-4 -49q-4 -16 -12 -16q-10 0 -10 17q0 28 -13 55q-21 45 -99 46l-223 5
q-13 0 -13 -16v-400q0 -13 10 -13l186 1q45 0 65 2q51 3 67 26q10 14 16 14q7 0 7 -11q0 -3 -4 -26q-5 -29 -8 -56q-6 -58 -6 -97q0 -27 -10 -27t-10 13q-2 32 -9 52q-15 44 -75 52q-36 4 -219 4q-10 0 -10 -13v-123q0 -254 7 -315q7 -72 57 -79q40 -6 65 -6q12 0 12 -9
q0 -11 -24 -11q-48 0 -116 2l-62 2l-57 -2q-59 -2 -85 -2q-23 0 -23 11q0 9 11 9q18 0 44 6q32 7 42 79q7 61 7 315v255z" />
    <glyph glyph-name="G" unicode="G" horiz-adv-x="1247" 
d="M947 365q0 88 -11 113q-10 25 -54 37q-16 4 -50 4q-11 0 -11 9q0 11 23 11q40 0 103 -2l61 -2l57 2q58 2 85 2q23 0 23 -11q0 -9 -12 -9t-36 -4q-50 -10 -53 -83q-3 -46 -3 -151v-162q0 -48 -3 -60q-3 -10 -16 -18q-123 -66 -308 -66q-299 0 -477 155q-72 63 -119 168
q-53 117 -53 246q0 164 73 295q64 116 169 182q146 91 386 91q109 0 221 -25q54 -12 118 -14q17 -1 17 -13q0 6 -5 -56t-5 -150q0 -30 -13 -30q-8 0 -10 21q-2 50 -30 96q-31 47 -114 79q-97 38 -227 38q-190 0 -311 -95q-143 -114 -143 -369q0 -135 58 -259q42 -91 96 -142
q158 -155 380 -155q113 0 165 30q29 15 29 51v246z" />
    <glyph glyph-name="H" unicode="H" horiz-adv-x="1359" 
d="M1134 416q0 -254 7 -315q7 -72 57 -79q40 -6 65 -6q12 0 12 -9q0 -11 -24 -11q-48 0 -116 2l-62 2l-57 -2q-59 -2 -85 -2q-23 0 -23 11q0 9 11 9q18 0 44 6q32 7 42 79q7 61 7 315v152q0 9 -9 9h-614q-9 0 -9 -9v-152q0 -254 7 -315q7 -72 57 -79q40 -6 65 -6q12 0 12 -9
q0 -11 -24 -11q-48 0 -116 2l-62 2l-57 -2q-59 -2 -85 -2q-23 0 -23 11q0 9 11 9q18 0 44 6q32 7 42 79q7 61 7 315v255q0 267 -3 314q-2 39 -14 56q-13 19 -48 26q-20 5 -49 5q-12 0 -12 8q0 12 23 12q40 0 104 -2l60 -3l58 3q58 2 84 2q23 0 23 -12q0 -8 -11 -8
q-7 0 -37 -5q-49 -9 -53 -82q-3 -47 -3 -314v-30q0 -9 9 -9h614q9 0 9 9v30q0 267 -3 314q-2 39 -14 56q-13 19 -48 26q-20 5 -49 5q-12 0 -12 8q0 12 23 12q40 0 104 -2l60 -3l58 3q58 2 84 2q23 0 23 -12q0 -8 -11 -8q-7 0 -37 -5q-49 -9 -53 -82q-3 -47 -3 -314v-255z
" />
    <glyph glyph-name="I" unicode="I" horiz-adv-x="621" 
d="M380 416q0 -254 7 -315q7 -72 57 -79q40 -6 65 -6q12 0 12 -9q0 -11 -24 -11q-48 0 -116 2l-62 2l-57 -2q-59 -2 -85 -2q-23 0 -23 11q0 9 11 9q18 0 44 6q32 7 42 79q7 61 7 315v255q0 267 -3 314q-4 70 -49 81q-24 6 -45 6q-12 0 -12 8q0 12 24 12q29 0 88 -2l58 -3
l58 3q58 2 84 2q23 0 23 -12q0 -8 -11 -8q-7 0 -37 -5q-49 -9 -53 -82q-3 -47 -3 -314v-255z" />
    <glyph glyph-name="J" unicode="J" horiz-adv-x="625" 
d="M380 323q0 -324 -44 -427q-44 -106 -211 -222q-44 -30 -57 -37q-6 -2 -10 -2q-10 0 -10 8t20 22q23 13 51 41q78 79 105 168q34 116 34 378v419q0 267 -3 314q-2 39 -14 56q-13 19 -48 26q-20 5 -49 5q-12 0 -12 8q0 12 23 12q40 0 104 -2l60 -3l58 3q58 2 84 2
q23 0 23 -12q0 -8 -11 -8q-7 0 -37 -5q-49 -9 -53 -82q-3 -47 -3 -314v-348z" />
    <glyph glyph-name="K" unicode="K" horiz-adv-x="1096" 
d="M258 671q0 267 -3 314q-2 39 -14 56q-13 19 -48 26q-20 5 -49 5q-12 0 -12 8q0 12 23 12q40 0 101 -2l59 -3l59 3q56 2 81 2q23 0 23 -12q0 -8 -11 -8q-8 0 -36 -5q-50 -9 -54 -82q-3 -47 -3 -314v-87h6q12 14 159 165l180 186q78 80 78 105q0 23 -18 30q-13 5 -13 12
q0 10 17 10q14 0 52 -2q39 -3 57 -3l59 3q58 2 80 2t22 -10t-15 -10q-34 0 -81 -21t-157 -124q-277 -270 -319 -318q214 -237 399 -409q147 -136 216 -165q45 -19 90 -19q19 0 19 -9q0 -11 -32 -11h-74q-68 0 -100 3q-72 7 -175 88q-169 138 -443 471h-7v-142q0 -254 7 -315
q9 -72 57 -79q40 -6 56 -6q12 0 12 -9q0 -11 -23 -11q-43 0 -106 2l-61 2l-58 -2q-56 -2 -81 -2q-23 0 -23 11q0 9 11 9q18 0 44 6q32 7 42 79q7 61 7 315v255z" />
    <glyph glyph-name="L" unicode="L" horiz-adv-x="885" 
d="M380 413q0 -300 32 -332q33 -33 174 -33q139 0 175 43q31 39 38 87q2 19 13 19q9 0 9 -22q0 -68 -22 -145q-8 -26 -21 -32q-15 -7 -70 -7q-88 0 -241 5q-81 4 -148 4l-59 -1q-43 -3 -83 -3q-23 0 -23 11q0 9 11 9q18 0 44 6q32 7 42 79q7 61 7 315v255q0 267 -3 314
q-2 39 -14 56q-13 19 -48 26q-20 5 -49 5q-12 0 -12 8q0 12 23 12q40 0 104 -2l60 -3l65 3q65 2 92 2q23 0 23 -12q0 -8 -12 -8q-18 0 -48 -5q-52 -9 -56 -82q-3 -47 -3 -314v-258z" />
    <glyph glyph-name="M" unicode="M" horiz-adv-x="1521" 
d="M1337 183q15 -134 78 -154q42 -13 94 -13q12 0 12 -7q0 -13 -30 -13q-135 0 -243 8q-40 4 -40 15q0 9 10 10q12 2 6 52l-70 748h-4l-355 -754q-37 -76 -48 -76t-45 66q-99 186 -170 337q-120 240 -191 413h-6l-58 -673q-2 -23 -2 -74q0 -36 38 -45q29 -7 55 -7
q12 0 12 -7q0 -13 -26 -13q-32 0 -83 2l-52 2l-51 -2q-48 -2 -71 -2q-25 0 -25 13q0 7 15 7q22 0 43 4q32 6 45 43q8 22 13 78l105 945q2 26 16 26q11 0 22 -22l443 -912l427 911q9 23 21 23q14 0 18 -39z" />
    <glyph glyph-name="N" unicode="N" horiz-adv-x="1387" 
d="M297 193q2 -88 15 -124q12 -36 42 -44q30 -9 72 -9q12 0 12 -9q0 -11 -26 -11h-293q-23 0 -23 11q0 9 11 9q35 0 60 9q26 7 35 46q8 36 8 138l2 831q0 72 16 72q4 0 50 -46l461 -498l211 -228l137 -150l-15 737q-2 72 -12 100q-12 29 -45 37q-35 8 -71 8q-12 0 -12 10
t29 10h274q26 0 26 -10t-15 -10q-18 0 -35 -5q-34 -7 -45 -36q-9 -24 -9 -93l-3 -850q0 -103 -13 -103t-106 93q-90 84 -378 393l-379 416z" />
    <glyph glyph-name="O" unicode="O" horiz-adv-x="1336" 
d="M229 917q161 195 435 195q250 0 407 -145q163 -150 163 -399t-158 -418q-164 -175 -421 -175q-275 0 -430 187q-132 160 -132 383q0 207 136 372zM365 181q130 -151 330 -151q143 0 249 91q151 129 151 407q0 249 -135 398q-124 137 -306 137q-189 0 -302 -120
q-121 -127 -121 -357q0 -249 134 -405z" />
    <glyph glyph-name="P" unicode="P" horiz-adv-x="913" 
d="M258 671q0 267 -3 314q-2 39 -14 56q-13 19 -48 26q-20 5 -49 5q-12 0 -12 8q0 12 23 12q39 0 102 -2l62 -3q12 0 78 3q67 2 105 2q182 0 269 -83q73 -68 73 -172q0 -153 -101 -250q-100 -95 -256 -95q-23 0 -30 1q-16 0 -16 10q0 13 39 13q106 0 178 68q73 69 73 169
q0 140 -81 223q-71 72 -199 72q-41 0 -62 -8q-12 -4 -12 -28v-596q0 -254 7 -315q9 -72 57 -79q40 -6 65 -6q12 0 12 -9q0 -11 -24 -11q-48 0 -116 2l-62 2l-55 -2q-58 -2 -84 -2q-23 0 -23 11q0 9 11 9q18 0 44 6q32 7 42 79q7 61 7 315v255z" />
    <glyph glyph-name="Q" unicode="Q" horiz-adv-x="1336" 
d="M887 25q-93 -50 -227 -50q-278 0 -434 187q-133 160 -133 383q0 207 136 372q161 195 435 195q249 0 407 -146q163 -150 163 -398q0 -170 -92 -315q-70 -110 -165 -172l298 -154q333 -171 610 -171q147 0 286 57q16 6 20 6q9 0 9 -9t-12 -14q-221 -101 -460 -101
q-247 0 -597 195zM365 181q130 -151 330 -151q143 0 249 91q151 129 151 407q0 249 -135 398q-124 137 -306 137q-189 0 -302 -120q-121 -127 -121 -357q0 -249 134 -405z" />
    <glyph glyph-name="R" unicode="R" horiz-adv-x="1090" 
d="M258 671q0 267 -3 314q-2 39 -14 56q-13 19 -48 26q-20 5 -49 5q-12 0 -12 8q0 12 23 12q40 0 104 -2l60 -3l75 3q70 2 96 2q177 0 265 -64q100 -70 100 -197q0 -175 -175 -335q230 -294 302 -371q85 -90 177 -105q27 -4 56 -4q13 0 13 -9q0 -11 -35 -11h-103
q-104 0 -155 27q-56 31 -196 213l-91 123l-67 92q-7 9 -18 9l-179 3q-10 0 -10 -12v-35q0 -254 7 -315q9 -72 57 -79q40 -6 65 -6q12 0 12 -9q0 -11 -23 -11q-49 0 -117 2l-62 2l-52 -2q-57 -2 -84 -2q-23 0 -23 11q0 9 11 9q18 0 44 6q32 7 42 79q7 61 7 315v255zM374 545
q0 -11 10 -17q39 -23 152 -23q70 0 109 27q89 61 89 223q0 136 -67 213t-184 77q-69 0 -97 -8q-12 -4 -12 -18v-474z" />
    <glyph glyph-name="S" unicode="S" horiz-adv-x="846" 
d="M165 14q-21 12 -21 56q0 73 7 153q1 23 11 23q11 0 11 -15q0 -34 4 -54q15 -75 79 -114q55 -34 135 -34q98 0 157 62q51 54 51 131q0 73 -37 129q-34 53 -130 132l-65 53q-189 156 -189 315q0 117 81 189q82 72 219 72q72 0 135 -14q37 -8 51 -8q15 0 15 -10q0 8 -3 -42
q-3 -51 -3 -111q0 -34 -10 -34t-12 19q-3 44 -19 73q-46 76 -181 76q-77 0 -126 -44q-52 -47 -52 -124q0 -62 36 -112q36 -51 140 -131l41 -32q123 -97 170 -178q42 -71 42 -163q0 -154 -123 -241q-89 -61 -219 -61q-114 0 -195 39z" />
    <glyph glyph-name="T" unicode="T" horiz-adv-x="1005" 
d="M567 416q0 -254 7 -315q9 -72 57 -79q40 -6 65 -6q12 0 12 -9q0 -11 -24 -11q-48 0 -116 2l-62 2l-57 -2q-59 -2 -85 -2q-23 0 -23 11q0 9 11 9q18 0 44 6q32 7 42 79q7 61 7 315v613l-214 -2q-119 -3 -148 -47q-17 -26 -25 -45q-5 -14 -15 -14q-7 0 -7 13q0 23 32 151
q10 27 15 27q2 0 21 -7q19 -8 42 -10q67 -8 115 -8h544q65 0 103 8q49 7 40 7q8 0 8 -17q0 -25 -2 -90l-3 -70q0 -19 -10 -19q-9 0 -12 25l-1 16q-7 76 -178 80l-183 2v-613z" />
    <glyph glyph-name="U" unicode="U" horiz-adv-x="1184" 
d="M174 671q0 267 -3 314q-2 39 -14 56q-13 19 -48 26q-20 5 -50 5q-11 0 -11 8q0 12 23 12q39 0 103 -2l64 -3l60 3q58 2 83 2q24 0 24 -12q0 -8 -12 -8q-8 0 -36 -5q-50 -8 -54 -82q-3 -47 -3 -314v-203q0 -253 109 -358q85 -80 219 -80q140 0 227 105q85 104 85 355v181
q0 267 -3 314q-2 38 -15 56q-13 19 -48 26q-18 5 -49 5q-12 0 -12 8q0 12 24 12q40 0 98 -2l55 -3l49 3q47 2 73 2q23 0 23 -12q0 -8 -11 -8q-7 0 -37 -5q-49 -11 -53 -82q-3 -47 -3 -314v-155q0 -315 -133 -433q-122 -108 -299 -108q-190 0 -299 103q-126 121 -126 382v211
z" />
    <glyph glyph-name="V" unicode="V" horiz-adv-x="1093" 
d="M573 173q216 500 310 804q13 41 13 55q0 24 -19 34q-17 6 -55 6q-16 0 -16 8q0 12 32 12q34 0 86 -2l56 -3l44 3q44 2 69 2t25 -10t-17 -10q-43 0 -70 -18q-36 -24 -80 -136q-21 -54 -162 -393q-159 -379 -187 -439q-52 -111 -61 -111q-17 0 -52 90l-356 889
q-23 58 -45 81q-19 19 -59 31q-22 6 -55 6q-12 0 -12 10t38 10q42 0 105 -2l65 -3l52 3q49 2 82 2q40 0 40 -10t-15 -10q-38 0 -55 -8q-19 -8 -19 -29q0 -16 39 -120z" />
    <glyph glyph-name="W" unicode="W" horiz-adv-x="1596" 
d="M1157 196h6l107 350q86 281 116 389q16 58 16 93q0 44 -83 44q-13 0 -13 10t25 10q45 0 97 -2l51 -3l45 3q45 2 72 2q21 0 21 -9q0 -11 -13 -11q-29 0 -50 -8q-45 -17 -94 -156q-32 -91 -136 -412q-102 -314 -131 -396q-43 -125 -61 -125q-16 0 -43 76l-284 806h-3
l-303 -805q-29 -77 -48 -77q-17 0 -51 115l-258 860q-28 92 -80 113q-24 9 -65 9q-13 0 -13 10t23 10q46 0 108 -2l63 -3l53 3q53 2 97 2q26 0 26 -10t-15 -10q-39 0 -56 -9q-19 -11 -19 -35q0 -11 27 -133q27 -113 195 -702h3l307 826q25 67 36 67q12 0 37 -68z" />
    <glyph glyph-name="X" unicode="X" horiz-adv-x="1002" 
d="M442 555l-232 390q-56 96 -113 116q-32 11 -61 11q-13 0 -13 10t25 10q24 0 95 -2l74 -3l55 3q53 2 82 2q24 0 24 -10t-13 -10q-27 0 -39 -5q-17 -5 -17 -24q0 -20 14 -48q93 -175 196 -347q162 229 213 341q15 33 15 52t-25 26q-14 5 -43 5q-13 0 -13 10t24 10
q33 0 80 -2l49 -3l48 3q45 2 74 2q23 0 23 -10t-16 -10q-27 0 -48 -8q-40 -12 -111 -117l-234 -351l152 -255q136 -227 154 -251q37 -50 86 -65q30 -9 51 -9q11 0 11 -9q0 -11 -20 -11q-158 0 -232 3q-45 1 -45 11q0 9 9 12q24 10 7 40l-250 432l-226 -384q-19 -34 -19 -64
q0 -21 24 -27q12 -3 27 -3q12 0 12 -10t-18 -10q-20 0 -77 2l-62 2l-53 -2q-51 -2 -79 -2q-14 0 -14 10t11 10q31 0 55 7q56 15 121 118z" />
    <glyph glyph-name="Y" unicode="Y" horiz-adv-x="970" 
d="M419 371q0 79 -33 152q-45 107 -256 418q-51 76 -98 107q-35 24 -62 24q-15 0 -15 10t19 10q16 0 79 -2l64 -3l44 3q44 2 78 2q19 0 19 -10q0 -5 -22 -13q-19 -10 -19 -26q0 -19 19 -57q198 -347 267 -458q52 113 241 426q24 39 24 74t-23 41q-21 6 -21 14q0 9 23 9
q22 0 57 -2l38 -3l64 3q61 2 77 2q19 0 19 -9q0 -11 -19 -11q-33 0 -67 -21q-32 -19 -76 -74q-173 -209 -277 -461q-22 -52 -22 -145v-125q0 -84 4 -145q5 -72 60 -79q40 -6 65 -6q11 0 11 -9q0 -11 -23 -11q-48 0 -116 2l-62 2l-57 -2q-59 -2 -85 -2q-23 0 -23 11q0 9 11 9
q18 0 44 6q40 8 45 79q4 61 4 145v125z" />
    <glyph glyph-name="Z" unicode="Z" horiz-adv-x="1013" 
d="M661 58q179 0 229 71q22 32 29 78q5 24 13 24q12 0 12 -34q0 -48 -29 -167q-7 -26 -13 -31q-6 -6 -31 -6q-119 0 -365 4q-245 3 -374 3q-26 0 -26 12q0 9 20 40q467 705 637 980h-315q-154 0 -209 -29q-73 -38 -82 -114q-4 -26 -16 -26q-9 0 -9 19q0 14 29 192
q4 28 14 28q4 0 21 -5q17 -4 40 -5q115 -5 253 -5h404q29 0 29 -11q0 -9 -6 -18l-649 -1000h394z" />
    <glyph glyph-name="bracketleft" unicode="[" horiz-adv-x="530" 
d="M141 1060q0 12 4 16q4 3 20 3h247q17 0 17 -10q0 -11 -24 -12q-115 -10 -159 -30q-10 -44 -10 -135v-885q0 -91 10 -135q43 -19 157 -30q25 -3 25 -12q0 -10 -18 -10h-246q-16 0 -20 4q-3 3 -3 19v1217z" />
    <glyph glyph-name="backslash" unicode="\" horiz-adv-x="773" 
d="M688 -20q-10 -5 -16 5l-640 1029q-4 8 3 14l41 25q12 6 20 -6l635 -1018q10 -15 0 -20z" />
    <glyph glyph-name="bracketright" unicode="]" horiz-adv-x="530" 
d="M381 -161q0 -12 -4 -15q-4 -4 -20 -4h-247q-17 0 -17 10q0 9 24 12q115 10 158 30q11 43 11 135v885q0 92 -11 135q-42 19 -156 30q-25 1 -25 12q0 10 18 10h246q16 0 20 -4q3 -3 3 -19v-1217z" />
    <glyph glyph-name="asciicircum" unicode="^" horiz-adv-x="738" 
d="M407 1089l289 -618h-78l-248 538l-248 -538h-79l289 618h75z" />
    <glyph glyph-name="underscore" unicode="_" horiz-adv-x="725" 
d="M725 -109v-72h-725v72h725z" />
    <glyph glyph-name="grave" unicode="`" horiz-adv-x="385" 
d="M63 1289q-42 17 -42 25q0 6 16 11q30 9 74 24q33 11 36 11q-1 0 22 -23q3 -4 87 -66q83 -62 83 -60q0 -8 -13 -8q-43 0 -263 86z" />
    <glyph glyph-name="a" unicode="a" horiz-adv-x="913" 
d="M419 903q19 48 30 48q10 0 31 -45l132 -323l174 -425q48 -115 109 -135q21 -7 50 -7q16 0 16 -10t-29 -10q-113 0 -201 3q-45 2 -45 8q0 5 9 9q22 9 11 33l-114 283q-3 7 -12 7h-294q-10 0 -13 -10l-73 -197q-19 -49 -19 -83q0 -33 44 -33h11q13 0 13 -10t-18 -10t-64 2
l-51 2l-50 -2q-48 -2 -79 -2q-25 0 -25 10t12 10q22 0 38 3q65 8 107 113zM561 390q7 0 4 9l-126 338q-10 27 -21 0l-119 -338q-3 -9 4 -9h258z" />
    <glyph glyph-name="b" unicode="b" horiz-adv-x="941" 
d="M225 571q0 226 -3 266q-2 35 -11 49q-12 18 -41 22q-33 3 -44 3q-10 0 -10 7q0 10 20 10l93 -1l55 -2l150 3q142 0 214 -70q54 -52 54 -119q0 -101 -129 -216q86 -26 148 -87q76 -74 76 -169q0 -113 -78 -189q-88 -85 -242 -85q-57 0 -110 4q-61 3 -83 3l-52 -1
q-39 -3 -77 -3q-20 0 -20 10q0 7 10 7q6 0 39 6q24 4 33 68q8 51 8 267v217zM335 545q0 -10 9 -13q42 -6 78 -6q96 0 125 32q49 56 49 132q0 80 -42 135q-49 64 -138 64q-35 0 -65 -6q-16 -4 -16 -13v-325zM335 409q0 -244 1 -263q4 -49 9 -61q8 -18 35 -31q39 -18 112 -18
q187 0 187 190q0 147 -122 225q-23 14 -115 32q-16 3 -100 3q-7 0 -7 -9v-68z" />
    <glyph glyph-name="c" unicode="c" horiz-adv-x="1027" 
d="M235 112q-155 133 -155 365q0 197 143 336q137 132 389 132q98 0 185 -14q97 -18 131 -19q16 0 16 -13l-6 -70l-3 -126q-1 -26 -14 -26q-10 0 -10 26q0 80 -54 123q-82 69 -251 69q-195 0 -287 -86q-115 -106 -115 -322q0 -182 128 -311q132 -135 332 -135q153 0 210 58
q36 34 50 103q4 17 13 17q11 0 11 -17q0 -60 -30 -159q-8 -26 -32 -36q-70 -27 -231 -27q-268 0 -420 132z" />
    <glyph glyph-name="d" unicode="d" horiz-adv-x="1182" 
d="M225 571q0 226 -3 266q-2 34 -11 48q-11 16 -41 20q-33 3 -44 3q-10 0 -10 10t20 10l93 -1l55 -2l63 2q63 1 108 1q172 0 247 -13q167 -29 265 -128q125 -123 125 -313q0 -206 -138 -346q-138 -143 -387 -143q-31 0 -178 8q-98 7 -105 7l-52 -1q-39 -3 -77 -3
q-20 0 -20 10t10 10q17 0 39 6q25 6 33 65q8 51 8 267v217zM341 438q0 -245 1 -268q5 -76 15 -89q34 -49 211 -49q181 0 299 112q100 93 100 292q0 189 -120 309q-137 138 -413 138q-57 0 -77 -9q-16 -5 -16 -24v-412z" />
    <glyph glyph-name="e" unicode="e" horiz-adv-x="804" 
d="M225 571q0 226 -3 266q-2 34 -11 48q-11 16 -41 20q-33 3 -44 3q-10 0 -10 10t20 10l93 -1l55 -2h305q14 1 34 4l24 3q15 6 17 6q6 0 6 -11q0 -3 -4 -20q-4 -19 -6 -38q-1 -5 -4 -40q-2 -34 -4 -42q-3 -13 -11 -13q-10 0 -10 16q0 24 -8 44q-11 28 -91 37q-37 5 -184 5
q-7 0 -7 -13v-335q0 -13 7 -13q184 0 213 3q50 5 62 17q16 16 19 16q8 0 8 -10l-4 -22q-5 -22 -7 -46q-5 -62 -5 -80q0 -23 -12 -23q-9 0 -9 11q0 25 -5 41q-9 31 -66 38q-44 5 -193 5q-8 0 -8 -8v-313q2 -62 30 -81q28 -18 122 -18t128 13q47 20 58 86q3 18 13 18
q8 0 8 -18q0 -56 -17 -119q-6 -23 -20 -28q-11 -4 -51 -4l-222 4q-54 3 -106 3q-27 0 -55 -1q-37 -3 -74 -3q-20 0 -20 10t10 10q6 0 39 6q25 4 33 65q8 51 8 267v217z" />
    <glyph glyph-name="f" unicode="f" horiz-adv-x="772" 
d="M225 571q0 226 -3 266q-2 34 -11 48q-11 16 -41 20q-33 3 -44 3q-10 0 -10 10t20 10l92 -1l53 -2h331q53 4 58 6q4 1 10 4q5 3 7 3q9 0 9 -11q0 -4 -3 -20q-5 -19 -7 -38q-1 -5 -3 -40q-1 -34 -3 -42q-3 -13 -12 -13q-10 0 -10 15q0 21 -11 46q-18 36 -87 36l-209 3
q-10 0 -10 -13v-336q0 -12 8 -12l174 2q41 0 58 1q46 4 60 22q11 13 16 13q7 0 7 -10l-5 -22q-5 -22 -7 -46q-4 -50 -4 -83q0 -25 -11 -25q-9 0 -9 12q-6 37 -9 45q-11 31 -65 39q-24 3 -205 3q-8 0 -8 -12v-98q0 -219 6 -267q6 -58 46 -65q38 -6 58 -6q10 0 10 -10t-20 -10
q-44 0 -104 2l-56 2l-51 -2q-51 -2 -75 -2q-20 0 -20 10t10 10q6 0 39 6q25 4 33 65q8 51 8 267v217z" />
    <glyph glyph-name="g" unicode="g" horiz-adv-x="1119" 
d="M825 310q0 77 -8 96q-9 22 -47 29q-30 3 -44 3q-10 0 -10 10t21 10l94 -1l56 -2l125 3q20 0 20 -10t-10 -10q-17 0 -32 -3q-44 -8 -48 -68q-1 -39 -1 -128v-138q0 -42 -2 -51q-3 -9 -15 -15q-107 -55 -272 -55q-265 0 -420 132q-152 127 -152 351q0 139 64 250
q57 98 149 154q127 78 339 78q113 0 196 -20q56 -13 103 -13q16 0 16 -12l-3 -47q-4 -52 -4 -127q0 -26 -15 -26q-9 0 -9 19q-3 45 -29 81q-65 96 -294 96q-162 0 -267 -80q-126 -95 -126 -310q0 -115 51 -220q37 -77 84 -121q139 -129 326 -129q96 0 138 23q26 15 26 38
v213z" />
    <glyph glyph-name="h" unicode="h" horiz-adv-x="1247" 
d="M1003 354q0 -199 8 -267q4 -33 10 -44q9 -17 36 -21q34 -6 57 -6q11 0 11 -10t-22 -10q-42 0 -102 2l-56 2l-51 -2q-52 -2 -75 -2q-20 0 -20 10t10 10q14 0 38 6q27 6 35 66q5 51 5 263v123q0 7 -7 7h-532q-7 0 -7 -7v-123q0 -213 6 -264q4 -32 10 -44q10 -17 36 -21
q38 -6 58 -6q10 0 10 -10t-20 -10q-44 0 -103 2l-55 2l-52 -2q-53 -2 -76 -2q-20 0 -20 10t10 10q17 0 39 6q25 6 33 65q8 51 8 267v217q0 226 -3 266q-2 34 -11 48q-11 16 -41 20q-33 3 -44 3q-10 0 -10 10t20 10l92 -1l55 -2l126 3q20 0 20 -10t-10 -10q-17 0 -32 -3
q-25 -5 -34 -20q-9 -14 -11 -48q-1 -40 -1 -269v-26q0 -7 7 -7h532q7 0 7 7v26q0 209 -3 269q-2 34 -10 48q-10 16 -40 20q-30 3 -44 3q-10 0 -10 10t20 10l92 -1l53 -2l127 3q21 0 21 -10t-11 -10q-16 0 -32 -3q-40 -8 -44 -68q-3 -40 -3 -266v-217z" />
    <glyph glyph-name="i" unicode="i" horiz-adv-x="565" 
d="M341 354q0 -216 6 -267q4 -32 10 -44q10 -17 36 -21q38 -6 58 -6q10 0 10 -10t-20 -10q-44 0 -104 2l-56 2l-51 -2q-51 -2 -75 -2q-20 0 -20 10t10 10q17 0 39 6q26 6 33 65q8 68 8 267v217q0 226 -3 266q-4 59 -41 66q-23 5 -39 5q-10 0 -10 10t20 10l78 -1l51 -2l128 3
q20 0 20 -10t-10 -10q-17 0 -32 -3q-25 -5 -34 -20q-9 -14 -11 -48q-1 -40 -1 -266v-217z" />
    <glyph glyph-name="j" unicode="j" horiz-adv-x="539" 
d="M341 275q0 -264 -42 -363q-41 -93 -187 -189q-27 -18 -53 -32l-8 -1q-9 0 -9 7q0 11 16 20q20 12 45 34q69 68 92 144q30 97 30 320v356q0 226 -3 266q-2 34 -11 48q-11 16 -41 20q-33 3 -44 3q-10 0 -10 10t20 10l93 -1l55 -2l125 3q20 0 20 -10t-10 -10q-17 0 -32 -3
q-25 -5 -34 -20q-9 -14 -11 -48q-1 -40 -1 -266v-296z" />
    <glyph glyph-name="k" unicode="k" horiz-adv-x="973" 
d="M225 571q0 226 -3 266q-2 34 -11 48q-11 16 -41 20q-33 3 -44 3q-10 0 -10 10t20 10l91 -1l53 -2l126 3q20 0 20 -10t-10 -10q-16 0 -32 -3q-41 -9 -45 -68q-3 -40 -3 -266v-74h6q11 13 138 139l158 159q70 70 70 88q0 22 -16 25q-12 2 -12 11t15 9l95 -3l123 3
q19 0 19 -9q0 -10 -13 -10q-28 0 -71 -17q-45 -20 -133 -105q-207 -187 -277 -268q170 -185 351 -349q127 -114 182 -137q44 -17 79 -17q16 0 16 -10t-28 -10h-65q-60 0 -89 3q-63 5 -155 75q-140 109 -387 400h-6v-120q0 -216 6 -267q4 -32 12 -44q10 -17 37 -21
q36 -6 50 -6q10 0 10 -10t-20 -10q-38 0 -95 2l-55 2l-52 -2q-51 -2 -74 -2q-20 0 -20 10t10 10q17 0 39 6q25 6 33 65q8 51 8 267v217z" />
    <glyph glyph-name="l" unicode="l" horiz-adv-x="785" 
d="M341 351q0 -252 26 -277q29 -29 169 -29q123 0 154 38q22 24 31 69q2 16 13 16q8 0 8 -19q0 -58 -18 -123q-7 -22 -19 -27q-13 -6 -63 -6q-142 0 -222 4q-87 3 -139 3q-27 0 -52 -1q-39 -3 -74 -3q-20 0 -20 10t10 10q17 0 39 6q25 6 33 65q8 51 8 267v217q0 226 -3 266
q-2 34 -11 48q-11 16 -41 20q-33 3 -44 3q-10 0 -10 10t20 10l92 -1l53 -2l141 3q20 0 20 -10q0 -9 -10 -9q-19 0 -42 -3q-27 -5 -37 -21q-9 -14 -11 -48q-1 -40 -1 -266v-220z" />
    <glyph glyph-name="m" unicode="m" horiz-adv-x="1338" 
d="M1180 155q13 -110 66 -127q36 -12 82 -12q10 0 10 -9q0 -11 -26 -11q-136 0 -217 7q-37 4 -37 13t9 10q11 3 6 44l-61 623h-3l-307 -629q-31 -65 -45 -65q-13 0 -44 56q-106 196 -149 286q-153 314 -162 336h-6l-50 -557q-1 -19 -1 -62q0 -27 30 -35q26 -7 50 -7
q10 0 10 -9q0 -11 -23 -11q-29 0 -74 2l-45 2l-45 -2q-42 -2 -62 -2q-22 0 -22 11q0 9 13 9t38 4q28 5 38 35q4 13 11 64l93 805q2 21 14 21q17 0 26 -18l386 -766l371 764q10 20 20 20q15 0 19 -33z" />
    <glyph glyph-name="n" unicode="n" horiz-adv-x="1215" 
d="M278 164q2 -76 13 -105q10 -29 37 -36t63 -7q11 0 11 -10t-24 -10q-44 0 -90 2l-44 2l-45 -2q-44 -2 -79 -2q-20 0 -20 10t10 10q31 0 52 7q23 7 31 38q6 29 6 116v706q0 62 17 62q12 0 49 -37l136 -142l267 -279l184 -192l118 -125l-13 617q-1 62 -10 85q-10 25 -38 30
q-34 6 -62 6q-10 0 -10 11q0 9 24 9q34 0 83 -1l51 -2l40 2q37 1 68 1q24 0 24 -9q0 -11 -15 -11q-16 0 -30 -3q-30 -6 -38 -30q-7 -18 -7 -78l-3 -722q0 -88 -10 -88q-15 0 -97 75q-74 63 -333 334l-330 349z" />
    <glyph glyph-name="o" unicode="o" horiz-adv-x="1177" 
d="M201 779q143 166 385 166q220 0 360 -123q144 -128 144 -339q0 -212 -140 -355q-145 -148 -371 -148q-243 0 -381 159q-118 136 -118 325q0 175 121 315zM327 156q112 -126 288 -126q125 0 215 75q130 108 130 343q0 212 -115 337q-106 114 -266 114q-166 0 -264 -100
q-103 -106 -103 -302q0 -212 115 -341z" />
    <glyph glyph-name="p" unicode="p" horiz-adv-x="859" 
d="M225 571q0 226 -3 266q-2 34 -11 48q-11 16 -41 20q-33 3 -44 3q-10 0 -10 10t20 10l92 -1l56 -2l181 3q163 0 244 -70q64 -57 64 -148q0 -132 -91 -213t-238 -81q-29 0 -37 2q-13 0 -13 11q0 13 34 13q102 0 169 58q67 56 67 141q0 116 -72 187q-59 59 -173 59
q-36 0 -71 -8q-10 -3 -10 -24v-501q0 -216 6 -267q6 -58 50 -65q36 -6 57 -6q10 0 10 -10t-20 -10q-43 0 -104 2l-56 2l-50 -2q-52 -2 -76 -2q-20 0 -20 10t10 10q17 0 39 6q25 6 33 65q8 51 8 267v217z" />
    <glyph glyph-name="q" unicode="q" horiz-adv-x="1179" 
d="M780 17q-74 -37 -201 -37q-245 0 -383 159q-118 136 -118 325q0 175 121 315q143 166 385 166q220 0 360 -124q145 -128 145 -338q0 -145 -81 -268q-62 -94 -144 -145l261 -129q293 -145 535 -145q119 0 250 47q13 5 18 5q8 0 8 -9t-10 -13q-196 -86 -406 -86
q-228 0 -528 163zM324 157q112 -127 288 -127q125 0 216 76q130 108 130 342q0 210 -116 335q-107 116 -266 116q-167 0 -264 -100q-103 -106 -103 -302q0 -210 115 -340z" />
    <glyph glyph-name="r" unicode="r" horiz-adv-x="971" 
d="M225 571q0 226 -3 266q-2 34 -11 48q-11 16 -41 20q-33 3 -44 3q-10 0 -10 10t20 10l95 -1l56 -2l160 3q161 0 237 -54q89 -64 89 -168q0 -148 -157 -281q199 -248 267 -319q73 -75 142 -86q25 -4 45 -4q12 0 12 -10t-31 -10h-80q-91 0 -136 24q-53 28 -174 182
q-27 33 -78 102q-46 61 -60 77q-7 8 -17 8l-162 2q-9 0 -9 -10v-29q0 -214 6 -265q6 -58 50 -65q36 -6 57 -6q10 0 10 -10t-20 -10q-43 0 -102 2l-55 2l-49 -2q-53 -2 -77 -2q-20 0 -20 10t10 10q17 0 39 6q25 6 33 65q8 51 8 267v217zM335 467q0 -10 9 -16q34 -19 140 -19
q63 0 96 22q77 52 77 188q0 115 -59 179q-59 63 -162 63q-61 0 -91 -7q-10 -5 -10 -14v-396z" />
    <glyph glyph-name="s" unicode="s" horiz-adv-x="706" 
d="M117 13q-18 10 -18 46q0 61 7 131q0 20 10 20q12 0 12 -14q0 -28 4 -45q14 -62 76 -95q53 -27 125 -27q92 0 144 47q48 44 48 117q0 62 -38 109q-30 36 -123 105l-58 44q-183 137 -183 264q0 107 79 170q76 62 204 62q74 0 132 -15q25 -5 45 -5q13 0 13 -9q0 7 -3 -36
t-3 -95q0 -27 -10 -27q-9 0 -12 16q-2 32 -18 61q-39 61 -166 61q-73 0 -119 -34q-50 -37 -50 -100q0 -58 35 -101q34 -42 130 -108l36 -24q209 -143 209 -298q0 -132 -119 -210q-66 -43 -203 -43q-116 0 -186 33z" />
    <glyph glyph-name="t" unicode="t" horiz-adv-x="890" 
d="M503 354q0 -216 6 -267q6 -58 49 -65q36 -6 58 -6q10 0 10 -10t-20 -10q-43 0 -103 2l-55 2l-54 -2q-55 -2 -78 -2q-20 0 -20 10q0 8 10 8q14 0 38 6q30 7 37 67q6 51 6 267v517l-184 -2q-105 -3 -129 -40q-7 -10 -20 -39q-3 -11 -13 -11q-9 0 -9 10q0 7 13 68
q14 62 14 65q10 23 13 23t19 -5q18 -7 38 -9q54 -6 100 -6h481q52 0 92 6l36 6q6 0 6 -15q0 -22 -2 -79l-2 -61q0 -16 -12 -16q-9 0 -10 21l-2 13q-7 65 -153 69l-160 2v-517z" />
    <glyph glyph-name="u" unicode="u" horiz-adv-x="1090" 
d="M159 571q0 226 -2 266q-5 61 -53 68q-30 3 -43 3q-10 0 -10 10t20 10l91 -1l55 -2l130 3q21 0 21 -10t-11 -10q-16 0 -32 -3q-39 -7 -44 -68q-3 -40 -3 -266v-172q0 -217 95 -302q74 -67 190 -67q123 0 197 87q72 87 72 299v155q0 206 -3 266q-2 61 -50 68q-33 3 -44 3
q-10 0 -10 10t20 10l88 -1l50 -2l107 3q21 0 21 -10t-11 -10q-15 0 -31 -3q-41 -8 -45 -68q-2 -27 -2 -266v-132q0 -267 -119 -369q-105 -90 -267 -90q-172 0 -265 87q-112 105 -112 323v181z" />
    <glyph glyph-name="v" unicode="v" horiz-adv-x="960" 
d="M505 157q187 418 268 674q11 35 11 46q0 21 -17 26q-14 5 -43 5q-15 0 -15 10t29 10l76 -1l49 -2l38 2l62 1q20 0 20 -9q0 -11 -14 -11q-38 0 -61 -15q-35 -21 -71 -113l-52 -123l-90 -210q-172 -391 -164 -375q-44 -92 -55 -92q-17 0 -48 75l-313 756q-33 79 -89 92
q-20 5 -49 5q-10 0 -10 11q0 9 33 9l91 -1l58 -2l46 2l73 1q35 0 35 -9q0 -11 -13 -11q-29 0 -46 -6q-15 -7 -15 -22q0 -13 35 -103z" />
    <glyph glyph-name="w" unicode="w" horiz-adv-x="1405" 
d="M1018 178h6q166 528 191 617q15 53 15 76q0 37 -69 37q-11 0 -11 11q0 9 22 9q39 0 85 -1l45 -2l40 2l63 1q17 0 17 -7q0 -13 -11 -13q-21 0 -44 -6q-42 -15 -82 -131q-28 -77 -119 -350q-89 -265 -115 -335q-38 -106 -55 -106q-19 0 -42 63l-249 675l-130 -334
q-108 -279 -133 -339q-27 -65 -45 -65q-19 0 -49 97l-226 731q-25 78 -67 92q-23 8 -58 8q-12 0 -12 11q0 9 21 9q40 0 95 -1l56 -2l47 2q47 1 86 1q23 0 23 -9q0 -11 -13 -11q-30 0 -45 -8q-17 -4 -17 -26q0 -20 24 -114q87 -325 167 -582h3l267 689q22 57 35 57t34 -58z
" />
    <glyph glyph-name="x" unicode="x" horiz-adv-x="887" 
d="M386 473l-203 330q-49 82 -97 96q-31 9 -54 9q-12 0 -12 11q0 9 22 9l149 -3l125 3q22 0 22 -9q0 -11 -12 -11q-24 0 -35 -3q-16 -3 -16 -19q0 -18 14 -41q102 -186 168 -291q158 230 184 287q13 22 13 43q0 13 -22 21q-13 3 -35 3q-11 0 -11 11q0 9 22 9l70 -1l43 -2
l41 2l66 1q20 0 20 -9q0 -11 -13 -11q-22 0 -43 -6q-39 -13 -96 -97l-204 -299q278 -439 269 -429q36 -44 73 -54q30 -7 43 -7q10 0 10 -10t-17 -10q-139 0 -209 3q-39 1 -39 10q0 7 7 10q8 1 11 10q4 11 -3 25l-217 364l-195 -324q-16 -27 -16 -55q0 -15 20 -20
q11 -3 23 -3t12 -12q0 -8 -16 -8q-18 0 -70 2l-56 2l-46 -2q-45 -2 -70 -2q-12 0 -12 8q0 12 10 12q15 0 48 7q50 13 105 96z" />
    <glyph glyph-name="y" unicode="y" horiz-adv-x="835" 
d="M370 316q0 74 -28 126q-42 80 -226 358q-36 57 -84 90q-28 18 -54 18q-13 0 -13 11q0 9 16 9l126 -3l40 2q41 1 70 1q18 0 18 -9q0 -4 -20 -13q-16 -6 -16 -20q0 -18 17 -48l232 -384q15 31 106 183l103 174q22 37 22 63t-21 32q-19 5 -19 15q0 7 21 7l53 -1l35 -2l125 3
q16 0 16 -7q0 -13 -16 -13q-29 0 -60 -16q-27 -17 -63 -61q-130 -152 -248 -392q-16 -31 -16 -123v-106q0 -72 4 -123q5 -58 49 -65q36 -6 58 -6q11 0 11 -10t-21 -10q-43 0 -104 2l-57 2l-50 -2q-52 -2 -74 -2q-21 0 -21 10t10 10q16 0 38 6q33 8 38 65q3 51 3 123v106z
" />
    <glyph glyph-name="z" unicode="z" horiz-adv-x="887" 
d="M589 54q152 0 198 56q15 19 26 67q5 19 15 19t10 -28q0 -52 -26 -142q-5 -23 -11 -27q-5 -5 -27 -5q-105 0 -322 3t-330 3q-23 0 -23 10q0 14 17 38q381 552 555 825h-269q-143 0 -182 -20q-63 -34 -72 -98q-3 -21 -18 -21q-7 0 -7 16q0 26 26 163q3 24 12 24q4 0 19 -4
t35 -5q91 -3 223 -3h357q26 0 26 -10q0 -13 -8 -22l-564 -839h340z" />
    <glyph glyph-name="braceleft" unicode="{" horiz-adv-x="579" 
d="M278 391q15 -53 15 -217q0 -282 109 -328q32 -12 32 -19t-27 -7q-78 0 -149 97q-74 103 -74 331q0 21 5 76q5 54 5 79q0 30 -10 46q-13 23 -85 37q-18 3 -18 11q0 12 18 13q61 4 78 18q22 19 22 81q0 29 -7 85q-8 55 -8 70q0 170 93 255q66 60 136 60q19 0 19 -7
q0 -6 -23 -14q-39 -11 -71 -48q-45 -52 -45 -133q0 -216 -12 -261q-22 -85 -87 -110q61 -31 84 -115z" />
    <glyph glyph-name="bar" unicode="|" horiz-adv-x="353" 
d="M145 -363v1450h78v-1450h-78z" />
    <glyph glyph-name="braceright" unicode="}" horiz-adv-x="579" 
d="M241 616q-12 45 -12 261q0 80 -46 133q-31 36 -70 48q-23 8 -23 12q0 9 19 9q70 0 136 -60q93 -85 93 -255q0 -16 -5 -55l-8 -69q-7 -86 14 -106q18 -18 84 -24q18 -1 18 -13q0 -8 -18 -11q-72 -14 -85 -37v-201q0 -228 -74 -331q-71 -97 -149 -97q-27 0 -27 6q0 8 32 20
q109 39 109 328q0 165 15 217q23 84 84 115q-65 25 -87 110z" />
    <glyph glyph-name="asciitilde" unicode="~" horiz-adv-x="738" 
d="M89 290q-1 86 39 131q36 42 99 42q53 0 158 -50q102 -48 135 -48q57 -1 60 96h71q7 -172 -134 -172q-58 0 -159 49q-99 49 -134 49q-61 0 -64 -96z" />
    <glyph glyph-name="Euro" unicode="&#x20ac;" horiz-adv-x="857" 
d="M656 500q17 0 12 -13l-13 -33q-4 -9 -20 -9h-389q22 -178 106 -291q92 -125 229 -125q149 0 197 128q14 37 25 37q19 0 4 -56q-15 -72 -19 -87q-9 -30 -37 -42q-81 -34 -171 -34q-206 0 -329 147q-103 123 -130 323h-117q-18 0 -12 13l13 34q3 8 21 8h91q-1 8 -1 61
q0 33 3 64h-109q-18 0 -12 13l13 33q3 9 21 9h94q29 188 133 305q114 127 284 127q79 0 145 -17q80 -20 111 -22q18 -1 18 -16l-3 -25q-3 -26 -4 -55l-3 -88q0 -34 -11 -34q-9 0 -18 43q-12 51 -36 81q-65 79 -204 79q-260 0 -295 -378h490q17 0 12 -13l-13 -33
q-4 -9 -20 -9h-470q-3 -39 -3 -61q0 -25 3 -64h414z" />
    <glyph glyph-name="quotesinglbase" unicode="&#x201a;" horiz-adv-x="290" 
d="M94 165q-13 15 -13 25q0 9 13 9q27 0 102 -26q24 -13 24 -38q0 -135 -124 -286q-7 -11 -19 -11q-7 0 -7 7t5 19q48 100 48 207q0 62 -29 94z" />
    <glyph glyph-name="florin" unicode="&#x192;" horiz-adv-x="827" 
d="M231 496q-77 0 -109 -4q-8 -2 -12 2q-5 4 -1 11l14 29q11 17 21 17l23 -2q22 -2 43 -2h89q29 315 140 451q97 114 238 114q84 0 145 -26q18 -8 18 -22q0 -34 -16 -156q-4 -28 -13 -28q-11 0 -11 28q0 51 -23 95q-31 60 -119 60q-127 0 -178 -121q-39 -90 -73 -395h169
q39 0 71 3l30 2q20 0 7 -21l-16 -28q-7 -14 -29 -14l-50 3q-51 2 -84 2h-102l-31 -246q-22 -174 -37 -247q-51 -250 -187 -316q-43 -21 -105 -21q-53 0 -53 13q0 14 10 14q123 0 170 78q45 77 74 319l46 408h-59z" />
    <glyph glyph-name="quotedblbase" unicode="&#x201e;" horiz-adv-x="470" 
d="M90 165q-13 14 -13 25q0 9 13 9q26 0 101 -26q25 -12 25 -38q0 -136 -125 -286q-6 -11 -19 -11q-7 0 -7 7q0 4 6 19q48 100 48 207q0 62 -29 94zM278 165q-13 15 -13 25q0 9 13 9q27 0 102 -26q25 -13 25 -38q0 -136 -125 -286q-7 -11 -19 -11q-7 0 -7 7t6 19
q47 103 47 207q0 65 -29 94z" />
    <glyph glyph-name="ellipsis" unicode="&#x2026;" horiz-adv-x="1462" 
d="M182 25q-18 22 -18 52q0 29 18 51q22 27 59 27q34 0 56 -20q22 -21 22 -54q0 -34 -22 -57q-22 -24 -56 -24q-37 0 -59 25zM666 25q-18 22 -18 52q0 29 18 51q22 27 59 27q34 0 56 -20q22 -21 22 -54q0 -34 -22 -57q-22 -24 -56 -24q-37 0 -59 25zM1151 25q-19 22 -19 52
q0 29 19 51q21 27 58 27q34 0 56 -20q23 -21 23 -54q0 -34 -22 -57q-22 -24 -57 -24q-37 0 -58 25z" />
    <glyph glyph-name="dagger" unicode="&#x2020;" horiz-adv-x="916" 
d="M392 637q-7 318 -11 333q-6 24 -6 28q0 8 7 20q40 58 100 87q14 7 22 7t8 -14q0 -16 -13 -192q0 -60 -7 -269l218 4q39 1 71 5l30 5q16 0 7 -22l-23 -64q-6 -14 -29 -14l-45 7q-45 8 -77 9l-153 4q-7 -213 -16 -553l-7 -308q-5 -46 -27 -46q-25 0 -30 75q-17 261 -17 832
l-74 -1q-22 -1 -222 -18q-17 -2 -10 21l18 61q6 17 21 17l23 -5q23 -4 43 -5z" />
    <glyph glyph-name="daggerdbl" unicode="&#x2021;" horiz-adv-x="907" 
d="M480 216q-4 -157 -8 -350l-3 -156q-5 -46 -28 -46q-25 0 -26 75q-2 24 -10 477l-84 -1q-52 -2 -208 -15q-16 -2 -10 20l13 48q6 18 20 18l25 -4q24 -4 45 -4l197 -3q-6 340 -6 373l-76 -1q-76 -2 -222 -15q-19 -2 -10 20l16 50q4 17 20 17l24 -3q25 -3 45 -4l203 -4
q-10 307 -5 290q-6 22 -6 27q0 13 7 20q40 42 86 60q19 7 21 7q9 0 9 -14l-4 -60q-4 -68 -6 -132q0 -16 -7 -198l219 4q39 1 69 4l29 3q15 0 8 -22l-21 -50q-6 -15 -29 -15l-49 5q-51 6 -81 7l-147 4l-8 -373l217 5q39 1 67 4l27 3q14 0 8 -22l-15 -48q-4 -14 -29 -14l-44 4
q-46 4 -76 5z" />
    <glyph glyph-name="circumflex" unicode="&#x2c6;" horiz-adv-x="1318" 
d="M813 1193q-8 -8 -13 -8q-6 0 -11 7q-55 60 -122 100q-12 6 -15 6q-7 0 -23 -8q-35 -18 -123 -91q-17 -14 -26 -14q-10 0 -10 11q0 4 8 16q9 9 81 76l82 75q15 14 23 14q6 0 23 -14l147 -110q17 -12 17 -15q0 -1 -7 -13z" />
    <glyph glyph-name="perthousand" unicode="&#x2030;" horiz-adv-x="1776" 
d="M718 81q-55 69 -55 161q0 106 56 179q64 85 181 85q109 0 174 -81q56 -70 56 -163q0 -104 -57 -177q-66 -85 -181 -85q-111 0 -174 81zM1010 100q34 54 34 144q0 87 -38 152q-42 71 -111 71q-74 0 -113 -61q-34 -54 -34 -145q0 -88 37 -151q41 -71 111 -71q75 0 114 61z
M349 -16q-23 -5 -14 15l264 611q180 421 171 401l-186 -14q-126 -9 -139 -8v-3q90 -64 90 -197q0 -104 -58 -178q-66 -85 -180 -85q-110 0 -174 81q-55 69 -55 161q0 106 61 180q69 84 186 84q141 0 335 16q195 16 188 16q9 0 9 -4q0 -6 -15 -41l-406 -1007q-8 -16 -13 -18z
M416 626q33 54 33 144q0 88 -38 153q-43 72 -111 72q-74 0 -112 -62q-34 -55 -34 -146q0 -88 37 -152q42 -71 112 -71q75 0 113 62zM1282 81q-55 69 -55 161q0 106 57 179q65 85 182 85q109 0 173 -81q55 -70 55 -163q0 -104 -57 -177q-66 -85 -181 -85q-111 0 -174 81z
M1575 100q34 54 34 144q0 87 -39 152q-42 71 -111 71q-74 0 -113 -61q-34 -54 -34 -145q0 -88 38 -151q42 -71 112 -71q74 0 113 61z" />
    <glyph glyph-name="Scaron" unicode="&#x160;" horiz-adv-x="885" 
d="M165 14q-21 12 -21 56q0 73 7 153q1 23 11 23q11 0 11 -15q0 -34 4 -54q15 -75 79 -114q55 -34 135 -34q98 0 157 62q51 54 51 131q0 73 -37 129q-34 53 -130 132l-65 53q-189 156 -189 315q0 117 81 189q82 72 219 72q72 0 135 -14q37 -8 51 -8q15 0 15 -10q0 8 -3 -42
q-3 -51 -3 -111q0 -34 -10 -34t-12 19q-3 44 -19 73q-46 76 -181 76q-77 0 -126 -44q-52 -47 -52 -124q0 -62 36 -112q36 -51 140 -131l41 -32q123 -97 170 -178q42 -71 42 -163q0 -154 -123 -241q-89 -61 -219 -61q-114 0 -195 39zM289 1366q8 9 13 9q6 0 11 -8
q67 -74 122 -100q12 -6 14 -6q8 0 24 8q35 18 123 91q18 15 26 15q10 0 10 -12q0 -5 -9 -16q14 14 -162 -151q-17 -14 -25 -14q-6 0 -21 14l-147 110q-17 12 -17 15q0 4 7 13z" />
    <glyph glyph-name="guilsinglleft" unicode="&#x2039;" horiz-adv-x="530" 
d="M383 155q-5 -7 -12 -7q-5 0 -33 32q-193 210 -203 220q-26 26 -26 35q0 8 27 32q37 31 258 252q19 16 26 16q14 0 14 -11q0 -10 -9 -19q6 8 -96 -112q-97 -114 -123 -151q88 -104 206 -207q20 -19 20 -22q0 -4 -6 -10z" />
    <glyph glyph-name="OE" unicode="&#x152;" horiz-adv-x="1730" 
d="M1217 621q0 -15 8 -15q197 0 231 3q54 5 68 20q16 19 22 19q7 0 7 -11q0 -3 -4 -26q-5 -29 -8 -56q-5 -48 -5 -82q0 -24 -11 -24q-9 0 -11 16q0 19 -5 35q-10 43 -85 51q-29 3 -197 3q-10 0 -10 -13v-374q3 -75 32 -96q31 -22 136 -22q101 0 139 16q51 22 65 103
q4 22 13 22t9 -22q0 -60 -19 -139q-7 -27 -22 -33q-11 -5 -56 -5q-105 0 -245 5q-76 4 -113 4l-29 -1q-12 -3 -21 -3q-14 0 -14 10q0 4 2 18t2 25l3 128h-4q-71 -80 -129 -117q-131 -85 -311 -85q-274 0 -429 186q-133 159 -133 383q0 210 138 374q163 193 442 194
q275 0 417 -181h6v94q0 13 -1 32l-2 22q0 13 15 13l7 -1q5 -1 9 -1q24 -3 29 -3q301 0 335 2q40 1 62 7q25 7 20 7q6 0 6 -13q0 -4 -4 -22q-5 -22 -7 -43q-1 -6 -4 -46q-2 -40 -4 -50q-2 -16 -10 -16q-11 0 -11 19q0 30 -9 53q-17 39 -103 49q-33 4 -199 4q-8 0 -8 -17v-400
zM943 121q152 129 152 407q0 249 -135 398q-125 137 -308 137q-187 0 -300 -120q-121 -127 -121 -357q0 -249 134 -405q130 -151 328 -151q144 0 250 91z" />
    <glyph glyph-name="quoteleft" unicode="&#x2018;" horiz-adv-x="276" 
d="M196 861q13 -15 13 -24t-13 -9q-36 0 -102 26q-24 13 -24 38q0 134 124 285q8 12 19 12q7 0 7 -7q0 -6 -5 -19q-48 -103 -48 -207q0 -60 29 -95z" />
    <glyph glyph-name="quoteright" unicode="&#x2019;" horiz-adv-x="287" 
d="M94 1156q-13 15 -13 24t13 9q36 0 102 -26q24 -13 24 -38q0 -136 -124 -285q-8 -12 -19 -12q-7 0 -7 7t5 19q48 100 48 207q0 60 -29 95z" />
    <glyph glyph-name="quotedblleft" unicode="&#x201c;" horiz-adv-x="475" 
d="M381 861q13 -14 13 -24q0 -9 -13 -9q-35 0 -101 26q-25 13 -25 38q0 135 125 285q8 12 19 12q7 0 7 -7t-6 -19q-48 -103 -48 -207q0 -60 29 -95zM193 861q13 -15 13 -24t-13 -9q-33 0 -102 26q-24 13 -24 38q0 134 124 285q8 12 19 12q7 0 7 -7q0 -6 -5 -19
q-48 -103 -48 -207q0 -60 29 -95z" />
    <glyph glyph-name="quotedblright" unicode="&#x201d;" horiz-adv-x="483" 
d="M90 1156q-13 14 -13 24q0 9 13 9q35 0 101 -26q25 -12 25 -38q0 -138 -125 -285q-7 -12 -19 -12q-7 0 -7 7q0 4 6 19q48 100 48 207q0 60 -29 95zM278 1156q-13 15 -13 24t13 9q36 0 102 -26q25 -13 25 -38q0 -138 -125 -285q-8 -12 -19 -12q-7 0 -7 7t6 19
q47 103 47 207q0 63 -29 95z" />
    <glyph glyph-name="bullet" unicode="&#x2022;" horiz-adv-x="620" 
d="M199 671q-21 11 -21 16q0 12 18 12q47 0 193 -32q43 -9 43 -25q0 -15 -9 -29q-42 -64 -162 -172q-23 -21 -29 -21q-7 0 -7 8q0 -7 8 29q16 51 16 116q0 74 -50 98z" />
    <glyph glyph-name="endash" unicode="&#x2013;" horiz-adv-x="725" 
d="M0 476h725v-67h-725v67z" />
    <glyph glyph-name="emdash" unicode="&#x2014;" horiz-adv-x="1450" 
d="M0 409v67h1450v-67h-1450z" />
    <glyph glyph-name="tilde" unicode="&#x2dc;" horiz-adv-x="1320" 
d="M636 1241q-74 34 -98 34q-45 0 -89 -53q-11 -13 -20 -13t-9 9q0 7 10 22q68 103 125 103q26 0 122 -45q50 -25 84 -25q60 0 88 42q11 16 18 16q10 0 10 -9q0 -6 -6 -18q-13 -26 -48 -59q-42 -42 -72 -42q-39 0 -115 38z" />
    <glyph glyph-name="trademark" unicode="&#x2122;" horiz-adv-x="399" 
d="M133 1096q5 0 11 1l15 2v-35q0 -7 -4 -7q-1 0 -3 6l-1 6q-3 11 -26 11h-29v-148q0 -12 11 -14l8 -2q7 0 7 -3q0 -2 -7 -2l-34 1l-35 -1q-5 0 -5 2q0 3 5 3h8q13 2 13 16l1 19v129h-35q-22 0 -26 -14q-1 -6 -4 -6t-3 6q0 4 3 17l3 13q0 3 1 5l5 -1q3 -2 7 -2l20 -2h94z
M195 939q-1 -6 -1 -12q0 -11 9 -11q10 0 10 -3q0 -2 -4 -2l-29 1l-25 -1q-4 0 -4 2q0 3 6 3h4q13 0 14 21l21 155q0 10 7 10q5 0 7 -7l68 -142l69 143q1 6 7 6q4 0 4 -10l19 -150q4 -26 22 -26h3q5 0 5 -3q0 -2 -4 -2q-36 0 -46 2q-6 0 -6 6l-13 119h1l-56 -113
q-8 -14 -10 -14q-5 0 -11 14l-56 115h-2z" />
    <glyph glyph-name="scaron" unicode="&#x161;" horiz-adv-x="706" 
d="M117 13q-18 10 -18 46q0 61 7 131q0 20 10 20q12 0 12 -14q0 -28 4 -45q14 -62 76 -95q53 -27 125 -27q92 0 144 47q48 44 48 117q0 62 -38 109q-30 36 -123 105l-58 44q-183 137 -183 264q0 107 79 170q76 62 204 62q74 0 132 -15q25 -5 45 -5q13 0 13 -9q0 7 -3 -36
t-3 -95q0 -27 -10 -27q-9 0 -12 16q-2 32 -18 61q-39 61 -166 61q-73 0 -119 -34q-50 -37 -50 -100q0 -58 35 -101q34 -42 130 -108l36 -24q209 -143 209 -298q0 -132 -119 -210q-66 -43 -203 -43q-116 0 -186 33zM241 1199q8 9 13 9t11 -7q71 -79 122 -100q12 -6 15 -6
q9 0 23 7q35 18 123 91q18 15 26 15q10 0 10 -12q0 -4 -8 -16l-163 -151q-15 -14 -24 -14q-7 0 -22 14l-147 111q-17 10 -17 14t7 13z" />
    <glyph glyph-name="guilsinglright" unicode="&#x203a;" horiz-adv-x="530" 
d="M161 728q5 7 12 7q5 0 33 -32q140 -157 203 -220q26 -26 26 -35q0 -8 -28 -32q-45 -39 -258 -252q-18 -16 -26 -16q-13 0 -13 11q0 10 9 19q-5 -7 96 112q96 114 123 151q-88 104 -206 207q-20 19 -20 22t5 10z" />
    <glyph glyph-name="oe" unicode="&#x153;" horiz-adv-x="1516" 
d="M1079 529q0 -13 8 -13q180 0 211 3q50 5 59 16q14 16 19 16q6 0 6 -10l-4 -22q-4 -22 -6 -46q-5 -42 -5 -71q0 -19 -10 -19q-11 0 -11 13q0 16 -5 29q-8 35 -72 40q-25 3 -182 3q-8 0 -8 -11v-318q3 -62 32 -78q27 -15 123 -15t122 13q44 23 55 85q4 17 13 17
q10 0 10 -17q0 -61 -17 -119q-6 -23 -19 -28q-10 -4 -50 -4q-29 0 -229 4q-73 3 -103 3q-11 0 -22 -2t-15 -2q-12 0 -12 8q0 4 2 16q1 13 1 22l3 116h-4q-158 -178 -393 -178q-242 0 -378 158q-118 135 -118 325q0 178 121 317q144 164 389 165q244 0 376 -161h4v114l-1 18
q0 12 11 12l13 -1q10 -2 22 -2h310q15 0 33 3l22 4l18 6q6 0 6 -11q0 -3 -4 -19q-5 -19 -7 -37q-6 -77 -7 -82q-2 -13 -10 -13q-12 0 -12 16q0 27 -7 43q-15 29 -88 39q-37 5 -182 5q-8 0 -8 -16v-334zM834 107q136 110 136 341q0 206 -122 333q-112 118 -272 118
q-165 0 -262 -101q-104 -107 -104 -301q0 -208 115 -338q113 -129 287 -129q126 0 222 77z" />
    <glyph glyph-name="uni00A0" unicode="&#xa0;" horiz-adv-x="403" 
 />
    <glyph glyph-name="uni00A0" unicode="&#x3a9;" horiz-adv-x="403" 
 />
    <glyph glyph-name="exclamdown" unicode="&#xa1;" horiz-adv-x="434" 
d="M290 1088q17 -21 17 -50q0 -27 -17 -48q-21 -26 -57 -26q-32 0 -53 19q-21 20 -21 51q0 33 21 55q22 23 55 23q35 0 55 -24zM274 403q10 -231 22 -274q6 -24 6 -28q0 -9 -8 -20q-36 -64 -107 -98q-16 -8 -22 -8q-8 0 -8 15l8 59q9 68 13 132q1 10 17 315q15 303 17 322
q2 46 17 46q18 0 22 -75z" />
    <glyph glyph-name="cent" unicode="&#xa2;" horiz-adv-x="827" 
d="M463 236l71 -3q83 0 124 21q50 26 64 91q4 22 13 22t9 -18q0 -44 -19 -133q-5 -22 -19 -25q-88 -23 -193 -23q-40 0 -62 2l-20 -196q-3 -15 -13 -16l-34 -7q-15 -4 -13 8l26 221q-135 25 -219 119q-90 102 -90 253q0 175 114 270q104 89 281 97l16 145q1 10 14 13l29 6
q17 3 15 -9l-19 -156q103 0 200 -36q10 -6 10 -21q0 -73 -9 -133q-1 -18 -11 -18q-7 0 -7 18q-6 52 -29 81q-43 50 -164 57zM473 867q-127 0 -203 -79q-74 -77 -74 -196q0 -141 68 -233q55 -74 143 -107z" />
    <glyph glyph-name="sterling" unicode="&#xa3;" horiz-adv-x="827" 
d="M26 0q-42 0 -42 14q0 20 29 25q99 21 145 114q32 66 51 212l19 153h-109q-10 0 -20 -1l-11 -2q-10 0 -4 13l17 30q6 12 21 12h114l15 101q35 259 151 360q91 81 219 81q73 0 126 -17l39 -8q10 -1 10 -17q0 -125 -7 -165q-4 -18 -12 -18q-11 0 -11 22q0 51 -35 97
q-41 55 -144 55q-86 0 -142 -70q-57 -72 -72 -202l-26 -219h158q24 0 46 4l22 3q13 0 7 -14l-16 -35q-5 -12 -23 -12h-203l-7 -61q-37 -263 -161 -371l3 -3l452 5q61 1 92 27q32 27 43 91q1 15 11 15q11 0 11 -22q0 -50 -25 -175q-5 -20 -16 -24q-13 -5 -73 -5q-82 0 -146 4
q-72 3 -158 3h-338z" />
    <glyph glyph-name="currency" unicode="&#xa4;" horiz-adv-x="827" 
d="M608 563q40 -65 40 -145q-1 -96 -42 -156l94 -89l-61 -63l-87 99q-57 -54 -142 -54q-86 -2 -142 51l-85 -96l-58 63l91 88q-46 61 -46 148q0 85 47 154l-95 88l59 62l87 -95q56 50 144 50h1q88 0 142 -49l90 94l61 -62zM514 529q-39 51 -104 51h-1q-63 0 -103 -49
q-38 -47 -38 -119q0 -81 47 -128q40 -40 94 -40q58 0 97 39q45 46 45 132q0 67 -37 114z" />
    <glyph glyph-name="yen" unicode="&#xa5;" horiz-adv-x="827" 
d="M468 97q3 -66 67 -75q33 -5 65 -5q13 0 13 -11q0 -10 -23 -10q-48 0 -114 2l-60 2l-61 -2q-66 -2 -113 -2q-25 0 -25 10q0 11 11 11q34 0 66 5q67 9 68 75q2 32 2 142v205h-235q-14 0 -10 16l10 30q4 9 16 9h216q-68 100 -267 445q-44 76 -90 107q-28 19 -63 19
q-16 0 -16 10q0 12 14 12l138 -5l41 3q42 2 75 2q19 0 19 -12q0 -7 -21 -13q-20 -5 -20 -26q0 -20 19 -55q218 -388 246 -431q17 28 110 201l109 200q28 46 28 76q0 23 -23 34q-23 8 -23 16q0 10 23 10q21 0 54 -2l36 -3l60 3q59 2 74 2q19 0 19 -10q0 -12 -17 -12
q-31 0 -62 -17q-33 -17 -76 -74q-27 -36 -137 -230l-141 -250h235q19 0 13 -13l-9 -34q-3 -8 -20 -8h-221v-347z" />
    <glyph glyph-name="brokenbar" unicode="&#xa6;" horiz-adv-x="723" 
d="M331 471v508h78v-508h-78zM331 -254v508h78v-508h-78z" />
    <glyph glyph-name="section" unicode="&#xa7;" horiz-adv-x="827" 
d="M667 -45q0 -135 -120 -215q-76 -50 -193 -50q-140 0 -209 33q-19 10 -19 46q0 -9 7 131q0 20 11 20t11 -14q0 -28 4 -45q28 -122 209 -122q89 0 144 47q55 48 55 128q0 72 -51 130q-34 38 -139 114l-46 33q-117 85 -157 134q-51 62 -51 145q0 77 54 140q46 52 113 80
q-99 97 -99 186q0 114 92 178q82 57 203 57q73 0 137 -15q25 -6 45 -6q13 0 13 -8l-2 -36q-3 -43 -3 -95q0 -27 -10 -27q-11 0 -12 16q-5 34 -19 60q-37 61 -172 61q-75 0 -124 -36q-56 -41 -56 -116q0 -61 55 -116q32 -31 146 -110l38 -26q117 -80 163 -137q54 -65 54 -143
q0 -158 -147 -242q75 -78 75 -180zM629 243q26 45 26 89q0 64 -51 116q-25 24 -137 104l-61 44q-24 16 -77 59q-51 -15 -88 -59q-37 -45 -37 -94q0 -60 47 -109q32 -33 140 -106l41 -27q88 -58 123 -92q45 25 74 75z" />
    <glyph glyph-name="dieresis" unicode="&#xa8;" horiz-adv-x="385" 
d="M289 1224q-14 18 -14 42q0 23 14 41q17 21 48 21q27 0 45 -15q18 -17 18 -43q0 -29 -17 -48q-18 -19 -47 -19q-30 0 -47 21zM-3 1224q-14 18 -14 42q0 23 15 41q17 21 48 21q27 0 44 -15q18 -17 18 -43q0 -29 -17 -48q-18 -19 -47 -19q-30 0 -47 21z" />
    <glyph glyph-name="copyright" unicode="&#xa9;" horiz-adv-x="1319" 
d="M256 141q-166 166 -166 401q0 237 166 404q166 166 402 166q234 0 400 -166q166 -167 166 -404q0 -235 -166 -401t-400 -166q-236 0 -402 166zM1003 188q138 147 138 356q0 210 -138 356q-139 148 -345 148q-207 0 -347 -148q-138 -146 -138 -356t138 -356
q141 -150 347 -149q206 0 345 149zM428 310q-102 94 -102 247q0 139 99 235q90 87 248 87q51 0 119 -12l87 -17l16 1q3 0 3 -7q0 -82 -9 -141q-3 -11 -15 -11q-13 0 -13 16q-2 46 -23 68q-45 50 -178 50q-109 0 -167 -61t-58 -175q0 -147 82 -234q75 -79 185 -79
q91 0 129 36q20 19 33 68q5 15 16 15q13 0 13 -13q0 -40 -14 -103q-10 -39 -32 -45q-64 -18 -155 -18q-162 0 -264 93z" />
    <glyph glyph-name="ordfeminine" unicode="&#xaa;" horiz-adv-x="589" 
d="M181 757q-5 0 -7 -7l-32 -87q-9 -29 -9 -38q0 -20 21 -20h7q9 0 9 -6q0 -7 -13 -7l-66 2l-91 -2q-15 0 -15 7q0 6 8 6q16 0 23 1q42 4 65 61l184 428q8 17 19 17q9 0 20 -25q-3 5 78 -174q77 -171 110 -233q36 -66 62 -72q11 -3 32 -3q7 0 7 -6q0 -7 -16 -7q-70 0 -142 2
q-25 0 -25 5t6 7q10 5 6 15l-58 130q-4 6 -9 6h-174zM335 800q8 0 4 6l-66 163q-8 17 -15 0l-62 -163q-4 -6 3 -6h136z" />
    <glyph glyph-name="guillemotleft" unicode="&#xab;" horiz-adv-x="805" 
d="M654 155q-5 -7 -12 -7q-5 0 -33 32q-140 157 -203 220q-26 26 -26 35q0 8 27 32q19 16 136 131q125 122 123 121q18 16 26 16q13 0 13 -11q0 -10 -9 -19q5 7 -96 -112q-96 -114 -123 -151q88 -104 206 -207q20 -19 20 -22q0 -4 -6 -10zM383 155q-5 -7 -12 -7q-5 0 -33 32
q-193 210 -203 220q-26 26 -26 35q0 8 27 32q37 31 258 252q19 16 26 16q14 0 14 -11q0 -10 -9 -19q6 8 -96 -112q-97 -114 -123 -151q88 -104 206 -207q20 -19 20 -22q0 -4 -6 -10z" />
    <glyph glyph-name="logicalnot" unicode="&#xac;" horiz-adv-x="747" 
d="M599 231v233h-534v74h609v-307h-75z" />
    <glyph glyph-name="registered" unicode="&#xae;" horiz-adv-x="308" 
d="M54 895q-38 36 -38 90q0 55 38 91q37 36 95 36t96 -36t38 -91q0 -54 -38 -90q-38 -37 -96 -37q-57 0 -95 37zM227 910q31 30 31 76t-31 75q-30 29 -78 29q-47 0 -77 -29q-31 -29 -31 -75t31 -76t79 -30q46 0 76 30zM100 1031l-1 14q0 11 -16 11q-5 0 -5 2q0 5 8 5l26 -2
q7 0 15 1l15 1q61 0 61 -39q0 -23 -26 -44l25 -30q20 -25 27 -25q4 0 4 -3q0 -4 -10 -4q-30 0 -50 27l-21 28h-26v-13q0 -29 3 -32q9 -3 15 -3q4 0 4 -3q0 -4 -6 -4l-29 1l-29 -1q-6 0 -6 3q0 4 6 4q13 0 15 9l1 14v83zM126 989q5 -4 22 -4q9 0 14 4q13 7 13 26q0 35 -36 35
q-10 0 -13 -3v-58z" />
    <glyph glyph-name="macron" unicode="&#xaf;" horiz-adv-x="385" 
d="M386 1305q18 0 12 -15l-12 -31q-1 -9 -13 -9h-341q-16 0 -14 10l11 36q2 9 16 9h341z" />
    <glyph glyph-name="degree" unicode="&#xb0;" horiz-adv-x="426" 
d="M365 864q0 -66 -47 -111q-45 -43 -106 -43q-66 0 -109 44q-42 43 -42 103q0 64 44 108t108 44h3q68 0 110 -44q41 -41 41 -102zM278 924q-24 30 -68 30q-39 0 -63 -30q-22 -27 -22 -64t25 -63q25 -27 62 -27t62 27t25 66q0 36 -21 61z" />
    <glyph glyph-name="plusminus" unicode="&#xb1;" horiz-adv-x="749" 
d="M407 760v-271h272v-74h-270v-274h-76v274h-272v74h272v271h74zM679 0h-618v72h618v-72z" />
    <glyph glyph-name="uni00B2" unicode="&#xb2;" horiz-adv-x="618" 
d="M91 442q-16 0 -16 12q0 5 18 23q159 128 220 197q109 123 109 237q0 85 -49 129q-39 34 -92 34q-65 0 -101 -39q-32 -34 -32 -79q0 -16 -12 -16q-6 0 -8 16q-6 21 -6 100q0 16 10 20q76 36 167 36q103 0 164 -53q55 -48 55 -119q0 -115 -108 -239q-67 -78 -214 -194
q5 -5 4 -5h48q87 0 167 5q88 7 110 74q5 15 13 15q7 0 7 -13q0 -56 -33 -116q-13 -25 -54 -25h-367z" />
    <glyph glyph-name="uni00B3" unicode="&#xb3;" horiz-adv-x="580" 
d="M101 455q-15 9 -15 39q0 68 4 93q1 13 9 13q7 0 8 -11q11 -109 150 -109q68 0 111 40q45 43 45 118q0 68 -58 110q-47 35 -113 42q-29 4 -29 13q0 12 26 16q44 6 88 41q57 46 57 107q0 35 -25 65q-34 42 -101 42q-51 0 -88 -27q-38 -27 -38 -67q0 -19 -7 -19q-9 0 -10 16
q-9 47 -9 86q0 16 13 22q62 27 164 27q103 0 153 -46q37 -33 37 -77q0 -56 -53 -105q-37 -34 -82 -53v-3q56 -10 106 -47q66 -49 66 -120q0 -91 -80 -157q-83 -68 -201 -68q-92 0 -128 19z" />
    <glyph glyph-name="acute" unicode="&#xb4;" horiz-adv-x="385" 
d="M370 1273q9 -17 -6 -17h-44q-101 -11 -220 -61q-16 -8 -22 -8q-7 0 -7 9q0 5 10 12q52 36 197 123q32 19 41 19q5 0 14 -13q10 -15 37 -64z" />
    <glyph glyph-name="uni00B5" unicode="&#xb5;" horiz-adv-x="845" 
d="M101 652h109v-326q0 -254 196 -254q188 0 188 218v362h109v-520q0 -81 47 -81q29 0 49 48l22 -11q-20 -110 -111 -110q-49 0 -73 32q-30 39 -35 135q-78 -167 -240 -167q-116 0 -166 80q13 -236 36 -348l-131 -73l-17 8q17 357 17 572v435z" />
    <glyph glyph-name="paragraph" unicode="&#xb6;" horiz-adv-x="1013" 
d="M557 990q0 58 -25 58q-95 0 -151 -88q-50 -77 -50 -207q0 -208 108 -279q8 -5 30 -13q12 -5 12 -14q0 -11 -16 -11q-7 -1 -30 -1q-157 0 -256 86q-102 88 -102 232q0 136 98 230q115 109 332 109l154 -5l98 3q97 2 136 2q23 0 23 -12q0 -8 -12 -8q-22 0 -40 -5
q-49 -13 -53 -82q-2 -47 -2 -314v-570q0 -259 2 -290q0 -10 -10 -20q-34 -30 -69 -30q-9 0 -9 7l3 19q3 18 4 36q7 75 7 278v891q0 56 -56 56q-50 0 -54 -53q-1 -19 -1 -324v-564q0 -310 4 -351q2 -8 -9 -18q-31 -31 -72 -31q-12 0 -12 9l3 13q4 17 6 42q9 89 9 336v883z
" />
    <glyph glyph-name="periodcentered" unicode="&#xb7;" horiz-adv-x="353" 
d="M120 363q-19 22 -19 53q0 29 19 52q23 28 61 28q35 0 57 -20q23 -21 23 -56t-22 -59q-23 -25 -59 -25q-38 0 -60 27z" />
    <glyph glyph-name="cedilla" unicode="&#xb8;" horiz-adv-x="385" 
d="M281 0q-50 -32 -108 -99q145 -13 145 -103q0 -76 -103 -118q-58 -27 -113 -27q-19 0 -19 12q0 14 29 16q42 5 72 27q35 25 35 61q0 77 -104 106q-22 7 -22 13q0 5 19 21l111 91h58z" />
    <glyph glyph-name="uni00B9" unicode="&#xb9;" horiz-adv-x="479" 
d="M290 703q0 -152 4 -190q5 -38 42 -46q32 -7 67 -7q13 0 13 -9q0 -12 -17 -12q-49 0 -104 2l-49 1l-58 -1q-64 -2 -108 -2q-18 0 -18 10q0 11 12 11q46 0 83 7q38 8 43 46q4 38 4 190v160q0 95 -1 110q-2 23 -17 23q-22 0 -121 -43q-7 -5 -13 -5q-9 0 -9 9q0 5 5 10
q3 3 105 66q103 63 107 66q15 13 26 13q8 0 8 -19q0 13 -2 -64q-2 -78 -2 -166v-160z" />
    <glyph glyph-name="ordmasculine" unicode="&#xba;" horiz-adv-x="639" 
d="M97 669q-68 73 -68 181q0 99 71 175q82 87 218 87q128 0 207 -67q81 -68 81 -184t-79 -194q-83 -80 -214 -80q-139 0 -216 82zM438 665q65 56 65 177q0 106 -63 172q-58 60 -136 60q-68 0 -117 -51q-55 -58 -55 -157q0 -102 60 -172q59 -68 141 -68q60 0 105 39z" />
    <glyph glyph-name="guillemotright" unicode="&#xbb;" horiz-adv-x="796" 
d="M158 728q5 7 12 7q5 0 33 -32q140 -157 203 -220q26 -26 26 -35q0 -8 -27 -32q-43 -36 -259 -252q-18 -16 -26 -16q-13 0 -13 11q0 10 9 19q-5 -7 96 112q96 114 123 151q-88 104 -206 207q-20 19 -20 22q0 4 6 10zM429 728q5 7 12 7q5 0 33 -32q140 -157 203 -220
q26 -26 26 -35q0 -8 -27 -32q-37 -31 -258 -252q-19 -16 -27 -16q-13 0 -13 11q0 10 9 19q-6 -8 96 112q97 114 123 151q-88 104 -206 207q-20 19 -20 22q0 4 6 10z" />
    <glyph glyph-name="onequarter" unicode="&#xbc;" horiz-adv-x="1136" 
d="M1028 232q15 0 28 5l13 4q8 0 8 -9q0 -11 -8 -41q-4 -11 -18 -11h-94q0 -96 1 -115q5 -41 40 -45l39 -3q8 0 8 -8q0 -10 -13 -10l-124 2l-38 -1q-41 -1 -71 -1q-12 0 -12 8q0 10 12 10l41 3q36 4 39 45q1 38 1 115h-303q-19 0 -19 11q0 8 13 24q80 66 354 407
q14 16 23 16t9 -15v-391h71zM880 507h-1q-11 -10 -116 -133q-117 -137 -122 -142h239v275zM275 668q0 -145 5 -181q5 -35 39 -43q26 -8 64 -8q13 0 13 -8q0 -10 -18 -10q-45 0 -98 1l-47 1l-55 -1q-60 -1 -103 -1q-16 0 -16 8q0 10 11 10q49 0 79 8q36 7 41 43q4 36 4 181
v151q0 92 -1 105q-4 23 -16 23q-23 0 -115 -42q-7 -5 -13 -5q-8 0 -8 9q0 6 4 10q3 3 100 62q97 60 101 63q17 13 25 13q9 0 9 -19q0 13 -2 -61q-3 -74 -3 -158v-151zM204 4q-8 5 2 19l783 1022q11 14 19 8l26 -21q9 -6 3 -14l-786 -1034q-8 -12 -18 -4z" />
    <glyph glyph-name="onehalf" unicode="&#xbd;" horiz-adv-x="1227" 
d="M275 668q0 -145 5 -181q5 -35 39 -43q26 -8 64 -8q13 0 13 -8q0 -10 -18 -10q-45 0 -98 1l-47 1l-55 -1q-60 -1 -103 -1q-16 0 -16 8q0 10 11 10q49 0 79 8q36 7 41 43q4 36 4 181v151q0 92 -1 105q-4 23 -16 23q-23 0 -115 -42q-7 -5 -13 -5q-8 0 -8 9q0 6 4 10
q3 3 100 62q97 60 101 63q17 13 25 13q9 0 9 -19q0 13 -2 -61q-3 -74 -3 -158v-151zM157 4q-8 4 2 19l783 1022q11 15 19 8l26 -21q9 -6 3 -14l-786 -1034q-8 -14 -18 -4zM729 0q-16 0 -16 12q0 5 16 21q152 122 210 187q104 117 104 225q0 81 -47 123q-36 32 -87 32
q-62 0 -97 -36q-29 -31 -29 -77q0 -14 -12 -14q-6 0 -8 14q-6 21 -6 96q0 13 10 19q76 35 158 35q98 0 156 -50q53 -46 53 -114q0 -171 -306 -411q5 -5 4 -5h45q88 0 158 5q88 8 106 70q5 14 12 14t7 -13q0 -50 -32 -110q-14 -23 -51 -23h-348z" />
    <glyph glyph-name="threequarters" unicode="&#xbe;" horiz-adv-x="1158" 
d="M1047 232q15 0 28 5l12 4q9 0 9 -9q0 -14 -9 -41q-3 -11 -17 -11h-93v-115q5 -42 39 -45l41 -3q7 0 7 -8q0 -10 -13 -10l-124 2l-38 -1q-41 -1 -71 -1q-10 0 -10 8q0 10 10 10l40 3q37 4 40 45q1 38 1 115h-303q-19 0 -19 11q0 9 15 24q129 129 353 407q14 16 22 16
q10 0 10 -15v-391h70zM899 507h-1q-12 -11 -238 -275h239v275zM320 786q54 -10 101 -44q63 -47 63 -114q0 -87 -77 -150q-78 -63 -190 -63q-94 0 -121 17q-15 9 -15 38q0 60 5 88q1 12 8 12q6 0 7 -10q11 -105 143 -105q64 0 105 39q44 42 44 112q0 64 -55 104
q-44 33 -107 41q-28 4 -28 12q0 12 25 16q41 5 83 39q54 43 54 101q0 33 -24 62q-33 40 -96 40q-49 0 -84 -26q-36 -26 -36 -64q0 -18 -6 -18q-9 0 -10 15q-9 45 -9 81q0 16 13 22q58 26 155 26q98 0 146 -43q35 -32 35 -74q0 -54 -50 -101q-37 -35 -79 -50v-3zM202 4
q-8 4 2 19l782 1022q11 14 19 8l27 -21q8 -6 2 -14l-786 -1034q-8 -13 -17 -4z" />
    <glyph glyph-name="questiondown" unicode="&#xbf;" horiz-adv-x="714" 
d="M526 81q44 53 51 135q3 25 12 25q10 0 11 -15q6 -23 6 -169q0 -14 -16 -24q-96 -58 -241 -58q-132 0 -203 75q-59 63 -59 152q0 107 72 206q24 33 79 96q67 75 98 114q60 76 60 116q0 37 -28 74q-13 17 -13 24q0 13 16 13q21 0 61 -50q42 -54 42 -86q0 -33 -32 -72
q-18 -24 -50 -62q-36 -41 -50 -59q-127 -162 -127 -307q0 -67 35 -117q46 -67 134 -67q98 0 142 56zM437 1088q17 -21 17 -50q0 -27 -17 -48q-21 -26 -57 -26q-32 0 -53 19q-21 20 -21 51q0 33 21 55q21 23 54 23q35 0 56 -24z" />
    <glyph glyph-name="Agrave" unicode="&#xc0;" horiz-adv-x="1061" 
d="M467 1056q20 56 32 56q11 0 32 -52l338 -874q58 -143 124 -161q25 -9 58 -9q15 0 15 -9q0 -11 -29 -11q-128 0 -228 3q-43 2 -43 10q0 7 10 10q20 8 8 39l-134 357q-5 8 -13 8h-312q-10 0 -15 -11l-87 -257q-20 -55 -20 -97t55 -42h15q14 0 14 -9q0 -11 -22 -11
q-19 0 -63 2l-50 2l-62 -2q-61 -2 -102 -2q-27 0 -27 11q0 9 13 9q24 0 42 3q77 10 122 136zM618 476q8 0 5 10l-137 391q-12 32 -22 0l-128 -391q-4 -10 5 -10h277zM319 1289q-42 17 -42 25q0 6 16 11q66 20 87 28q19 7 23 7q-1 0 22 -23q35 -38 142 -106q27 -19 27 -20
q0 -8 -13 -8q-42 0 -262 86z" />
    <glyph glyph-name="Aacute" unicode="&#xc1;" horiz-adv-x="1061" 
d="M467 1056q20 56 32 56q11 0 32 -52l338 -874q58 -143 124 -161q25 -9 58 -9q15 0 15 -9q0 -11 -29 -11q-128 0 -228 3q-43 2 -43 10q0 7 10 10q20 8 8 39l-134 357q-5 8 -13 8h-312q-10 0 -15 -11l-87 -257q-20 -55 -20 -97t55 -42h15q14 0 14 -9q0 -11 -22 -11
q-19 0 -63 2l-50 2l-62 -2q-61 -2 -102 -2q-27 0 -27 11q0 9 13 9q24 0 42 3q77 10 122 136zM618 476q8 0 5 10l-137 391q-12 32 -22 0l-128 -391q-4 -10 5 -10h277zM729 1289q10 -17 -5 -17h-44q-104 -12 -220 -61q-18 -8 -22 -8q-7 0 -7 9q0 5 10 12q52 36 197 123
q32 19 41 19q5 0 14 -13q4 -6 36 -64z" />
    <glyph glyph-name="Acircumflex" unicode="&#xc2;" horiz-adv-x="1061" 
d="M467 1056q20 56 32 56q11 0 32 -52l338 -874q58 -143 124 -161q25 -9 58 -9q15 0 15 -9q0 -11 -29 -11q-128 0 -228 3q-43 2 -43 10q0 7 10 10q20 8 8 39l-134 357q-5 8 -13 8h-312q-10 0 -15 -11l-87 -257q-20 -55 -20 -97t55 -42h15q14 0 14 -9q0 -11 -22 -11
q-19 0 -63 2l-50 2l-62 -2q-61 -2 -102 -2q-27 0 -27 11q0 9 13 9q24 0 42 3q77 10 122 136zM618 476q8 0 5 10l-137 391q-12 32 -22 0l-128 -391q-4 -10 5 -10h277zM661 1193q-10 -8 -13 -8q-6 0 -11 7q-55 60 -122 100q-12 6 -15 6q-7 0 -23 -8q-35 -18 -123 -91
q-17 -14 -26 -14q-10 0 -10 11q0 4 8 16q9 9 81 76l82 75q15 14 23 14q4 0 23 -14l146 -110q18 -12 18 -15q0 -1 -7 -13z" />
    <glyph glyph-name="Atilde" unicode="&#xc3;" horiz-adv-x="1061" 
d="M467 1056q20 56 32 56q11 0 32 -52l338 -874q58 -143 124 -161q25 -9 58 -9q15 0 15 -9q0 -11 -29 -11q-128 0 -228 3q-43 2 -43 10q0 7 10 10q20 8 8 39l-134 357q-5 8 -13 8h-312q-10 0 -15 -11l-87 -257q-20 -55 -20 -97t55 -42h15q14 0 14 -9q0 -11 -22 -11
q-19 0 -63 2l-50 2l-62 -2q-61 -2 -102 -2q-27 0 -27 11q0 9 13 9q24 0 42 3q77 10 122 136zM618 476q8 0 5 10l-137 391q-12 32 -22 0l-128 -391q-4 -10 5 -10h277zM496 1241q-74 34 -99 34q-44 0 -88 -53q-11 -13 -20 -13t-9 9q0 7 10 22q64 103 125 103q27 0 121 -45
q53 -25 85 -25q60 0 88 42q11 16 17 16q11 0 11 -9q0 -6 -6 -18q-13 -25 -48 -59q-43 -42 -73 -42q-38 0 -114 38z" />
    <glyph glyph-name="Adieresis" unicode="&#xc4;" horiz-adv-x="1061" 
d="M467 1056q20 56 32 56q11 0 32 -52l338 -874q58 -143 124 -161q25 -9 58 -9q15 0 15 -9q0 -11 -29 -11q-128 0 -228 3q-43 2 -43 10q0 7 10 10q20 8 8 39l-134 357q-5 8 -13 8h-312q-10 0 -15 -11l-87 -257q-20 -55 -20 -97t55 -42h15q14 0 14 -9q0 -11 -22 -11
q-19 0 -63 2l-50 2l-62 -2q-61 -2 -102 -2q-27 0 -27 11q0 9 13 9q24 0 42 3q77 10 122 136zM618 476q8 0 5 10l-137 391q-12 32 -22 0l-128 -391q-4 -10 5 -10h277zM606 1224q-14 18 -14 42q0 23 14 41q17 21 48 21q27 0 44 -15q18 -17 18 -43q0 -29 -17 -48
q-18 -19 -47 -19q-30 0 -46 21zM314 1224q-14 18 -14 42q0 23 15 41q17 21 47 21q27 0 45 -15q18 -17 18 -43q0 -29 -17 -48q-18 -19 -47 -19q-30 0 -47 21z" />
    <glyph glyph-name="Aring" unicode="&#xc5;" horiz-adv-x="1061" 
d="M467 1056q20 56 32 56q11 0 32 -52l338 -874q58 -143 124 -161q25 -9 58 -9q15 0 15 -9q0 -11 -29 -11q-128 0 -228 3q-43 2 -43 10q0 7 10 10q20 8 8 39l-134 357q-5 8 -13 8h-312q-10 0 -15 -11l-87 -257q-20 -55 -20 -97t55 -42h15q14 0 14 -9q0 -11 -22 -11
q-19 0 -63 2l-50 2l-62 -2q-61 -2 -102 -2q-27 0 -27 11q0 9 13 9q24 0 42 3q77 10 122 136zM618 476q8 0 5 10l-137 391q-12 32 -22 0l-128 -391q-4 -10 5 -10h277zM394 1213q-30 24 -30 62q0 50 48 86q50 38 123 38q55 0 87 -23q32 -22 32 -59q1 -57 -57 -94
q-52 -34 -120 -34q-53 0 -83 24zM561 1246q25 21 25 52q0 66 -76 66q-30 0 -53 -17q-29 -20 -29 -54q0 -31 23 -51q21 -18 49 -18q36 0 61 22z" />
    <glyph glyph-name="AE" unicode="&#xc6;" horiz-adv-x="1309" 
d="M431 494q-19 0 -26 -10q-30 -39 -166 -268q-62 -102 -62 -146q0 -31 29 -42q29 -12 64 -12q17 0 17 -10t-25 -10q-49 0 -115 2l-66 2l-60 -2q-62 -2 -104 -2q-19 0 -19 11q0 9 16 9q32 0 61 14q62 31 153 156q45 62 532 825q26 41 32 61q5 20 18 20l47 -5q299 0 332 2
q42 2 62 7q28 7 21 7q5 0 5 -13q0 -3 -4 -22q-5 -23 -7 -46l-7 -95q-4 -16 -11 -16q-11 0 -11 18q0 30 -9 53q-17 39 -103 49q-33 4 -199 4q-8 0 -8 -14v-460q0 -14 8 -14q198 0 231 3q53 3 68 20q17 19 22 19q7 0 7 -12q0 -3 -4 -26q-5 -27 -7 -55q-6 -58 -6 -83
q0 -23 -10 -23t-12 16q0 19 -4 35q-13 43 -86 51q-29 2 -197 2q-10 0 -10 -13v-314q3 -75 32 -96q31 -22 136 -22q101 0 139 16q51 22 65 103q4 22 13 22t9 -22q0 -70 -19 -139q-7 -27 -21 -33q-11 -5 -57 -5q-102 0 -245 5q-76 4 -113 4l-57 -1q-40 -3 -79 -3q-24 0 -24 11
q0 9 12 9q15 0 41 6q32 7 42 79q7 61 7 315v67q0 11 -13 11h-255zM699 950q0 6 -4 6t-9 -6q-159 -238 -238 -390q-8 -13 6 -13h232q13 0 13 11v392z" />
    <glyph glyph-name="Ccedilla" unicode="&#xc7;" horiz-adv-x="1186" 
d="M368 204q152 -162 379 -162q181 0 252 73q38 40 54 121q4 22 14 22t10 -22q0 -80 -32 -185q-9 -30 -37 -42q-82 -34 -261 -34q-22 0 -32 2q-50 -42 -81 -76q145 -13 145 -103q0 -76 -103 -118q-58 -27 -113 -27q-19 0 -19 12q0 14 29 16q42 5 72 27q35 25 35 61
q0 77 -104 106q-22 7 -22 13q0 5 19 21l85 71q-238 16 -390 152q-175 158 -175 429q0 234 162 396q155 155 442 155q118 0 211 -17q106 -19 148 -22q18 -1 18 -16l-2 -25q-3 -27 -5 -56q-2 -28 -3 -85l-1 -65q-3 -30 -13 -30q-12 0 -12 30q0 97 -61 148q-94 83 -290 83
q-223 0 -333 -106q-131 -125 -131 -378q0 -215 145 -369z" />
    <glyph glyph-name="Egrave" unicode="&#xc8;" horiz-adv-x="854" 
d="M258 671q0 267 -3 314q-2 39 -14 56q-13 19 -48 26q-20 5 -49 5q-12 0 -12 8q0 12 23 12q73 0 105 -2l59 -3q299 0 332 2q42 1 62 7q28 7 21 7q5 0 5 -13q0 -3 -4 -22q-5 -23 -7 -46q-1 -6 -3 -46t-4 -49q-4 -16 -11 -16q-11 0 -11 18q0 30 -9 53q-17 39 -103 49
q-32 4 -198 4q-9 0 -9 -14v-400q0 -15 9 -15q197 0 230 3q54 5 68 20q16 19 22 19q7 0 7 -11q0 -3 -4 -26q-5 -28 -7 -56q-6 -58 -6 -92q0 -28 -10 -28t-10 13q0 29 -6 48q-13 44 -76 51q-68 7 -207 7q-10 0 -10 -10v-376q3 -76 32 -97q31 -22 136 -22q102 0 139 16
q51 21 66 105q3 21 13 21q8 0 8 -21q0 -70 -19 -141q-7 -27 -21 -33q-11 -5 -57 -5q-102 0 -245 5q-75 4 -113 4q-28 0 -58 -1l-84 -3q-23 0 -23 11q0 9 11 9q18 0 44 6q32 7 42 79q7 61 7 315v255zM281 1289q-42 17 -42 25q0 6 16 11q64 19 87 28q21 7 23 7q-1 0 22 -23
q41 -41 142 -106q28 -19 28 -20q0 -8 -13 -8q-43 0 -263 86z" />
    <glyph glyph-name="Eacute" unicode="&#xc9;" horiz-adv-x="854" 
d="M258 671q0 267 -3 314q-2 39 -14 56q-13 19 -48 26q-20 5 -49 5q-12 0 -12 8q0 12 23 12q73 0 105 -2l59 -3q299 0 332 2q42 1 62 7q28 7 21 7q5 0 5 -13q0 -3 -4 -22q-5 -23 -7 -46q-1 -6 -3 -46t-4 -49q-4 -16 -11 -16q-11 0 -11 18q0 30 -9 53q-17 39 -103 49
q-32 4 -198 4q-9 0 -9 -14v-400q0 -15 9 -15q197 0 230 3q54 5 68 20q16 19 22 19q7 0 7 -11q0 -3 -4 -26q-5 -28 -7 -56q-6 -58 -6 -92q0 -28 -10 -28t-10 13q0 29 -6 48q-13 44 -76 51q-68 7 -207 7q-10 0 -10 -10v-376q3 -76 32 -97q31 -22 136 -22q102 0 139 16
q51 21 66 105q3 21 13 21q8 0 8 -21q0 -70 -19 -141q-7 -27 -21 -33q-11 -5 -57 -5q-102 0 -245 5q-75 4 -113 4q-28 0 -58 -1l-84 -3q-23 0 -23 11q0 9 11 9q18 0 44 6q32 7 42 79q7 61 7 315v255zM677 1289q9 -17 -6 -17h-43q-102 -12 -221 -61q-16 -8 -21 -8q-8 0 -8 9
q0 5 11 12q52 36 197 123q30 19 40 19q6 0 15 -13q4 -6 36 -64z" />
    <glyph glyph-name="Ecircumflex" unicode="&#xca;" horiz-adv-x="854" 
d="M258 671q0 267 -3 314q-2 39 -14 56q-13 19 -48 26q-20 5 -49 5q-12 0 -12 8q0 12 23 12q73 0 105 -2l59 -3q299 0 332 2q42 1 62 7q28 7 21 7q5 0 5 -13q0 -3 -4 -22q-5 -23 -7 -46q-1 -6 -3 -46t-4 -49q-4 -16 -11 -16q-11 0 -11 18q0 30 -9 53q-17 39 -103 49
q-32 4 -198 4q-9 0 -9 -14v-400q0 -15 9 -15q197 0 230 3q54 5 68 20q16 19 22 19q7 0 7 -11q0 -3 -4 -26q-5 -28 -7 -56q-6 -58 -6 -92q0 -28 -10 -28t-10 13q0 29 -6 48q-13 44 -76 51q-68 7 -207 7q-10 0 -10 -10v-376q3 -76 32 -97q31 -22 136 -22q102 0 139 16
q51 21 66 105q3 21 13 21q8 0 8 -21q0 -70 -19 -141q-7 -27 -21 -33q-11 -5 -57 -5q-102 0 -245 5q-75 4 -113 4q-28 0 -58 -1l-84 -3q-23 0 -23 11q0 9 11 9q18 0 44 6q32 7 42 79q7 61 7 315v255zM623 1193q-8 -8 -13 -8q-6 0 -11 7q-55 60 -122 100q-12 6 -14 6
q-8 0 -24 -8q-35 -18 -123 -91q-17 -14 -26 -14q-10 0 -10 11q0 5 9 16l162 151q17 14 23 14t23 -14l147 -110q17 -12 17 -15q0 -1 -7 -13z" />
    <glyph glyph-name="Edieresis" unicode="&#xcb;" horiz-adv-x="854" 
d="M258 671q0 267 -3 314q-2 39 -14 56q-13 19 -48 26q-20 5 -49 5q-12 0 -12 8q0 12 23 12q73 0 105 -2l59 -3q299 0 332 2q42 1 62 7q28 7 21 7q5 0 5 -13q0 -3 -4 -22q-5 -23 -7 -46q-1 -6 -3 -46t-4 -49q-4 -16 -11 -16q-11 0 -11 18q0 30 -9 53q-17 39 -103 49
q-32 4 -198 4q-9 0 -9 -14v-400q0 -15 9 -15q197 0 230 3q54 5 68 20q16 19 22 19q7 0 7 -11q0 -3 -4 -26q-5 -28 -7 -56q-6 -58 -6 -92q0 -28 -10 -28t-10 13q0 29 -6 48q-13 44 -76 51q-68 7 -207 7q-10 0 -10 -10v-376q3 -76 32 -97q31 -22 136 -22q102 0 139 16
q51 21 66 105q3 21 13 21q8 0 8 -21q0 -70 -19 -141q-7 -27 -21 -33q-11 -5 -57 -5q-102 0 -245 5q-75 4 -113 4q-28 0 -58 -1l-84 -3q-23 0 -23 11q0 9 11 9q18 0 44 6q32 7 42 79q7 61 7 315v255zM568 1224q-14 18 -14 42q0 23 14 41q17 21 48 21q27 0 45 -15
q18 -17 18 -43q0 -29 -17 -48q-18 -19 -47 -19q-30 0 -47 21zM276 1224q-14 18 -14 42q0 23 15 41q17 21 48 21q27 0 44 -15q18 -17 18 -43q0 -29 -17 -48q-18 -19 -47 -19q-30 0 -47 21z" />
    <glyph glyph-name="Igrave" unicode="&#xcc;" horiz-adv-x="656" 
d="M380 416q0 -254 7 -315q7 -72 57 -79q40 -6 65 -6q12 0 12 -9q0 -11 -24 -11q-48 0 -116 2l-62 2l-57 -2q-59 -2 -85 -2q-23 0 -23 11q0 9 11 9q18 0 44 6q32 7 42 79q7 61 7 315v255q0 267 -3 314q-4 70 -49 81q-24 6 -45 6q-12 0 -12 8q0 12 24 12q29 0 88 -2l58 -3
l58 3q58 2 84 2q23 0 23 -12q0 -8 -11 -8q-7 0 -37 -5q-49 -9 -53 -82q-3 -47 -3 -314v-255zM130 1289q-42 17 -42 25q0 6 16 11q64 19 87 28q21 7 24 7q-2 0 21 -23q41 -41 142 -106q28 -19 28 -20q0 -8 -13 -8q-34 0 -263 86z" />
    <glyph glyph-name="Iacute" unicode="&#xcd;" horiz-adv-x="642" 
d="M380 416q0 -254 7 -315q7 -72 57 -79q40 -6 65 -6q12 0 12 -9q0 -11 -24 -11q-48 0 -116 2l-62 2l-57 -2q-59 -2 -85 -2q-23 0 -23 11q0 9 11 9q18 0 44 6q32 7 42 79q7 61 7 315v255q0 267 -3 314q-4 70 -49 81q-24 6 -45 6q-12 0 -12 8q0 12 24 12q29 0 88 -2l58 -3
l58 3q58 2 84 2q23 0 23 -12q0 -8 -11 -8q-7 0 -37 -5q-49 -9 -53 -82q-3 -47 -3 -314v-255zM541 1289q9 -17 -6 -17h-43q-102 -11 -221 -61q-16 -8 -22 -8q-7 0 -7 9q0 5 10 12q52 36 197 123q32 19 41 19q5 0 15 -13q4 -6 36 -64z" />
    <glyph glyph-name="Icircumflex" unicode="&#xce;" horiz-adv-x="675" 
d="M380 416q0 -254 7 -315q7 -72 57 -79q40 -6 65 -6q12 0 12 -9q0 -11 -24 -11q-48 0 -116 2l-62 2l-57 -2q-59 -2 -85 -2q-23 0 -23 11q0 9 11 9q18 0 44 6q32 7 42 79q7 61 7 315v255q0 267 -3 314q-4 70 -49 81q-24 6 -45 6q-12 0 -12 8q0 12 24 12q29 0 88 -2l58 -3
l58 3q58 2 84 2q23 0 23 -12q0 -8 -11 -8q-7 0 -37 -5q-49 -9 -53 -82q-3 -47 -3 -314v-255zM473 1193q-10 -8 -13 -8q-7 0 -12 7q-59 65 -122 100q-12 6 -14 6q-8 0 -23 -8q-36 -18 -124 -91q-15 -14 -26 -14q-10 0 -10 11q0 5 9 16l162 151q17 14 23 14q5 0 24 -14
q30 -24 146 -110q17 -12 17 -15q0 -1 -7 -13z" />
    <glyph glyph-name="Idieresis" unicode="&#xcf;" horiz-adv-x="658" 
d="M380 416q0 -254 7 -315q7 -72 57 -79q40 -6 65 -6q12 0 12 -9q0 -11 -24 -11q-48 0 -116 2l-62 2l-57 -2q-59 -2 -85 -2q-23 0 -23 11q0 9 11 9q18 0 44 6q32 7 42 79q7 61 7 315v255q0 267 -3 314q-4 70 -49 81q-24 6 -45 6q-12 0 -12 8q0 12 24 12q29 0 88 -2l58 -3
l58 3q58 2 84 2q23 0 23 -12q0 -8 -11 -8q-7 0 -37 -5q-49 -9 -53 -82q-3 -47 -3 -314v-255zM417 1224q-14 18 -14 42q0 23 14 41q17 21 48 21q27 0 45 -15q18 -17 18 -43q0 -29 -17 -48q-18 -19 -47 -19q-30 0 -47 21zM126 1224q-14 18 -14 42q0 23 14 41q17 21 48 21
q27 0 44 -15q18 -17 18 -43q0 -29 -17 -48t-46 -19q-30 0 -47 21z" />
    <glyph glyph-name="Eth" unicode="&#xd0;" horiz-adv-x="1346" 
d="M259 671q0 267 -3 314q-3 39 -15 56q-13 19 -47 26q-20 5 -49 5q-12 0 -12 8q0 12 23 12q39 0 103 -2l61 -3l71 3q72 2 125 2q191 0 279 -16q190 -34 302 -149q141 -147 141 -369q0 -242 -157 -409q-159 -166 -439 -166q-76 0 -202 8q-114 9 -120 9q-28 0 -58 -1l-84 -3
q-23 0 -23 11q0 9 11 9q18 0 44 6q31 7 42 79q7 61 7 315v107h-128q-12 0 -10 16l5 24q4 13 19 13h114v95zM381 445q0 -210 3 -245q2 -92 16 -110q39 -58 246 -58q211 0 345 135q116 113 116 346q0 220 -139 366q-156 164 -475 164q-73 0 -93 -11q-18 -7 -18 -29l-1 -426
h297q13 0 10 -16l-6 -27q-1 -12 -18 -12h-283v-77z" />
    <glyph glyph-name="Ntilde" unicode="&#xd1;" horiz-adv-x="1389" 
d="M297 193q2 -88 15 -124q12 -36 42 -44q30 -9 72 -9q12 0 12 -9q0 -11 -26 -11q-50 0 -103 2l-51 2l-50 -2q-50 -2 -89 -2q-23 0 -23 11q0 9 11 9q35 0 60 9q26 7 35 46q8 36 8 138l2 831q0 72 16 72q4 0 50 -46l461 -498l211 -228l137 -150l-15 737q-2 72 -12 100
q-12 29 -45 37q-35 8 -71 8q-12 0 -12 10t29 10q39 0 94 -2l57 -3l45 3q43 2 78 2q26 0 26 -10t-15 -10q-18 0 -35 -5q-34 -7 -45 -36q-9 -24 -9 -93l-3 -850q0 -103 -13 -103t-106 93q-90 84 -378 393l-379 416zM689 1241q-74 34 -99 34q-44 0 -88 -53q-13 -13 -21 -13
t-8 9q0 7 10 22q64 103 125 103q25 0 121 -45q53 -25 84 -25q61 0 89 42q11 16 17 16q10 0 10 -9q0 -8 -5 -18q-13 -25 -48 -59q-43 -42 -73 -42q-38 0 -114 38z" />
    <glyph glyph-name="Ograve" unicode="&#xd2;" horiz-adv-x="1335" 
d="M229 917q161 195 435 195q250 0 407 -145q163 -150 163 -399t-158 -418q-164 -175 -421 -175q-275 0 -430 187q-132 160 -132 383q0 207 136 372zM365 181q130 -151 330 -151q143 0 249 91q151 129 151 407q0 249 -135 398q-124 137 -306 137q-189 0 -302 -120
q-121 -127 -121 -357q0 -249 134 -405zM474 1289q-42 17 -42 25q0 6 16 11q70 21 87 28q21 7 23 7q-1 0 22 -23q41 -41 142 -106q28 -19 28 -20q0 -8 -13 -8q-43 0 -263 86z" />
    <glyph glyph-name="Oacute" unicode="&#xd3;" horiz-adv-x="1356" 
d="M229 917q161 195 435 195q250 0 407 -145q163 -150 163 -399t-158 -418q-164 -175 -421 -175q-275 0 -430 187q-132 160 -132 383q0 207 136 372zM365 181q130 -151 330 -151q143 0 249 91q151 129 151 407q0 249 -135 398q-124 137 -306 137q-189 0 -302 -120
q-121 -127 -121 -357q0 -249 134 -405zM884 1289q10 -17 -5 -17h-44q-101 -11 -220 -61q-16 -8 -22 -8q-7 0 -7 9q0 5 10 12q52 36 197 123q32 19 41 19q5 0 14 -13q13 -19 36 -64z" />
    <glyph glyph-name="Ocircumflex" unicode="&#xd4;" horiz-adv-x="1346" 
d="M229 917q161 195 435 195q250 0 407 -145q163 -150 163 -399t-158 -418q-164 -175 -421 -175q-275 0 -430 187q-132 160 -132 383q0 207 136 372zM365 181q130 -151 330 -151q143 0 249 91q151 129 151 407q0 249 -135 398q-124 137 -306 137q-189 0 -302 -120
q-121 -127 -121 -357q0 -249 134 -405zM816 1193q-8 -8 -13 -8q-6 0 -11 7q-55 60 -122 100q-12 6 -15 6q-7 0 -23 -8q-35 -18 -123 -91q-17 -14 -26 -14q-10 0 -10 11q0 4 8 16q9 9 81 76l82 75q15 14 23 14q6 0 23 -14l147 -110q17 -12 17 -15q0 -1 -7 -13z" />
    <glyph glyph-name="Otilde" unicode="&#xd5;" horiz-adv-x="1340" 
d="M229 917q161 195 435 195q250 0 407 -145q163 -150 163 -399t-158 -418q-164 -175 -421 -175q-275 0 -430 187q-132 160 -132 383q0 207 136 372zM365 181q130 -151 330 -151q143 0 249 91q151 129 151 407q0 249 -135 398q-124 137 -306 137q-189 0 -302 -120
q-121 -127 -121 -357q0 -249 134 -405zM651 1241q-74 34 -99 34q-44 0 -88 -53q-11 -13 -20 -13t-9 9q0 7 10 22q64 103 125 103q26 0 122 -45q50 -25 84 -25q60 0 88 42q11 16 18 16q10 0 10 -9q0 -6 -6 -18q-13 -26 -48 -59q-42 -42 -72 -42q-39 0 -115 38z" />
    <glyph glyph-name="Odieresis" unicode="&#xd6;" horiz-adv-x="1342" 
d="M229 917q161 195 435 195q250 0 407 -145q163 -150 163 -399t-158 -418q-164 -175 -421 -175q-275 0 -430 187q-132 160 -132 383q0 207 136 372zM365 181q130 -151 330 -151q143 0 249 91q151 129 151 407q0 249 -135 398q-124 137 -306 137q-189 0 -302 -120
q-121 -127 -121 -357q0 -249 134 -405zM761 1224q-14 18 -14 42q0 23 14 41q17 21 48 21q27 0 44 -15q18 -17 18 -43q0 -29 -17 -48t-46 -19q-30 0 -47 21zM469 1224q-14 18 -14 42q0 23 15 41q17 21 48 21q26 0 44 -15q18 -17 18 -43q0 -29 -17 -48q-18 -19 -47 -19
q-30 0 -47 21z" />
    <glyph glyph-name="multiply" unicode="&#xd7;" horiz-adv-x="736" 
d="M133 677l235 -242l237 242l55 -54l-237 -242l237 -240l-54 -54l-236 241l-235 -241l-55 54l236 240l-235 242z" />
    <glyph glyph-name="Oslash" unicode="&#xd8;" horiz-adv-x="1343" 
d="M167 -39q-7 -8 -15 0l-29 27q-9 9 -3 15l126 136q-153 160 -153 406q0 207 136 372q161 195 435 195q224 0 374 -119l119 128q8 8 20 -3l29 -23q10 -9 0 -19l-117 -126q145 -148 145 -382q0 -249 -158 -418q-164 -175 -421 -175q-218 0 -362 121zM368 177
q131 -147 327 -147q143 0 249 91q151 129 151 407q0 197 -87 335zM967 916q-124 147 -315 147q-187 0 -300 -120q-121 -127 -121 -357q0 -213 98 -358z" />
    <glyph glyph-name="Ugrave" unicode="&#xd9;" horiz-adv-x="1204" 
d="M174 671q0 267 -3 314q-2 39 -14 56q-13 19 -48 26q-20 5 -50 5q-11 0 -11 8q0 12 23 12h310q24 0 24 -12q0 -8 -12 -8q-8 0 -36 -5q-50 -8 -54 -82q-3 -47 -3 -314v-203q0 -253 109 -358q85 -80 219 -80q140 0 227 105q85 104 85 355v181q0 267 -3 314q-2 38 -15 56
q-13 19 -48 26q-18 5 -49 5q-12 0 -12 8q0 12 24 12h275q23 0 23 -12q0 -8 -11 -8q-7 0 -37 -5q-49 -11 -53 -82q-3 -47 -3 -314v-155q0 -315 -133 -433q-122 -108 -299 -108q-190 0 -299 103q-126 121 -126 382v211zM419 1289q-42 17 -42 25q0 6 16 11q70 21 87 28
q21 7 23 7q-1 0 22 -23q33 -36 142 -106l28 -20q0 -8 -14 -8q-42 0 -262 86z" />
    <glyph glyph-name="Uacute" unicode="&#xda;" horiz-adv-x="1194" 
d="M174 671q0 267 -3 314q-2 39 -14 56q-13 19 -48 26q-20 5 -50 5q-11 0 -11 8q0 12 23 12q39 0 103 -2l64 -3l60 3q58 2 83 2q24 0 24 -12q0 -8 -12 -8q-8 0 -36 -5q-50 -8 -54 -82q-3 -47 -3 -314v-203q0 -253 109 -358q85 -80 219 -80q140 0 227 105q85 104 85 355v181
q0 267 -3 314q-2 38 -15 56q-13 19 -48 26q-18 5 -49 5q-12 0 -12 8q0 12 24 12q40 0 98 -2l55 -3l49 3q47 2 73 2q23 0 23 -12q0 -8 -11 -8q-7 0 -37 -5q-49 -11 -53 -82q-3 -47 -3 -314v-155q0 -315 -133 -433q-122 -108 -299 -108q-190 0 -299 103q-126 121 -126 382v211
zM419 1289q-42 17 -42 25q0 6 16 11q70 21 87 28q21 7 23 7q-1 0 22 -23q33 -36 142 -106l28 -20q0 -8 -14 -8q-42 0 -262 86z" />
    <glyph glyph-name="Ucircumflex" unicode="&#xdb;" horiz-adv-x="1190" 
d="M174 671q0 267 -3 314q-2 39 -14 56q-13 19 -48 26q-20 5 -50 5q-11 0 -11 8q0 12 23 12q39 0 103 -2l64 -3l60 3q58 2 83 2q24 0 24 -12q0 -8 -12 -8q-8 0 -36 -5q-50 -8 -54 -82q-3 -47 -3 -314v-203q0 -253 109 -358q85 -80 219 -80q140 0 227 105q85 104 85 355v181
q0 267 -3 314q-2 38 -15 56q-13 19 -48 26q-18 5 -49 5q-12 0 -12 8q0 12 24 12q40 0 98 -2l55 -3l49 3q47 2 73 2q23 0 23 -12q0 -8 -11 -8q-7 0 -37 -5q-49 -11 -53 -82q-3 -47 -3 -314v-155q0 -315 -133 -433q-122 -108 -299 -108q-190 0 -299 103q-126 121 -126 382v211
zM776 1193q-10 -8 -13 -8q-7 0 -12 7q-59 65 -122 100q-12 6 -14 6q-8 0 -23 -8q-36 -18 -124 -91q-15 -14 -26 -14q-10 0 -10 11q0 5 9 16l162 151q17 14 23 14q5 0 24 -14q30 -24 146 -110q17 -12 17 -15q0 -1 -7 -13z" />
    <glyph glyph-name="Udieresis" unicode="&#xdc;" horiz-adv-x="1188" 
d="M174 671q0 267 -3 314q-2 39 -14 56q-13 19 -48 26q-20 5 -50 5q-11 0 -11 8q0 12 23 12h310q24 0 24 -12q0 -8 -12 -8q-8 0 -36 -5q-50 -8 -54 -82q-3 -47 -3 -314v-203q0 -253 109 -358q85 -80 219 -80q140 0 227 105q85 104 85 355v181q0 267 -3 314q-2 38 -15 56
q-13 19 -48 26q-18 5 -49 5q-12 0 -12 8q0 12 24 12h275q23 0 23 -12q0 -8 -11 -8q-7 0 -37 -5q-49 -11 -53 -82q-3 -47 -3 -314v-155q0 -315 -133 -433q-122 -108 -299 -108q-190 0 -299 103q-126 121 -126 382v211zM727 1224q-14 18 -14 42q0 23 15 41q17 21 48 21
q27 0 44 -15q18 -17 18 -43q0 -29 -17 -48q-18 -19 -47 -19q-30 0 -47 21zM436 1224q-14 18 -14 42q0 23 14 41q17 21 48 21q27 0 45 -15q18 -17 18 -43q0 -29 -17 -48q-18 -19 -47 -19q-30 0 -47 21z" />
    <glyph glyph-name="Yacute" unicode="&#xdd;" horiz-adv-x="970" 
d="M419 371q0 79 -33 152q-45 107 -256 418q-51 76 -98 107q-35 24 -62 24q-15 0 -15 10t19 10q16 0 79 -2l64 -3l44 3q44 2 78 2q19 0 19 -10q0 -5 -22 -13q-19 -10 -19 -26q0 -19 19 -57q198 -347 267 -458q52 113 241 426q24 39 24 74t-23 41q-21 6 -21 14q0 9 23 9
q22 0 57 -2l38 -3l64 3q61 2 77 2q19 0 19 -9q0 -11 -19 -11q-33 0 -67 -21q-32 -19 -76 -74q-173 -209 -277 -461q-22 -52 -22 -145v-125q0 -84 4 -145q5 -72 60 -79q40 -6 65 -6q11 0 11 -9q0 -11 -23 -11q-48 0 -116 2l-62 2l-57 -2q-59 -2 -85 -2q-23 0 -23 11q0 9 11 9
q18 0 44 6q40 8 45 79q4 61 4 145v125zM738 1289q9 -17 -6 -17h-43q-102 -12 -221 -61q-16 -8 -21 -8q-8 0 -8 9q0 5 10 12q53 36 198 123q30 19 40 19q6 0 15 -13q4 -6 36 -64z" />
    <glyph glyph-name="Thorn" unicode="&#xde;" horiz-adv-x="913" 
d="M258 671q0 267 -3 314q-2 39 -14 56q-13 19 -48 26q-20 5 -49 5q-12 0 -12 8q0 12 23 12q39 0 102 -2l62 -3l62 3q66 2 109 2q23 0 23 -10t-11 -10q-17 0 -57 -6q-63 -12 -65 -77q-3 -91 -3 -136q105 5 126 5q172 0 270 -82q71 -62 71 -171q0 -153 -101 -250
q-100 -95 -256 -95q-23 0 -30 1q-16 0 -16 10q0 13 39 13q106 0 178 68q73 69 73 169q0 140 -81 223q-71 72 -199 72q-41 0 -62 -8q-12 -4 -12 -28v-364q0 -254 7 -315q9 -72 57 -79q40 -6 65 -6q12 0 12 -9q0 -11 -24 -11q-48 0 -116 2l-62 2l-55 -2q-58 -2 -84 -2
q-23 0 -23 11q0 9 11 9q18 0 44 6q32 7 42 79q7 61 7 315v255z" />
    <glyph glyph-name="germandbls" unicode="&#xdf;" horiz-adv-x="1477" 
d="M117 13q-18 10 -18 46q0 61 7 131q0 20 10 20q12 0 12 -14q0 -28 4 -45q14 -62 76 -95q53 -27 125 -27q92 0 144 47q48 44 48 117q0 62 -38 109q-30 36 -123 105l-58 44q-183 137 -183 264q0 107 79 170q76 62 204 62q74 0 132 -15q25 -5 45 -5q13 0 13 -9q0 7 -3 -36
t-3 -95q0 -27 -10 -27q-9 0 -12 16q-2 32 -18 61q-39 61 -166 61q-73 0 -119 -34q-50 -37 -50 -100q0 -58 35 -101q34 -42 130 -108l36 -24q209 -143 209 -298q0 -132 -119 -210q-66 -43 -203 -43q-116 0 -186 33zM877 13q-19 10 -19 46q0 51 8 131q0 20 10 20q11 0 11 -14
q0 -28 5 -45q14 -62 76 -95q53 -27 125 -27q92 0 143 47q49 45 49 117q0 62 -38 109q-30 36 -123 105l-58 44q-183 137 -183 264q0 107 79 170q76 62 204 62q74 0 132 -15q24 -5 45 -5q13 0 13 -9q0 7 -3 -36t-3 -95q0 -27 -10 -27q-9 0 -12 16q-2 34 -19 61q-35 61 -165 61
q-73 0 -120 -34q-50 -37 -50 -100q0 -57 36 -101q34 -42 130 -108l36 -24q209 -143 209 -298q0 -132 -119 -210q-66 -43 -203 -43q-117 0 -186 33z" />
    <glyph glyph-name="agrave" unicode="&#xe0;" horiz-adv-x="912" 
d="M419 903q19 48 30 48q10 0 31 -45l132 -323l174 -425q48 -115 109 -135q21 -7 50 -7q16 0 16 -10t-29 -10q-113 0 -201 3q-45 2 -45 8q0 5 9 9q22 9 11 33l-114 283q-3 7 -12 7h-294q-10 0 -13 -10l-73 -197q-19 -49 -19 -83q0 -33 44 -33h11q13 0 13 -10t-18 -10t-64 2
l-51 2l-50 -2q-48 -2 -79 -2q-25 0 -25 10t12 10q22 0 38 3q65 8 107 113zM561 390q7 0 4 9l-126 338q-10 27 -21 0l-119 -338q-3 -9 4 -9h258zM264 1122q-42 16 -42 25q0 7 16 12q56 15 87 27q19 7 23 7q-1 0 22 -23q44 -44 142 -106q27 -19 27 -20q0 -7 -13 -7
q-18 0 -262 85z" />
    <glyph glyph-name="aacute" unicode="&#xe1;" horiz-adv-x="908" 
d="M419 903q19 48 30 48q10 0 31 -45l132 -323l174 -425q48 -115 109 -135q21 -7 50 -7q16 0 16 -10t-29 -10q-113 0 -201 3q-45 2 -45 8q0 5 9 9q22 9 11 33l-114 283q-3 7 -12 7h-294q-10 0 -13 -10l-73 -197q-19 -49 -19 -83q0 -33 44 -33h11q13 0 13 -10t-18 -10t-64 2
l-51 2l-50 -2q-48 -2 -79 -2q-25 0 -25 10t12 10q22 0 38 3q65 8 107 113zM561 390q7 0 4 9l-126 338q-10 27 -21 0l-119 -338q-3 -9 4 -9h258zM674 1122q9 -17 -6 -17h-43q-100 -10 -220 -61q-19 -7 -22 -7q-7 0 -7 8q0 7 10 12q52 36 197 123q32 19 40 19q6 0 15 -13
q3 -4 36 -64z" />
    <glyph glyph-name="acircumflex" unicode="&#xe2;" horiz-adv-x="908" 
d="M419 903q19 48 30 48q10 0 31 -45l132 -323l174 -425q48 -115 109 -135q21 -7 50 -7q16 0 16 -10t-29 -10q-113 0 -201 3q-45 2 -45 8q0 5 9 9q22 9 11 33l-114 283q-3 7 -12 7h-294q-10 0 -13 -10l-73 -197q-19 -49 -19 -83q0 -33 44 -33h11q13 0 13 -10t-18 -10t-64 2
l-51 2l-50 -2q-48 -2 -79 -2q-25 0 -25 10t12 10q22 0 38 3q65 8 107 113zM561 390q7 0 4 9l-126 338q-10 27 -21 0l-119 -338q-3 -9 4 -9h258zM606 1027q-9 -9 -13 -9q-6 0 -12 7q-56 62 -121 100q-12 6 -15 6q-9 0 -23 -7q-42 -23 -123 -92q-17 -14 -26 -14q-11 0 -11 11
q0 5 9 16q67 67 163 151q17 15 23 15q3 0 23 -15q70 -47 146 -110q18 -12 18 -14q0 4 -7 -14z" />
    <glyph glyph-name="atilde" unicode="&#xe3;" horiz-adv-x="908" 
d="M419 903q19 48 30 48q10 0 31 -45l132 -323l174 -425q48 -115 109 -135q21 -7 50 -7q16 0 16 -10t-29 -10q-113 0 -201 3q-45 2 -45 8q0 5 9 9q22 9 11 33l-114 283q-3 7 -12 7h-294q-10 0 -13 -10l-73 -197q-19 -49 -19 -83q0 -33 44 -33h11q13 0 13 -10t-18 -10t-64 2
l-51 2l-50 -2q-48 -2 -79 -2q-25 0 -25 10t12 10q22 0 38 3q65 8 107 113zM561 390q7 0 4 9l-126 338q-10 27 -21 0l-119 -338q-3 -9 4 -9h258zM441 1074q-74 34 -99 34q-41 0 -88 -52q-12 -13 -21 -13q-8 0 -8 8q0 7 10 22q64 103 125 103q29 0 121 -45q53 -25 84 -25
q55 0 89 42q11 16 17 16q10 0 10 -8q0 -9 -5 -19q-13 -25 -48 -59q-43 -41 -73 -41q-40 0 -114 37z" />
    <glyph glyph-name="adieresis" unicode="&#xe4;" horiz-adv-x="910" 
d="M419 903q19 48 30 48q10 0 31 -45l132 -323l174 -425q48 -115 109 -135q21 -7 50 -7q16 0 16 -10t-29 -10q-113 0 -201 3q-45 2 -45 8q0 5 9 9q22 9 11 33l-114 283q-3 7 -12 7h-294q-10 0 -13 -10l-73 -197q-19 -49 -19 -83q0 -33 44 -33h11q13 0 13 -10t-18 -10t-64 2
l-51 2l-50 -2q-48 -2 -79 -2q-25 0 -25 10t12 10q22 0 38 3q65 8 107 113zM561 390q7 0 4 9l-126 338q-10 27 -21 0l-119 -338q-3 -9 4 -9h258zM550 1058q-14 18 -14 41t15 41q17 21 48 21q62 0 62 -58q0 -29 -17 -47q-18 -19 -47 -19q-30 0 -47 21zM259 1058q-14 17 -14 41
q0 23 14 41q17 21 48 21q63 0 63 -58q0 -28 -17 -47q-18 -19 -47 -19q-30 0 -47 21z" />
    <glyph glyph-name="aring" unicode="&#xe5;" horiz-adv-x="932" 
d="M419 903q19 48 30 48q10 0 31 -45l132 -323l174 -425q48 -115 109 -135q21 -7 50 -7q16 0 16 -10t-29 -10q-113 0 -201 3q-45 2 -45 8q0 5 9 9q22 9 11 33l-114 283q-3 7 -12 7h-294q-10 0 -13 -10l-73 -197q-19 -49 -19 -83q0 -33 44 -33h11q13 0 13 -10t-18 -10t-64 2
l-51 2l-50 -2q-48 -2 -79 -2q-25 0 -25 10t12 10q22 0 38 3q65 8 107 113zM561 390q7 0 4 9l-126 338q-10 27 -21 0l-119 -338q-3 -9 4 -9h258zM338 1046q-29 23 -29 62q0 50 48 86q50 38 123 38q55 0 87 -23q32 -22 32 -59q1 -57 -57 -94q-52 -34 -120 -34q-53 0 -84 24z
M506 1079q25 21 25 52q0 28 -18 47q-21 20 -58 20q-29 0 -53 -17q-29 -20 -29 -54q0 -31 23 -51q21 -19 49 -19q36 0 61 22z" />
    <glyph glyph-name="ae" unicode="&#xe6;" horiz-adv-x="1175" 
d="M381 415q-16 0 -21 -9q-22 -28 -144 -222q-57 -91 -57 -125q0 -24 25 -33q27 -10 55 -10q15 0 15 -12q0 -8 -22 -8q-43 0 -102 2l-59 2l-53 -2q-54 -2 -91 -2q-17 0 -17 10q0 7 15 7q27 0 53 13q50 25 134 132q31 40 468 700q23 35 29 53q5 17 16 17l41 -3h307q32 0 55 7
q3 0 9 3t8 3q6 0 6 -11q0 -3 -4 -20q-4 -19 -6 -38l-7 -82q-5 -13 -9 -13q-13 0 -13 16q0 27 -7 44q-14 28 -89 37q-35 5 -179 5q-9 0 -9 -13v-385q0 -13 9 -13q178 0 208 3q52 5 60 16q11 16 19 16q5 0 5 -10l-4 -21q-4 -23 -6 -47q-4 -33 -4 -71q0 -19 -9 -19
q-13 0 -13 19q0 10 -4 23q-8 34 -73 39q-24 3 -179 3q-9 0 -9 -11v-267q3 -61 32 -77q26 -15 122 -15q89 0 123 13q43 19 53 85q4 17 15 17q9 0 9 -17q0 -65 -18 -119q-6 -23 -19 -28q-9 -4 -49 -4q-152 0 -223 4q-81 3 -107 3l-50 -1q-34 -3 -69 -3q-21 0 -21 10t10 10
q4 0 40 6q30 5 37 65q6 51 6 267v51q0 10 -11 10h-227zM619 808q0 5 -4 5q-3 0 -7 -5q-120 -169 -209 -332q-8 -12 4 -12h205q11 0 11 10v334z" />
    <glyph glyph-name="ccedilla" unicode="&#xe7;" horiz-adv-x="1031" 
d="M521 -99q145 -13 145 -103q0 -76 -103 -118q-60 -27 -114 -27q-18 0 -18 12q0 14 29 16q42 5 72 27q35 25 35 61q0 77 -104 106q-22 7 -22 13q0 5 19 21l92 75q-194 21 -317 128q-155 133 -155 365q0 197 143 336q137 132 389 132q104 0 185 -13q138 -20 131 -20
q16 0 16 -13l-6 -70l-3 -126q-1 -26 -14 -26q-10 0 -10 26q0 80 -54 123q-82 69 -251 69q-195 0 -287 -86q-115 -106 -115 -322q0 -182 128 -311q132 -135 332 -135q153 0 210 58q36 34 50 103q4 17 13 17q11 0 11 -17q0 -60 -30 -159q-8 -26 -32 -36q-70 -27 -231 -27
q-33 0 -49 1q-66 -59 -85 -80z" />
    </font>
</defs>
</svg>
